<?xml version="1.0" standalone="no"?>
<!DOCTYPE svg PUBLIC "-//W3C//DTD SVG 20010904//EN"
 "http://www.w3.org/TR/2001/REC-SVG-20010904/DTD/svg10.dtd">
<svg version="1.0" xmlns="http://www.w3.org/2000/svg"
 width="530.000000pt" height="530.000000pt" viewBox="0 0 530.000000 530.000000"
 preserveAspectRatio="xMidYMid meet">

<g transform="translate(0.000000,530.000000) scale(0.100000,-0.100000)"
fill="#000000" stroke="none">
<path d="M0 5134 c0 -166 0 -166 25 -186 56 -44 87 -172 55 -229 -8 -15 -23
-41 -33 -59 -17 -29 -17 -34 -3 -65 22 -46 20 -70 -14 -154 l-30 -73 0 -702
c0 -470 3 -705 10 -712 23 -23 60 -344 63 -537 2 -169 4 -189 20 -198 10 -6
30 -8 46 -4 26 6 30 13 56 113 15 58 45 155 66 215 22 59 39 115 39 124 0 36
42 155 64 180 22 25 26 26 49 14 43 -23 52 -60 38 -159 -21 -157 -29 -196 -50
-259 -12 -34 -21 -78 -21 -97 0 -29 -20 -97 -48 -166 -3 -8 -6 -19 -7 -25 -11
-86 -19 -116 -33 -125 -16 -9 -16 -9 -1 -10 9 0 22 -7 29 -15 8 -10 17 -12 24
-6 6 6 29 6 56 1 25 -5 49 -9 53 -10 5 0 7 -5 5 -12 -2 -6 3 -19 12 -28 12
-12 19 -44 24 -100 10 -115 8 -252 -4 -264 -5 -5 -10 -18 -10 -28 0 -10 -5
-18 -10 -18 -6 0 -18 -17 -27 -38 -62 -140 -56 -131 -121 -197 -18 -18 -45
-52 -61 -75 -24 -37 -27 -46 -18 -71 12 -30 -3 -92 -83 -349 -86 -278 -80
-235 -80 -537 l0 -273 1295 0 1294 0 -13 38 c-8 20 -36 94 -65 165 -57 143
-69 211 -36 213 35 2 37 4 22 19 -9 8 -17 20 -19 27 -3 7 -20 13 -39 14 -33 1
-34 2 -61 80 -31 90 -37 139 -11 87 9 -18 23 -33 31 -33 10 0 12 4 4 13 -14
17 -10 56 7 66 18 12 7 41 -16 42 -10 1 -29 2 -43 2 -31 2 -42 37 -11 37 27 0
27 17 -1 40 -16 13 -27 15 -35 8 -9 -7 -14 -2 -19 19 -4 15 -15 46 -25 68 -10
22 -20 52 -23 68 -7 40 -18 71 -27 77 -11 7 -169 448 -169 470 0 10 6 21 12
23 8 4 5 8 -8 12 -11 4 -28 23 -37 43 -35 83 -48 119 -56 154 -8 33 -7 38 9
38 11 0 21 4 25 10 3 5 12 7 20 3 8 -3 15 -1 15 5 0 5 -9 12 -20 15 -12 3 -20
14 -20 26 0 16 6 21 28 21 26 1 26 1 8 15 -16 12 -17 18 -7 28 10 10 15 8 25
-5 7 -10 18 -18 24 -18 13 0 32 -32 32 -53 0 -9 -8 -14 -17 -12 -10 1 -12 0
-5 -2 6 -3 12 -12 12 -21 0 -13 2 -14 9 -4 10 17 110 -224 221 -533 45 -126
89 -242 97 -258 8 -16 10 -27 4 -27 -6 0 -11 -7 -11 -16 0 -8 4 -12 10 -9 5 3
10 -1 10 -9 0 -9 3 -16 8 -16 13 0 5 -64 -9 -69 -8 -3 -14 -19 -14 -36 1 -36
25 -96 32 -77 3 7 0 19 -7 27 -6 8 -9 19 -5 25 10 15 35 12 35 -5 0 -8 4 -23
9 -33 5 -9 16 -33 24 -52 8 -19 26 -60 40 -90 15 -30 33 -86 42 -124 9 -38 27
-101 39 -140 26 -79 78 -248 97 -313 l12 -43 68 0 c54 0 70 4 78 17 9 17 11
16 30 -1 12 -11 21 -14 21 -8 0 7 7 12 15 12 8 0 15 -4 15 -10 0 -7 362 -10
1066 -10 l1065 0 -7 23 c-8 28 -4 25 -42 32 -18 3 -41 10 -50 15 -9 4 -37 18
-62 28 -120 53 -179 83 -185 92 -3 5 -25 19 -48 30 -23 11 -55 28 -72 37 -16
9 -37 17 -46 18 -8 0 -26 11 -39 23 -13 12 -27 22 -32 22 -21 0 -108 99 -108
123 0 11 55 58 97 84 24 14 43 28 43 31 0 4 -31 22 -69 40 -184 88 -347 231
-434 380 -107 183 -153 412 -143 712 3 96 10 193 14 215 65 288 90 374 172
570 66 157 67 165 38 243 -25 66 -71 218 -84 277 -6 29 -76 204 -94 237 -10
17 -51 152 -79 258 -20 75 -12 146 17 152 57 13 91 -44 186 -317 12 -33 32
-81 46 -105 14 -25 32 -58 40 -75 11 -21 24 -31 43 -33 l28 -3 -3 208 c-4 335
11 462 59 480 9 3 31 -2 50 -12 19 -11 49 -18 68 -17 21 2 35 -3 38 -12 5 -12
0 -14 -22 -10 -53 11 -55 1 -48 -304 6 -280 11 -324 45 -337 8 -3 16 -4 17 -3
2 2 23 35 48 74 36 56 53 73 76 77 21 5 46 27 88 79 32 40 64 77 72 82 7 4 27
21 44 36 30 26 31 29 20 65 -11 34 -10 38 7 42 13 3 22 17 26 39 5 26 11 34
28 34 30 0 66 27 66 51 0 12 7 19 19 19 11 0 23 5 26 10 3 6 -5 10 -19 10 -14
0 -28 5 -32 11 -4 7 -17 0 -34 -19 -19 -21 -34 -29 -48 -25 -11 2 -23 0 -26
-6 -12 -19 -24 -12 -19 9 4 14 11 19 23 15 15 -5 17 -2 13 17 -4 13 -12 32
-20 43 -7 11 -13 33 -12 50 1 29 1 29 8 5 7 -24 8 -23 19 15 15 50 16 108 2
100 -5 -3 -10 -18 -10 -33 0 -34 -14 -57 -29 -48 -7 4 -11 -1 -11 -12 0 -11
-11 -48 -25 -83 -22 -58 -24 -61 -25 -30 0 32 40 176 60 213 6 11 4 20 -5 28
-17 14 -17 14 -33 -71 -12 -65 -42 -140 -49 -121 -3 7 1 27 7 45 7 17 15 62
19 98 5 54 4 69 -9 77 -13 9 -13 11 3 11 10 1 30 12 45 26 15 14 37 25 50 25
16 0 25 8 32 28 6 15 15 35 21 45 16 29 5 30 -21 2 -13 -14 -34 -25 -48 -25
-26 0 -72 -37 -72 -57 0 -7 -12 -15 -28 -18 -15 -4 -35 -10 -44 -16 -30 -16
-46 -10 -57 21 -10 31 -31 41 -31 15 0 -36 -37 -1 -80 75 -16 29 -32 45 -44
45 -11 0 -21 6 -24 13 -2 7 2 11 10 10 14 -3 14 3 2 105 -7 66 -15 74 -46 53
-12 -9 -28 -16 -34 -16 -10 0 -54 90 -54 112 0 5 -10 32 -21 59 -14 32 -28 49
-39 49 -13 0 -19 11 -23 45 -4 25 -16 63 -27 85 -17 34 -24 39 -44 34 -35 -8
-49 24 -44 97 2 33 1 59 -4 59 -16 0 -38 74 -38 129 -1 31 -6 69 -13 84 l-12
28 -38 -40 c-21 -23 -36 -45 -32 -51 3 -5 2 -10 -4 -10 -13 0 -23 17 -14 23 5
3 9 31 11 64 2 32 9 89 16 126 l13 68 -265 -2 c-277 -1 -302 -5 -302 -44 0
-26 30 -102 53 -137 27 -39 15 -146 -20 -184 -13 -14 -26 -25 -28 -23 -1 2
-20 33 -40 67 -31 53 -40 63 -59 58 -11 -3 -27 -1 -35 3 -10 7 -6 12 15 22 35
17 39 39 29 157 l-7 82 -135 0 c-116 0 -134 -2 -129 -15 3 -8 1 -15 -4 -15 -6
0 -10 -7 -10 -16 0 -13 3 -14 14 -5 10 9 17 6 29 -13 9 -13 19 -36 23 -50 3
-14 12 -30 19 -34 8 -4 14 -10 14 -14 1 -5 4 -8 9 -9 25 -2 40 -34 39 -82 -2
-48 -4 -53 -35 -68 -19 -8 -40 -28 -48 -45 -17 -34 -71 -74 -102 -74 -17 0
-22 6 -22 27 0 15 -9 36 -20 48 -121 125 -214 213 -240 227 -16 10 -33 25 -37
35 -4 9 -26 36 -48 60 l-42 43 -390 0 c-377 0 -489 -7 -504 -32 -7 -10 -37
-13 -101 -10 -16 1 -37 11 -48 22 -19 19 -33 20 -300 20 -219 0 -281 -3 -279
-12 3 -29 -2 -48 -13 -48 -7 0 -24 -12 -37 -26 -13 -14 -30 -23 -38 -19 -8 3
-21 5 -29 5 -8 0 -14 7 -14 15 0 18 -16 20 -23 3 -3 -9 -9 -7 -20 7 -8 11 -18
18 -21 15 -11 -12 -10 -114 2 -118 17 -5 15 -39 -3 -46 -8 -3 -22 -3 -30 0
-10 4 -15 0 -15 -11 0 -12 6 -16 20 -12 11 3 20 1 20 -5 0 -6 11 -23 25 -40
16 -19 25 -42 25 -63 0 -24 6 -38 21 -45 13 -7 18 -17 15 -27 -4 -10 2 -21 14
-30 19 -13 19 -16 4 -44 -8 -17 -51 -65 -95 -108 -79 -78 -80 -78 -182 -106
-56 -15 -135 -29 -174 -31 -40 -2 -81 -8 -92 -14 -24 -13 -98 -13 -106 -1 -3
6 2 14 11 19 15 9 16 15 4 56 -10 35 -10 56 -2 89 7 23 13 53 15 67 3 21 9 13
36 -43 17 -38 34 -82 38 -98 3 -16 9 -32 13 -34 5 -3 32 4 62 14 29 10 71 23
93 29 22 5 73 20 112 32 l73 21 1 127 c0 70 2 154 5 187 4 63 -9 117 -53 214
-18 41 -21 56 -12 67 10 12 -39 14 -330 14 l-341 0 0 -166z m3734 114 c7 -18
16 -46 20 -63 6 -28 5 -29 -9 -11 -13 17 -14 13 -8 -49 5 -50 3 -66 -5 -61 -7
4 -12 24 -12 44 0 20 -6 63 -14 95 -12 52 -12 56 2 45 13 -11 15 -10 10 10 -9
33 1 27 16 -10z m67 -78 c7 -20 18 -30 31 -30 18 0 19 -5 13 -57 -8 -78 -36
-247 -41 -252 -2 -2 -8 8 -13 23 -6 14 -17 26 -26 26 -10 0 -15 10 -15 30 0
22 4 28 15 24 18 -7 20 17 4 33 -7 7 -9 32 -4 73 6 54 9 59 21 43 17 -23 18
-14 1 26 -12 28 -12 91 0 91 2 0 9 -13 14 -30z m-95 -69 c4 -22 4 -41 1 -41
-7 0 -37 102 -37 122 1 24 29 -39 36 -81z m-93 -38 c-28 -19 -30 -59 -3 -75
11 -7 20 -17 20 -22 0 -15 -42 -56 -56 -56 -32 0 -44 76 -19 120 8 14 17 32
21 40 17 36 27 42 43 25 15 -15 14 -18 -6 -32z m96 -101 c-4 -19 -5 -47 -3
-61 5 -24 -8 -62 -41 -121 l-14 -24 -9 24 c-5 14 -19 34 -31 44 -28 25 -27 34
6 38 35 4 53 55 33 93 -11 21 -11 27 3 43 10 10 17 25 17 32 0 9 8 6 24 -9 20
-19 22 -27 15 -59z m-2822 26 c-3 -8 -6 -5 -6 6 -1 11 2 17 5 13 3 -3 4 -12 1
-19z m50 -10 c-3 -8 -6 -5 -6 6 -1 11 2 17 5 13 3 -3 4 -12 1 -19z m1892 6 c8
-12 39 -31 78 -49 17 -8 37 -20 45 -27 8 -7 22 -18 33 -24 10 -6 23 -19 29
-29 6 -10 21 -30 34 -44 24 -28 29 -51 11 -51 -6 0 -24 -10 -41 -21 -26 -19
-32 -20 -55 -8 -14 8 -45 39 -70 71 -25 31 -51 59 -59 62 -8 3 -14 11 -14 19
0 7 -15 20 -32 28 -32 13 -53 59 -29 59 6 0 11 6 11 14 0 16 47 15 59 0z
m1259 -33 c7 -70 -39 -106 -72 -56 -21 32 -20 45 7 72 33 33 61 26 65 -16z
m-3788 -100 c0 -48 -17 -28 -25 29 -6 42 -5 44 9 26 9 -11 16 -36 16 -55z
m2900 53 c0 -2 -7 -4 -15 -4 -8 0 -15 4 -15 10 0 5 7 7 15 4 8 -4 15 -8 15
-10z m-1210 -12 c0 -7 -7 -48 -16 -90 -18 -90 -49 -148 -101 -192 -35 -29 -43
-31 -88 -26 -74 8 -153 54 -192 110 -54 79 -42 97 32 47 48 -32 55 -31 55 11
0 31 0 31 51 19 33 -8 40 -5 73 25 20 18 36 42 36 54 0 45 18 57 86 56 45 -1
64 -5 64 -14z m1030 3 c0 -8 -4 -15 -8 -15 -5 0 -9 7 -9 15 0 8 4 15 9 15 4 0
8 -7 8 -15z m-357 -23 c26 -23 22 -70 -8 -84 -57 -26 -105 60 -53 96 22 16 30
14 61 -12z m1377 -44 c17 -28 22 -90 8 -103 -12 -13 -37 35 -44 83 -8 61 6 69
36 20z m-1180 -55 c26 -27 62 -61 81 -77 l33 -28 -27 -15 c-33 -17 -67 -9 -67
15 0 9 -12 31 -28 47 -15 17 -34 44 -42 60 -8 17 -16 33 -18 38 -2 4 2 7 8 7
7 0 34 -21 60 -47z m-2592 -6 c3 -27 -4 -32 -32 -21 -19 7 -21 25 -4 42 18 18
33 9 36 -21z m3547 -57 c-4 -20 1 -35 19 -57 27 -32 45 -106 28 -117 -6 -3
-19 9 -31 27 l-21 32 0 -67 c0 -38 -4 -68 -9 -68 -14 0 -32 54 -32 96 0 21 -2
67 -5 102 -5 54 -4 61 10 56 12 -5 16 0 16 21 0 24 2 26 15 15 11 -9 14 -22
10 -40z m302 28 c-3 -8 -6 -5 -6 6 -1 11 2 17 5 13 3 -3 4 -12 1 -19z m-477
-12 c7 -14 10 -33 6 -42 -12 -31 -41 11 -37 54 2 20 17 14 31 -12z m514 -35
c-2 -3 -12 3 -22 13 -16 17 -16 18 5 5 12 -7 20 -15 17 -18z m-11 -53 c22 -16
27 -27 27 -59 0 -21 -3 -39 -6 -39 -14 0 -75 43 -89 63 -8 12 -15 32 -15 44 0
20 4 23 28 17 15 -4 39 -16 55 -26z m84 -50 c-3 -8 -6 -5 -6 6 -1 11 2 17 5
13 3 -3 4 -12 1 -19z m-79 -87 c26 -51 26 -88 0 -83 -16 2 -16 0 -6 -23 6 -14
8 -28 4 -32 -9 -9 -25 14 -31 47 -6 26 -27 92 -40 123 -7 16 -4 18 21 15 22
-2 34 -13 52 -47z m67 -1 c3 -5 17 -10 29 -10 36 0 47 -22 58 -112 5 -46 14
-87 19 -92 5 -6 9 -19 9 -30 0 -18 -2 -18 -26 5 -15 13 -33 38 -40 56 -8 17
-18 34 -24 38 -19 12 -11 26 9 15 26 -13 31 -13 31 4 0 8 -15 27 -32 43 -32
28 -65 93 -48 93 5 0 12 -4 15 -10z m-297 -75 c2 -17 13 -40 25 -53 17 -18 19
-25 8 -31 -36 -22 -71 20 -71 85 0 28 4 35 18 32 11 -2 18 -14 20 -33z m-38
-96 c0 -5 -4 -9 -10 -9 -5 0 -10 7 -10 16 0 8 5 12 10 9 6 -3 10 -10 10 -16z
m370 -83 c0 -16 -7 -12 -35 19 -23 24 -34 44 -30 54 5 13 12 9 35 -19 16 -19
30 -44 30 -54z m-425 64 c3 -5 1 -10 -4 -10 -6 0 -11 5 -11 10 0 6 2 10 4 10
3 0 8 -4 11 -10z m581 -41 c37 -23 43 -36 18 -46 -9 -3 -27 6 -45 23 -48 46
-33 60 27 23z m-146 -94 c17 -24 33 -58 36 -75 6 -27 4 -30 -19 -30 -27 0 -47
24 -47 56 0 9 -12 32 -26 51 -30 39 -27 70 5 53 11 -6 34 -30 51 -55z m165 4
c66 -41 83 -69 44 -69 -12 0 -39 -5 -61 -12 -47 -14 -53 -8 -63 59 -6 39 -2
63 11 63 2 0 34 -18 69 -41z m-375 -88 c5 -11 10 -29 10 -41 0 -17 -4 -20 -22
-15 -34 10 -62 41 -55 59 9 23 54 20 67 -3z m-2795 -7 c20 -20 16 -63 -7 -78
-26 -16 -68 11 -68 44 0 47 42 66 75 34z m3283 -58 c6 -70 -3 -73 -58 -20 -27
26 -47 51 -44 56 3 5 27 8 52 6 47 -3 47 -3 50 -42z m-125 -26 c10 -9 -18 -73
-38 -90 -10 -8 -25 -1 -61 31 -62 53 -69 74 -22 66 19 -3 41 -1 49 3 14 10 58
3 72 -10z m-953 -5 c0 -8 9 -23 20 -32 11 -10 20 -22 20 -28 0 -5 -4 -5 -8 2
-4 6 -16 11 -27 10 -16 -2 -21 5 -23 31 -2 18 1 32 7 32 6 0 11 -7 11 -15z
m578 7 c9 -6 31 -96 32 -131 0 -2 -6 2 -14 8 -13 11 -66 111 -66 124 0 10 32
8 48 -1z m80 -8 c22 -15 52 -63 52 -84 0 -19 -48 20 -69 56 -30 50 -25 58 17
28z m626 -36 c8 -22 6 -32 -9 -48 -10 -11 -23 -19 -28 -17 -11 3 -20 65 -12
85 8 22 39 9 49 -20z m-235 -72 c29 -46 27 -53 -19 -61 -44 -7 -80 1 -80 18 0
12 60 77 71 77 4 0 17 -15 28 -34z m-1009 -16 c5 -8 10 -25 10 -37 0 -18 -6
-23 -25 -23 -14 0 -25 4 -25 9 0 5 -3 22 -6 38 -5 26 -3 30 15 29 12 0 26 -8
31 -16z m-1066 -31 c19 -9 29 -9 40 0 11 9 20 10 36 1 11 -6 46 -11 78 -10 31
0 80 -5 109 -12 41 -9 53 -17 58 -35 3 -15 12 -23 22 -21 23 4 38 -53 18 -65
-8 -4 -15 -19 -15 -32 0 -36 -29 -32 -41 5 -6 17 -16 30 -21 30 -6 0 -25 13
-43 29 -42 36 -125 61 -215 64 -62 2 -71 -1 -97 -24 -33 -31 -63 -42 -82 -30
-11 7 -9 10 7 15 12 4 24 16 27 27 4 11 19 26 33 32 15 6 33 17 40 24 16 16
15 16 46 2z m2196 -9 c0 -5 -2 -10 -4 -10 -3 0 -8 5 -11 10 -3 6 -1 10 4 10 6
0 11 -4 11 -10z m-400 -32 c0 -6 -6 -5 -15 2 -8 7 -15 14 -15 16 0 2 7 1 15
-2 8 -4 15 -11 15 -16z m-190 -18 c0 -5 -2 -10 -4 -10 -3 0 -8 5 -11 10 -3 6
-1 10 4 10 6 0 11 -4 11 -10z m582 -31 c2 -6 21 -14 42 -18 37 -6 68 -33 54
-46 -4 -4 -25 -9 -47 -12 -34 -5 -42 -2 -46 13 -3 11 -12 31 -20 47 -12 23
-12 27 0 27 7 0 15 -5 17 -11z m-2168 -13 c-3 -8 0 -17 5 -21 6 -3 9 -10 6
-15 -2 -4 9 -13 25 -20 30 -12 37 -33 21 -59 -6 -9 -11 -10 -15 -2 -7 10 -46
16 -46 7 0 -2 9 -25 19 -50 15 -34 29 -49 55 -60 20 -8 36 -20 36 -26 0 -6 13
-2 29 9 40 29 51 26 51 -10 0 -27 2 -30 15 -19 17 14 41 87 32 97 -4 3 -15 -1
-24 -9 -46 -39 -54 -30 -39 42 15 69 16 72 32 59 11 -9 14 -8 14 2 0 8 11 2
25 -14 59 -67 -2 -225 -103 -269 -40 -18 -52 -19 -96 -9 -74 17 -112 47 -146
115 -17 33 -30 65 -30 72 0 7 -5 14 -11 16 -6 2 -13 26 -16 53 -3 37 -2 46 6
35 6 -8 11 -31 12 -50 1 -25 3 -28 6 -12 3 13 16 28 31 34 15 7 35 18 44 26
19 15 14 42 -8 42 -21 0 -17 17 8 34 29 20 69 21 62 2z m1646 4 c0 -5 -4 -10
-10 -10 -5 0 -10 5 -10 10 0 6 5 10 10 10 6 0 10 -4 10 -10z m463 -57 c-7 -2
-21 -2 -30 0 -10 3 -4 5 12 5 17 0 24 -2 18 -5z m-1579 -29 c14 -5 14 -9 1
-34 -8 -15 -11 -30 -8 -34 4 -3 -8 1 -25 10 -36 17 -41 38 -14 53 20 12 26 13
46 5z m-759 -50 c11 -8 20 -22 20 -32 0 -9 11 -19 24 -22 17 -4 29 -18 40 -49
47 -131 192 -202 303 -150 27 13 87 87 117 147 12 23 24 42 28 42 12 0 53 -55
53 -72 0 -9 6 -21 13 -25 23 -15 64 -78 69 -107 5 -26 0 -35 -39 -70 -25 -23
-55 -45 -67 -49 -17 -7 -18 -10 -6 -17 8 -5 29 -10 46 -10 31 0 53 -23 34 -35
-15 -9 -12 -41 5 -55 8 -7 15 -16 15 -20 0 -13 -51 -24 -110 -25 -41 -1 -73
-10 -119 -32 -67 -33 -85 -33 -113 1 -17 21 -18 21 -18 -11 0 -36 23 -56 78
-68 21 -4 36 -15 41 -29 25 -64 130 -152 171 -142 8 3 35 7 60 10 43 6 46 5
68 -28 21 -30 22 -39 12 -73 -6 -21 -21 -51 -34 -67 -23 -27 -25 -28 -41 -13
-19 19 -18 19 -39 11 -9 -3 -16 -12 -16 -20 0 -8 -5 -14 -11 -14 -5 0 -8 4 -5
9 3 5 -5 16 -19 25 -28 18 -65 8 -65 -18 0 -27 -155 -3 -237 36 -12 6 -41 8
-64 5 -41 -5 -89 8 -89 25 0 4 -8 8 -17 8 -22 1 -73 44 -73 63 0 7 -13 23 -30
35 -16 13 -30 27 -30 33 0 6 -9 18 -20 27 -17 15 -23 39 -32 127 0 6 4 57 9
115 9 90 10 139 4 197 0 6 -7 18 -15 26 -8 8 -17 39 -20 68 -6 61 -17 100 -40
144 -10 18 -12 33 -6 39 6 6 3 14 -8 22 -16 12 -15 13 4 14 11 0 24 4 30 9 11
11 71 29 99 30 11 0 29 -6 40 -15z m290 -14 c3 -5 1 -10 -4 -10 -6 0 -11 5
-11 10 0 6 2 10 4 10 3 0 8 -4 11 -10z m255 -5 c0 -8 -4 -15 -10 -15 -5 0 -10
7 -10 15 0 8 5 15 10 15 6 0 10 -7 10 -15z m486 -58 c12 -89 -62 -197 -137
-197 -14 0 -31 6 -38 13 -11 10 -14 10 -18 0 -6 -15 -59 -17 -68 -3 -4 6 1 7
12 3 16 -6 16 -5 4 10 -12 15 -11 17 5 17 14 0 15 3 6 12 -7 7 -12 26 -12 44
0 18 -6 35 -12 37 -7 3 -8 6 -2 6 5 1 23 -12 39 -29 19 -19 39 -30 57 -30 15
0 28 -4 28 -10 0 -17 36 -11 53 8 24 26 44 80 52 141 8 62 21 53 31 -22z m574
58 c7 -9 8 -15 2 -15 -5 0 -12 7 -16 15 -3 8 -4 15 -2 15 2 0 9 -7 16 -15z
m-904 -9 c14 -11 16 -18 8 -26 -15 -15 -44 -2 -44 21 0 23 9 24 36 5z m959
-23 l18 -28 -21 19 c-12 11 -22 23 -22 28 0 14 7 9 25 -19z m-2043 -25 c52
-22 68 -45 68 -98 0 -16 -5 -32 -10 -35 -6 -4 -8 -11 -5 -16 3 -5 0 -6 -8 -3
-8 3 -18 0 -22 -6 -4 -7 2 -14 14 -17 25 -6 43 -63 40 -126 -1 -23 7 -72 17
-109 21 -79 15 -93 -43 -90 -77 6 -122 68 -187 256 -28 80 -32 135 -15 185 9
26 18 32 50 37 29 5 39 11 39 25 0 24 1 24 62 -3z m1096 -250 c13 -13 17 -48
5 -48 -12 0 -43 33 -43 47 0 16 22 17 38 1z m160 -9 l52 2 0 -35 c0 -27 -9
-43 -40 -75 -23 -23 -45 -41 -50 -41 -4 0 -22 12 -39 26 -17 14 -31 21 -31 15
0 -6 -5 -11 -11 -11 -8 0 -8 4 1 15 8 10 10 31 5 66 l-7 51 33 -8 c19 -4 58
-7 87 -5z m-304 -319 c48 -5 91 -11 94 -14 2 -3 -3 -17 -13 -32 -13 -20 -23
-25 -46 -22 -16 3 -29 1 -29 -4 0 -19 -42 -6 -71 23 -18 17 -37 28 -46 25 -18
-7 -56 12 -48 25 8 11 45 11 159 -1z m216 -25 c0 -8 -4 -15 -9 -15 -13 0 -22
16 -14 24 11 11 23 6 23 -9z m-803 -391 c59 -30 113 -60 119 -65 7 -6 49 -14
93 -18 45 -5 87 -13 94 -19 7 -6 46 -20 87 -31 102 -28 125 -62 75 -110 -29
-27 -30 -39 -10 -87 12 -29 12 -43 2 -82 -6 -26 -17 -53 -24 -59 -13 -15 -7
-47 13 -64 8 -6 17 -29 20 -50 4 -26 13 -40 26 -45 14 -4 17 -11 12 -22 -4
-10 -8 -28 -10 -42 -1 -14 -3 -27 -3 -29 -1 -2 -8 2 -16 9 -13 10 -15 9 -15
-9 0 -24 -4 -25 -31 -11 -20 11 -24 4 -10 -19 5 -7 13 -11 19 -7 6 3 13 2 16
-2 7 -12 -43 -112 -56 -112 -12 0 -65 37 -98 69 -18 16 -20 22 -7 18 23 -9 21
2 -8 38 -22 28 -23 28 -18 6 4 -17 2 -22 -8 -19 -7 2 -17 19 -21 36 -5 18 -13
32 -18 32 -6 0 -8 -11 -4 -25 8 -32 -13 -34 -26 -2 -5 12 -9 16 -9 10 -1 -18
-30 -16 -37 2 -4 8 -11 12 -16 9 -5 -4 -20 -2 -31 4 -12 6 -44 18 -72 28 -69
24 -73 29 -116 120 -37 81 -59 110 -59 79 0 -10 7 -32 16 -51 9 -18 14 -39 11
-46 -4 -8 -8 -5 -12 9 -4 13 -12 20 -17 17 -5 -3 -7 -12 -4 -20 5 -12 0 -12
-24 1 -22 11 -29 22 -28 40 2 20 6 23 25 19 20 -6 22 -3 16 30 -5 32 -4 36 12
30 10 -4 16 -3 14 2 -3 5 -11 21 -19 37 -8 17 -16 23 -21 16 -4 -8 -13 -5 -28
10 -34 34 -24 76 11 44 18 -16 18 -15 3 20 -21 50 -19 71 10 123 14 24 25 54
25 67 0 12 0 40 0 62 -1 29 5 43 20 55 12 9 22 26 23 38 1 12 3 22 4 22 2 0
52 -25 110 -56z m-371 -205 c-3 -17 -6 -39 -6 -47 0 -12 -3 -13 -11 -5 -14 14
-3 83 13 83 6 0 8 -12 4 -31z m126 -109 c1 -9 -1 -17 -7 -18 -5 -1 -11 10 -13
25 -4 29 13 23 20 -7z m-32 -42 c0 -5 -4 -8 -10 -8 -5 0 -10 10 -10 23 0 18 2
19 10 7 5 -8 10 -18 10 -22z m60 -37 c15 -28 12 -39 -5 -17 -15 20 -35 14 -35
-12 0 -10 -3 -13 -10 -6 -5 5 -7 19 -4 32 8 27 39 29 54 3z m-14 -137 c-4 -9
3 -18 18 -24 26 -9 73 -77 61 -88 -4 -4 -16 5 -27 21 -12 17 -29 27 -44 27
-19 0 -29 8 -40 36 -20 47 -13 69 17 54 12 -7 18 -18 15 -26z m874 -15 c0 -6
-4 -7 -10 -4 -5 3 -10 11 -10 16 0 6 5 7 10 4 6 -3 10 -11 10 -16z m140 6 c16
-19 0 -19 -26 0 -16 12 -16 14 -3 15 9 0 22 -7 29 -15z m-152 -34 c3 -8 -1
-12 -9 -9 -7 2 -15 10 -17 17 -3 8 1 12 9 9 7 -2 15 -10 17 -17z m172 -117 c0
-8 7 -14 15 -14 31 0 38 -43 51 -300 6 -131 8 -143 16 -155 9 -14 13 -103 5
-111 -3 -4 -11 5 -16 20 -15 38 -21 32 -21 -19 0 -25 5 -45 11 -45 5 0 7 5 4
10 -3 6 0 10 8 10 19 0 27 -31 27 -107 0 -61 -12 -84 -23 -43 -3 13 -13 20
-29 20 -12 0 -43 3 -68 7 -40 7 -45 11 -51 42 -12 58 8 132 24 89 2 -7 7 -10
11 -7 4 4 -1 15 -12 25 -27 26 -39 82 -19 90 14 5 56 -4 102 -22 20 -7 20 -7
1 15 -11 12 -26 19 -33 17 -7 -3 -26 2 -42 12 -24 14 -30 24 -33 62 -3 25 -1
50 3 55 4 6 3 33 -1 60 -5 28 -9 121 -9 208 l-1 159 40 -32 c22 -17 40 -38 40
-46z m-994 20 c-8 -22 -26 -7 -26 22 0 23 1 24 16 9 9 -8 13 -22 10 -31z
m1052 -901 c2 -8 -5 -13 -17 -13 -12 0 -21 6 -21 16 0 18 31 15 38 -3z m-18
-74 c0 -5 -9 -9 -20 -9 -19 0 -27 20 -13 33 7 8 33 -11 33 -24z m-76 -35 c17
-16 23 -99 7 -89 -5 3 -11 -9 -13 -27 -2 -18 -7 -33 -13 -33 -14 0 -18 74 -5
90 8 10 8 19 0 35 -6 11 -8 25 -5 30 8 13 11 13 29 -6z m66 -34 c0 -5 -2 -10
-4 -10 -3 0 -8 5 -11 10 -3 6 -1 10 4 10 6 0 11 -4 11 -10z m-610 -128 c0 -15
-2 -15 -10 -2 -13 20 -13 33 0 25 6 -3 10 -14 10 -23z m640 -268 c0 -225 -3
-281 -15 -312 -9 -20 -13 -47 -10 -59 5 -20 1 -23 -22 -23 -16 0 -45 11 -65
25 -40 27 -83 89 -73 105 12 19 31 10 48 -23 17 -31 17 -20 13 251 -3 170 -1
282 5 282 5 0 9 -4 9 -9 0 -5 12 -8 28 -6 15 2 30 4 35 4 4 1 12 13 17 27 24
61 30 5 30 -262z m-311 54 c6 -17 9 -34 6 -36 -3 -3 2 -14 12 -24 13 -14 13
-18 2 -18 -24 0 -36 14 -44 50 -4 19 -12 41 -17 48 -8 9 -5 12 10 12 14 0 24
-10 31 -32z m106 -200 c14 -36 12 -48 -10 -48 -19 0 -49 46 -41 65 9 26 36 17
51 -17z"/>
<path d="M3781 4994 c0 -11 3 -14 6 -6 3 7 2 16 -1 19 -3 4 -6 -2 -5 -13z"/>
<path d="M2682 3240 c-18 -11 -41 -20 -52 -20 -11 0 -20 -4 -20 -10 0 -17 52
-11 65 7 8 11 27 16 59 16 29 0 45 4 43 11 -6 19 -61 17 -95 -4z"/>
<path d="M2675 3120 c-10 -11 -15 -23 -12 -27 11 -11 72 12 72 27 0 23 -39 23
-60 0z"/>
<path d="M2790 3127 c0 -14 19 -37 32 -37 16 0 7 30 -12 40 -15 8 -20 8 -20
-3z"/>
<path d="M2890 2685 c0 -8 5 -15 10 -15 6 0 10 7 10 15 0 8 -4 15 -10 15 -5 0
-10 -7 -10 -15z"/>
<path d="M1737 3226 c3 -15 10 -29 15 -32 6 -4 7 2 3 17 -10 35 -23 45 -18 15z"/>
<path d="M2530 1777 c0 -15 4 -27 9 -27 17 0 19 15 5 35 -13 18 -14 18 -14 -8z"/>
<path d="M2580 1774 c0 -8 5 -12 10 -9 6 4 8 11 5 16 -9 14 -15 11 -15 -7z"/>
<path d="M2968 1808 c17 -31 19 -38 6 -38 -11 0 -12 -5 -6 -17 5 -10 7 -24 5
-30 -3 -8 4 -13 15 -13 11 0 26 -9 33 -21 12 -18 14 -13 11 46 -3 45 -7 65
-15 62 -7 -3 -25 7 -41 22 l-30 26 22 -37z"/>
<path d="M2965 1648 c3 -36 49 -78 67 -60 6 6 3 15 -12 25 -15 11 -18 16 -8
20 9 4 6 11 -12 26 -34 28 -38 26 -35 -11z"/>
<path d="M2970 1573 c1 -20 49 -65 66 -61 18 3 17 5 -4 26 -12 12 -22 27 -22
32 0 6 -9 10 -20 10 -11 0 -20 -3 -20 -7z"/>
<path d="M2974 1515 c3 -8 1 -15 -4 -15 -6 0 -10 -5 -10 -11 0 -6 7 -9 15 -6
8 4 17 2 20 -3 15 -25 24 -7 10 20 -16 30 -42 43 -31 15z"/>
<path d="M3060 1370 c0 -5 5 -10 11 -10 5 0 7 5 4 10 -3 6 -8 10 -11 10 -2 0
-4 -4 -4 -10z"/>
<path d="M2990 1270 c0 -8 24 -20 41 -20 6 0 8 4 5 9 -8 12 -46 21 -46 11z"/>
<path d="M3060 1204 c0 -7 7 -25 15 -40 12 -24 15 -26 15 -8 0 21 -29 68 -30
48z"/>
<path d="M2970 553 c0 -5 8 -19 17 -33 12 -17 13 -25 5 -28 -14 -4 -16 -32 -3
-32 5 0 7 -10 3 -22 -3 -14 -1 -19 6 -14 6 3 13 2 17 -4 3 -5 10 -10 14 -10
10 0 8 51 -2 67 -4 6 -5 17 -3 25 3 7 -8 23 -25 36 -16 13 -29 20 -29 15z"/>
<path d="M2987 370 c3 -12 12 -24 20 -27 24 -9 24 3 -1 26 l-25 23 6 -22z"/>
<path d="M3000 305 c12 -13 27 -22 33 -18 5 3 -1 14 -14 24 -35 27 -46 23 -19
-6z"/>
<path d="M2990 257 c0 -9 5 -19 11 -22 6 -4 14 -17 19 -29 8 -18 9 -18 9 -3 1
11 -8 30 -19 44 -14 18 -20 21 -20 10z"/>
<path d="M2995 160 c3 -5 8 -10 11 -10 2 0 4 5 4 10 0 6 -5 10 -11 10 -5 0 -7
-4 -4 -10z"/>
<path d="M2832 273 c2 -9 8 -18 15 -20 7 -3 9 3 6 16 -6 25 -26 28 -21 4z"/>
<path d="M780 5286 c0 -8 5 -18 10 -21 6 -3 10 3 10 14 0 12 -4 21 -10 21 -5
0 -10 -6 -10 -14z"/>
<path d="M2830 5267 c19 -19 64 -69 100 -113 76 -93 76 -93 102 -86 11 2 29 0
41 -7 13 -6 33 -8 47 -4 24 8 25 10 17 51 -4 23 -14 42 -20 42 -16 1 -57 35
-57 48 0 6 -16 16 -35 22 -20 7 -56 27 -81 46 -37 29 -52 34 -97 34 l-52 0 35
-33z"/>
<path d="M4373 5285 c23 -22 111 -170 143 -240 28 -59 36 -66 55 -49 25 22 62
8 98 -36 25 -31 30 -45 25 -69 -4 -20 -2 -31 5 -31 6 0 11 11 11 24 0 43 19
39 75 -15 54 -53 65 -75 45 -95 -13 -13 -5 -36 18 -51 16 -10 18 -8 14 18 -6
42 12 36 49 -16 33 -46 44 -54 51 -33 2 6 10 8 17 4 7 -5 10 -14 7 -22 -3 -8
1 -14 10 -14 11 0 14 -5 10 -17 -7 -16 8 -33 30 -33 6 0 16 11 22 25 9 19 19
25 45 25 18 0 38 -5 45 -12 9 -9 15 -9 24 0 18 18 55 -19 94 -95 l34 -68 0
183 c0 128 -4 189 -12 203 -10 17 -10 23 0 26 6 3 12 17 12 33 0 22 -5 29 -22
32 -13 2 -22 9 -21 16 2 6 -4 12 -12 12 -18 0 -20 20 -2 21 6 0 -1 5 -16 9
-16 5 -35 6 -42 4 -7 -3 -16 -1 -19 5 -6 9 35 42 102 82 27 16 32 25 32 55 0
31 -2 35 -15 24 -12 -10 -20 -7 -45 14 -23 19 -38 24 -59 20 -36 -8 -65 19
-57 52 6 23 5 24 -57 24 -58 0 -63 -2 -64 -22 -1 -12 3 -28 9 -35 8 -11 7 -12
-8 -6 -27 10 -54 35 -54 50 0 8 -14 13 -40 13 -31 0 -46 -7 -67 -28 -46 -48
-105 -82 -140 -82 -18 0 -33 4 -33 8 0 5 -11 22 -25 38 -15 17 -23 36 -19 46
5 17 -5 18 -131 18 -120 0 -135 -2 -122 -15z m555 -80 c15 -14 39 -31 55 -38
18 -8 25 -17 21 -27 -12 -27 -23 -100 -18 -113 5 -14 -30 -57 -47 -57 -6 0 -8
7 -5 16 9 24 -3 35 -23 22 -14 -9 -28 -6 -67 16 -41 22 -52 34 -62 68 -12 37
-11 44 3 54 9 7 14 17 10 23 -3 6 -2 11 4 11 6 0 18 9 28 19 16 16 36 25 66
30 4 0 20 -10 35 -24z m176 -16 c-6 -10 -48 -12 -57 -3 -3 4 4 15 16 25 20 16
23 17 34 2 7 -9 10 -20 7 -24z m118 -6 c22 -20 23 -29 2 -37 -21 -8 -44 11
-44 35 0 23 18 24 42 2z m-442 -23 c0 -5 -4 -10 -10 -10 -5 0 -10 5 -10 10 0
6 5 10 10 10 6 0 10 -4 10 -10z m308 -185 c10 -21 9 -27 -4 -32 -21 -8 -34 8
-28 35 8 29 18 28 32 -3z"/>
<path d="M840 5259 c0 -5 5 -7 10 -4 6 3 10 8 10 11 0 2 -4 4 -10 4 -5 0 -10
-5 -10 -11z"/>
<path d="M5265 5220 c3 -5 8 -10 11 -10 2 0 4 5 4 10 0 6 -5 10 -11 10 -5 0
-7 -4 -4 -10z"/>
<path d="M4801 4733 c-1 -6 -4 -20 -7 -30 -5 -17 -5 -17 6 0 6 10 9 23 6 30
-3 9 -5 9 -5 0z"/>
<path d="M5210 4291 c0 -26 29 -49 39 -32 7 10 13 10 30 2 17 -9 21 -9 21 2 0
7 -17 21 -38 30 -49 21 -52 21 -52 -2z"/>
<path d="M5136 4275 c-9 -14 -21 -23 -26 -20 -6 4 -10 1 -10 -4 0 -6 6 -11 13
-11 16 0 57 37 57 50 0 18 -18 10 -34 -15z"/>
<path d="M5042 4243 c-16 -3 -22 -9 -18 -20 3 -8 6 -17 6 -19 0 -3 6 0 13 6 6
6 21 17 32 25 21 15 14 17 -33 8z"/>
<path d="M5000 4200 c-6 -12 -21 -20 -35 -20 -14 0 -25 -5 -25 -11 0 -6 7 -9
15 -5 8 3 15 1 15 -4 0 -6 -7 -10 -15 -10 -12 0 -11 -4 5 -20 28 -28 25 -46
-10 -82 -24 -23 -32 -43 -39 -89 -8 -62 2 -82 15 -27 3 18 13 38 22 44 19 14
54 154 42 169 -6 7 -2 17 10 28 11 9 20 24 20 32 0 21 -7 19 -20 -5z"/>
<path d="M5208 4190 c-7 -11 -18 -20 -24 -20 -15 0 -27 -61 -14 -74 7 -7 10 2
10 27 0 20 5 37 10 37 6 0 10 -7 10 -16 0 -28 27 3 32 36 5 35 -6 39 -24 10z"/>
<path d="M5120 4170 c0 -5 5 -10 11 -10 5 0 7 5 4 10 -3 6 -8 10 -11 10 -2 0
-4 -4 -4 -10z"/>
<path d="M5035 4089 c-4 -6 -5 -12 -2 -15 2 -3 7 2 10 11 7 17 1 20 -8 4z"/>
<path d="M5272 4068 c-6 -7 -14 -27 -17 -43 -6 -24 -5 -28 5 -18 7 6 19 9 26
6 11 -4 12 2 8 28 -8 42 -9 42 -22 27z"/>
<path d="M5106 4035 c-23 -54 -18 -68 5 -16 11 24 17 46 15 49 -3 2 -12 -13
-20 -33z"/>
<path d="M4871 4014 c0 -11 3 -14 6 -6 3 7 2 16 -1 19 -3 4 -6 -2 -5 -13z"/>
<path d="M4840 4001 c0 -6 4 -13 10 -16 6 -3 7 1 4 9 -7 18 -14 21 -14 7z"/>
<path d="M5161 3955 c-11 -20 -16 -37 -10 -40 8 -5 14 6 34 63 8 23 -3 12 -24
-23z"/>
<path d="M5002 3903 c-5 -10 -17 -41 -26 -70 -21 -64 -10 -89 46 -98 44 -8 58
-1 58 26 0 15 7 19 37 19 29 0 43 8 75 41 28 30 43 39 58 34 12 -4 20 -2 20 5
0 15 -83 10 -98 -7 -7 -7 -9 -13 -5 -14 20 -2 -36 -18 -64 -18 -27 -1 -34 -6
-39 -28 -10 -38 -33 -54 -56 -39 -19 12 -25 65 -9 82 11 11 26 84 17 84 -3 0
-9 -8 -14 -17z"/>
<path d="M5230 3912 c0 -12 19 -26 26 -19 2 2 -2 10 -11 17 -9 8 -15 8 -15 2z"/>
<path d="M5110 3890 c0 -5 5 -10 11 -10 5 0 7 5 4 10 -3 6 -8 10 -11 10 -2 0
-4 -4 -4 -10z"/>
<path d="M5286 3875 c-3 -8 -1 -15 4 -15 6 0 10 7 10 15 0 8 -2 15 -4 15 -2 0
-6 -7 -10 -15z"/>
<path d="M5070 3870 c0 -5 5 -10 11 -10 5 0 7 5 4 10 -3 6 -8 10 -11 10 -2 0
-4 -4 -4 -10z"/>
<path d="M4917 3816 c-11 -25 -14 -43 -8 -53 7 -13 11 -9 20 20 18 55 10 78
-12 33z"/>
<path d="M4880 3740 c0 -5 5 -10 11 -10 5 0 7 5 4 10 -3 6 -8 10 -11 10 -2 0
-4 -4 -4 -10z"/>
<path d="M5250 3500 c0 -9 31 -30 44 -30 13 0 5 28 -10 34 -23 9 -34 7 -34 -4z"/>
<path d="M5114 3458 c-58 -39 -322 -300 -359 -356 -25 -38 -28 -75 -11 -122
14 -40 15 -88 1 -106 -20 -26 -19 -29 10 -42 31 -14 33 -32 3 -32 -30 0 -45
11 -49 33 -2 10 -16 26 -31 35 -27 16 -29 16 -44 -6 -24 -35 -60 -69 -95 -89
-17 -10 -37 -33 -45 -52 -16 -39 -19 -101 -4 -101 6 0 10 9 10 20 0 24 8 25
32 3 17 -15 18 -14 18 15 0 17 6 35 14 39 8 4 24 28 36 52 l23 43 73 -4 c48
-2 79 -9 88 -18 9 -9 22 -63 32 -135 28 -206 5 -358 -62 -402 -30 -19 -30 -29
0 -37 22 -5 24 -10 19 -47 -5 -35 -3 -41 16 -46 23 -6 28 -40 11 -73 -12 -23
-75 -60 -102 -60 -12 0 -29 -6 -37 -13 -48 -40 -165 -46 -178 -9 -4 9 -17 30
-30 45 -13 16 -23 39 -23 51 0 12 -5 27 -11 33 -5 5 -9 34 -7 64 3 51 5 54 31
57 15 2 27 8 27 15 0 8 3 8 12 -1 16 -16 33 -15 52 4 22 21 20 33 -4 27 -16
-4 -20 0 -20 19 0 26 -33 48 -71 48 -28 0 -61 19 -54 31 4 5 1 9 -4 9 -6 0
-11 7 -11 16 0 11 -5 14 -16 10 -12 -5 -15 -2 -10 10 13 34 -23 -7 -43 -50
-25 -50 -26 -79 -6 -109 18 -28 46 -118 39 -128 -2 -4 0 -10 6 -14 13 -8 13
-105 -1 -105 -6 0 -8 -8 -5 -17 5 -16 0 -18 -44 -15 -48 4 -50 5 -50 33 0 16
3 28 8 27 4 -2 8 0 9 4 5 13 -21 98 -28 98 -4 0 -11 -21 -15 -47 -3 -27 -11
-56 -16 -67 -6 -10 -18 -102 -29 -205 -15 -148 -16 -205 -8 -281 31 -301 108
-493 242 -603 77 -63 173 -122 262 -162 l87 -39 27 32 c14 18 29 32 33 32 4 0
16 -17 27 -39 25 -48 51 -61 51 -26 0 14 -5 25 -11 25 -5 0 -7 4 -4 10 3 5 -2
21 -11 34 -9 14 -18 45 -20 68 -2 24 -8 57 -13 73 -5 20 -3 43 6 69 16 47 17
99 2 146 -6 19 -12 46 -14 59 -2 14 -8 34 -13 45 -6 12 -29 66 -53 121 -24 55
-51 111 -60 125 -9 14 -19 43 -23 65 -4 22 -14 47 -22 56 -7 8 -15 26 -16 40
-2 13 -9 29 -17 35 -7 6 -14 25 -15 44 -1 18 -7 35 -14 38 -32 10 -4 36 91 81
56 27 119 54 140 59 35 10 39 9 55 -16 9 -15 20 -29 24 -32 4 -3 14 -21 23
-40 29 -63 112 -191 132 -203 7 -4 13 -13 13 -18 0 -6 11 -25 24 -42 39 -52
156 -248 156 -261 0 -7 11 -35 25 -62 l25 -49 0 445 c0 426 -1 446 -20 478
-24 39 -38 112 -21 112 6 0 11 8 11 17 0 9 7 24 15 33 13 15 15 73 13 434 l-3
417 -42 -30 c-31 -23 -43 -27 -43 -16 0 8 6 15 13 15 9 0 8 3 -2 9 -10 6 -6
11 15 19 19 7 23 11 11 11 -24 1 -11 21 14 21 16 0 19 7 19 45 0 25 5 45 10
45 6 0 10 17 10 39 0 35 -3 39 -30 45 -42 8 -60 48 -35 77 13 14 26 18 42 14
13 -3 23 -1 23 5 0 5 -5 10 -12 10 -25 0 -88 35 -94 52 -8 25 -24 23 -80 -14z
m-160 -377 c24 -26 17 -53 -16 -65 -50 -17 -100 38 -66 72 18 18 63 14 82 -7z
m227 -54 c-6 -6 -14 -7 -18 -2 -5 4 -2 10 5 12 6 3 13 12 13 21 1 14 2 14 6
-2 3 -10 0 -23 -6 -29z m-31 -18 c0 -5 -4 -7 -10 -4 -5 3 -10 -1 -10 -9 0 -8
-5 -18 -12 -22 -6 -4 -9 -3 -6 2 3 5 8 17 11 27 7 18 27 24 27 6z m-50 -49 c0
-5 -4 -10 -10 -10 -5 0 -10 5 -10 10 0 6 5 10 10 10 6 0 10 -4 10 -10z"/>
<path d="M4580 2468 c0 -60 10 -108 23 -108 13 0 3 128 -12 143 -8 8 -11 -1
-11 -35z"/>
<path d="M4360 2461 c-13 -25 -13 -34 0 -26 16 10 32 45 21 45 -6 0 -15 -9
-21 -19z"/>
<path d="M30 2241 c0 -13 29 -35 37 -28 7 8 -15 37 -28 37 -5 0 -9 -4 -9 -9z"/>
<path d="M100 2154 c0 -14 44 -94 52 -94 19 0 0 48 -33 84 -11 11 -19 16 -19
10z"/>
<path d="M4260 1980 c0 -5 5 -10 10 -10 6 0 10 5 10 10 0 6 -4 10 -10 10 -5 0
-10 -4 -10 -10z"/>
<path d="M230 1835 c0 -8 7 -15 16 -15 14 0 14 3 4 15 -7 8 -14 15 -16 15 -2
0 -4 -7 -4 -15z"/>
<path d="M2190 1532 c6 -13 14 -21 18 -18 3 4 -2 14 -12 24 -18 16 -18 16 -6
-6z"/>
<path d="M2195 1450 c3 -5 10 -10 16 -10 5 0 9 5 9 10 0 6 -7 10 -16 10 -8 0
-12 -4 -9 -10z"/>
<path d="M2237 1439 c7 -7 15 -10 18 -7 3 3 -2 9 -12 12 -14 6 -15 5 -6 -5z"/>
<path d="M2395 1090 c3 -5 8 -10 11 -10 2 0 4 5 4 10 0 6 -5 10 -11 10 -5 0
-7 -4 -4 -10z"/>
<path d="M2340 1016 c0 -8 5 -18 10 -21 6 -3 10 3 10 14 0 12 -4 21 -10 21 -5
0 -10 -6 -10 -14z"/>
<path d="M2390 929 c0 -5 5 -7 10 -4 6 3 10 8 10 11 0 2 -4 4 -10 4 -5 0 -10
-5 -10 -11z"/>
<path d="M2500 651 c0 -5 7 -15 17 -22 15 -13 15 -12 4 9 -12 23 -21 28 -21
13z"/>
<path d="M4950 475 c0 -19 35 -84 57 -107 37 -38 55 -37 42 2 -6 17 -14 30
-19 30 -4 0 -13 15 -21 33 -7 17 -18 35 -23 39 -13 9 -36 10 -36 3z"/>
<path d="M2570 311 c0 -6 4 -13 10 -16 6 -3 7 1 4 9 -7 18 -14 21 -14 7z"/>
<path d="M2620 282 c0 -12 19 -26 26 -19 2 2 -2 10 -11 17 -9 8 -15 8 -15 2z"/>
<path d="M2650 167 c0 -7 14 -18 30 -24 39 -15 39 -3 0 19 -21 12 -30 13 -30
5z"/>
<path d="M2680 91 c0 -10 50 -25 58 -17 2 3 -7 10 -22 16 -33 12 -36 12 -36 1z"/>
<path d="M2715 50 c-3 -5 1 -10 10 -10 9 0 13 5 10 10 -3 6 -8 10 -10 10 -2 0
-7 -4 -10 -10z"/>
</g>
</svg>
