<svg xmlns="http://www.w3.org/2000/svg" xmlns:xlink="http://www.w3.org/1999/xlink" width="500" zoomAndPan="magnify" viewBox="0 0 375 374.999991" height="500" preserveAspectRatio="xMidYMid meet" version="1.0"><defs><clipPath id="8f4095bca1"><path d="M 37.5 37.5 L 337.5 37.5 L 337.5 337.5 L 37.5 337.5 Z M 37.5 37.5 " clip-rule="nonzero"/></clipPath></defs><g clip-path="url(#8f4095bca1)"><path fill="#e8e8e8" d="M 276.082031 37.5 L 98.917969 37.5 C 65.050781 37.5 37.5 65.050781 37.5 98.917969 L 37.5 276.082031 C 37.5 309.949219 65.050781 337.5 98.917969 337.5 L 276.082031 337.5 C 309.949219 337.5 337.5 309.949219 337.5 276.082031 L 337.5 98.917969 C 337.5 65.050781 309.949219 37.5 276.082031 37.5 Z M 319.851562 276.082031 C 319.851562 300.21875 300.21875 319.851562 276.082031 319.851562 L 98.917969 319.851562 C 74.78125 319.851562 55.148438 300.21875 55.148438 276.082031 L 55.148438 98.917969 C 55.148438 74.78125 74.78125 55.148438 98.917969 55.148438 L 276.082031 55.148438 C 300.21875 55.148438 319.851562 74.78125 319.851562 98.917969 Z M 319.851562 276.082031 " fill-opacity="1" fill-rule="nonzero"/></g><path fill="#e8e8e8" d="M 128.675781 156.691406 L 93.382812 156.691406 C 88.507812 156.691406 84.558594 160.640625 84.558594 165.515625 L 84.558594 280.515625 C 84.558594 285.386719 88.507812 289.339844 93.382812 289.339844 L 128.675781 289.339844 C 133.550781 289.339844 137.5 285.386719 137.5 280.515625 L 137.5 165.515625 C 137.5 160.640625 133.550781 156.691406 128.675781 156.691406 Z M 119.851562 271.691406 L 102.207031 271.691406 L 102.207031 174.339844 L 119.851562 174.339844 Z M 119.851562 271.691406 " fill-opacity="1" fill-rule="nonzero"/><path fill="#e8e8e8" d="M 208.089844 172.414062 L 208.089844 165.515625 C 208.089844 160.640625 204.136719 156.691406 199.265625 156.691406 L 163.96875 156.691406 C 159.097656 156.691406 155.148438 160.640625 155.148438 165.515625 L 155.148438 280.515625 C 155.148438 285.386719 159.097656 289.339844 163.96875 289.339844 L 199.265625 289.339844 C 204.136719 289.339844 208.089844 285.386719 208.089844 280.515625 L 208.089844 238.457031 C 208.089844 230.347656 214.683594 223.75 222.792969 223.75 C 230.902344 223.75 237.5 230.347656 237.5 238.457031 L 237.5 280.515625 C 237.5 285.386719 241.449219 289.339844 246.324219 289.339844 L 281.617188 289.339844 C 286.492188 289.339844 290.441406 285.386719 290.441406 280.515625 L 290.441406 238.457031 C 290.441406 195.359375 250.375 162.992188 208.089844 172.414062 Z M 272.792969 271.691406 L 255.148438 271.691406 L 255.148438 238.457031 C 255.148438 220.617188 240.632812 206.101562 222.792969 206.101562 C 204.953125 206.101562 190.441406 220.617188 190.441406 238.457031 L 190.441406 271.691406 L 172.792969 271.691406 L 172.792969 174.339844 L 190.441406 174.339844 L 190.441406 184.546875 C 190.441406 190.910156 196.980469 195.179688 202.804688 192.628906 C 235.519531 178.296875 272.792969 202.285156 272.792969 238.457031 Z M 272.792969 271.691406 " fill-opacity="1" fill-rule="nonzero"/><path fill="#e8e8e8" d="M 111.03125 85.660156 C 96.433594 85.660156 84.558594 97.535156 84.558594 112.132812 C 84.558594 126.726562 96.433594 138.601562 111.03125 138.601562 C 125.625 138.601562 137.5 126.726562 137.5 112.132812 C 137.5 97.535156 125.625 85.660156 111.03125 85.660156 Z M 111.03125 120.957031 C 106.164062 120.957031 102.207031 116.996094 102.207031 112.132812 C 102.207031 107.265625 106.164062 103.308594 111.03125 103.308594 C 115.894531 103.308594 119.851562 107.265625 119.851562 112.132812 C 119.851562 116.996094 115.894531 120.957031 111.03125 120.957031 Z M 111.03125 120.957031 " fill-opacity="1" fill-rule="nonzero"/></svg>