<svg xmlns="http://www.w3.org/2000/svg" xmlns:xlink="http://www.w3.org/1999/xlink" width="500" zoomAndPan="magnify" viewBox="0 0 375 374.999991" height="500" preserveAspectRatio="xMidYMid meet" version="1.0"><defs><clipPath id="606b3a576a"><path d="M 37.5 37.5 L 337.5 37.5 L 337.5 337.5 L 37.5 337.5 Z M 37.5 37.5 " clip-rule="nonzero"/></clipPath></defs><g clip-path="url(#606b3a576a)"><path fill="#ffffff" d="M 337.5 112.5 C 337.5 71.105469 303.890625 37.5 262.5 37.5 L 112.5 37.5 C 71.105469 37.5 37.5 71.105469 37.5 112.5 L 37.5 262.5 C 37.5 303.894531 71.105469 337.5 112.5 337.5 L 262.5 337.5 C 303.890625 337.5 337.5 303.894531 337.5 262.5 Z M 337.5 112.5 " fill-opacity="1" fill-rule="evenodd"/></g><path fill="#030712" d="M 315.417969 123.539062 C 315.417969 88.238281 286.757812 59.578125 251.460938 59.578125 L 123.539062 59.578125 C 88.238281 59.578125 59.578125 88.238281 59.578125 123.539062 L 59.578125 251.460938 C 59.578125 286.761719 88.238281 315.421875 123.539062 315.421875 L 251.460938 315.421875 C 286.757812 315.421875 315.417969 286.761719 315.417969 251.460938 Z M 315.417969 123.539062 " fill-opacity="1" fill-rule="evenodd"/><path fill="#ffffff" d="M 147.394531 120.8125 C 155.265625 122.515625 165.59375 140.738281 166.660156 149.539062 C 167.730469 158.339844 152.566406 161.511719 153.796875 173.617188 C 155.769531 193.003906 185.832031 222.875 206.820312 219.03125 C 214.683594 217.59375 214.546875 210.460938 221.660156 207.28125 C 228.695312 204.136719 253.523438 215.417969 256.140625 223.09375 C 258.757812 230.777344 253.0625 251.707031 237.363281 253.359375 C 208.117188 256.4375 174.160156 242.726562 152.238281 219.332031 C 133.648438 199.5 112.734375 163.832031 119.433594 139.308594 C 122.953125 126.417969 139.523438 119.105469 147.394531 120.8125 Z M 147.394531 120.8125 " fill-opacity="1" fill-rule="evenodd"/></svg>