<svg xmlns="http://www.w3.org/2000/svg" xmlns:xlink="http://www.w3.org/1999/xlink" width="500" zoomAndPan="magnify" viewBox="0 0 375 374.999991" height="500" preserveAspectRatio="xMidYMid meet" version="1.0"><defs><clipPath id="ee3bb9c8ae"><path d="M 37.5 37.5 L 337.5 37.5 L 337.5 337.5 L 37.5 337.5 Z M 37.5 37.5 " clip-rule="nonzero"/></clipPath></defs><g clip-path="url(#ee3bb9c8ae)"><path fill="#e8e8e8" d="M 307.714844 273.34375 C 307.714844 292.246094 292.246094 307.714844 273.34375 307.714844 L 101.65625 307.714844 C 82.753906 307.714844 67.285156 292.246094 67.285156 273.34375 L 67.285156 101.65625 C 67.285156 82.753906 82.753906 67.285156 101.65625 67.285156 L 273.34375 67.285156 C 292.246094 67.285156 307.714844 82.753906 307.714844 101.65625 Z M 273.34375 37.5 L 101.65625 37.5 C 66.28125 37.5 37.5 66.28125 37.5 101.65625 L 37.5 273.34375 C 37.5 308.71875 66.28125 337.5 101.65625 337.5 L 273.34375 337.5 C 308.71875 337.5 337.5 308.71875 337.5 273.34375 L 337.5 101.65625 C 337.5 66.28125 308.71875 37.5 273.34375 37.5 " fill-opacity="1" fill-rule="nonzero"/></g><path fill="#e8e8e8" d="M 187.5 238.234375 C 159.480469 238.234375 136.765625 215.519531 136.765625 187.5 C 136.765625 159.480469 159.480469 136.765625 187.5 136.765625 C 215.519531 136.765625 238.234375 159.480469 238.234375 187.5 C 238.234375 215.519531 215.519531 238.234375 187.5 238.234375 Z M 187.5 107.847656 C 143.582031 107.847656 107.847656 143.582031 107.847656 187.5 C 107.847656 231.417969 143.582031 267.152344 187.5 267.152344 C 231.417969 267.152344 267.152344 231.417969 267.152344 187.5 C 267.152344 143.582031 231.417969 107.847656 187.5 107.847656 " fill-opacity="1" fill-rule="nonzero"/><path fill="#e8e8e8" d="M 277.894531 93.167969 L 260.335938 93.167969 C 256.976562 93.167969 254.230469 95.914062 254.230469 99.273438 L 254.230469 116.832031 C 254.230469 120.191406 256.976562 122.9375 260.335938 122.9375 L 277.894531 122.9375 C 281.253906 122.9375 284.003906 120.191406 284.003906 116.832031 L 284.003906 99.273438 C 284.003906 95.914062 281.253906 93.167969 277.894531 93.167969 " fill-opacity="1" fill-rule="nonzero"/></svg>