<svg xmlns="http://www.w3.org/2000/svg" xmlns:xlink="http://www.w3.org/1999/xlink" width="500" zoomAndPan="magnify" viewBox="0 0 375 374.999991" height="500" preserveAspectRatio="xMidYMid meet" version="1.0"><defs><g/></defs><rect x="-37.5" width="450" fill="#ffffff" y="-37.499999" height="449.999989" fill-opacity="1"/><rect x="-37.5" width="450" fill="#ffffff" y="-37.499999" height="449.999989" fill-opacity="1"/><g fill="#aee2ff" fill-opacity="1"><g transform="translate(51.730929, 281.062926)"><g><path d="M 108.679688 -40.710938 C 113.636719 -37.878906 121.421875 -40.355469 126.027344 -43.542969 C 134.167969 -49.207031 141.957031 -55.226562 150.453125 -61.242188 C 163.550781 -70.09375 198.949219 -95.226562 200.71875 -96.644531 C 205.675781 -100.539062 209.214844 -108.679688 203.90625 -111.511719 C 202.492188 -112.574219 198.597656 -109.742188 196.117188 -108.324219 C 194.703125 -107.617188 161.070312 -84.960938 144.789062 -74.695312 C 143.019531 -74.695312 139.476562 -71.507812 138.0625 -70.800781 L 131.691406 -67.261719 C 127.085938 -64.429688 122.484375 -60.890625 117.882812 -57.703125 C 123.195312 -69.386719 130.628906 -78.941406 137.707031 -89.5625 C 145.851562 -101.597656 152.929688 -113.988281 160.011719 -126.378906 C 160.71875 -127.796875 160.71875 -130.273438 160.011719 -131.335938 C 158.238281 -133.8125 155.761719 -135.9375 153.285156 -137.707031 C 150.804688 -139.832031 147.972656 -139.476562 145.496094 -137.707031 L 113.988281 -113.636719 C 105.847656 -107.261719 98.058594 -100.183594 89.917969 -93.457031 C 89.917969 -93.457031 89.210938 -93.101562 88.855469 -93.457031 C 88.5 -93.8125 88.148438 -94.875 88.148438 -95.226562 C 88.855469 -96.996094 89.917969 -98.765625 90.625 -100.539062 C 94.519531 -108.679688 98.414062 -116.820312 101.953125 -124.964844 C 102.660156 -127.085938 103.371094 -130.628906 102.660156 -131.335938 C 99.121094 -134.523438 95.582031 -137.707031 91.332031 -139.476562 C 87.792969 -141.246094 86.378906 -137 83.898438 -135.230469 L 67.96875 -123.546875 C 64.074219 -120.714844 59.828125 -118.238281 56.640625 -115.050781 C 50.269531 -108.324219 41.773438 -104.078125 35.402344 -97.707031 C 34.339844 -96.644531 32.570312 -95.933594 31.152344 -95.226562 C 30.796875 -94.875 29.738281 -95.226562 29.382812 -95.582031 C 29.027344 -95.933594 28.675781 -96.996094 29.027344 -97.707031 C 30.445312 -100.539062 32.214844 -103.015625 33.628906 -105.847656 C 35.402344 -108.679688 48.5 -133.105469 49.914062 -136.292969 C 52.394531 -141.601562 47.789062 -146.910156 41.773438 -147.265625 C 38.585938 -147.265625 37.171875 -143.371094 35.753906 -140.894531 L 18.410156 -109.742188 C 10.621094 -95.933594 2.125 -82.128906 -5.308594 -67.96875 L -10.621094 -58.410156 C -11.328125 -56.285156 -12.746094 -54.164062 -13.097656 -51.683594 C -14.160156 -46.730469 -12.035156 -43.1875 -6.726562 -40.710938 C -3.539062 -39.292969 -1.0625 -40.003906 2.476562 -43.898438 L 3.894531 -45.667969 C 14.867188 -60.179688 29.738281 -71.15625 42.480469 -84.253906 C 47.789062 -89.917969 53.808594 -94.875 60.179688 -99.121094 C 64.074219 -101.953125 66.554688 -107.261719 72.925781 -105.847656 C 70.800781 -102.308594 69.03125 -98.414062 67.261719 -94.875 C 65.492188 -91.6875 63.367188 -88.855469 61.597656 -86.023438 C 56.996094 -77.882812 52.394531 -69.738281 48.144531 -61.597656 C 46.730469 -59.117188 46.019531 -56.640625 45.3125 -53.808594 C 44.605469 -49.207031 47.4375 -44.25 52.394531 -41.417969 C 56.285156 -39.292969 58.410156 -42.125 60.535156 -44.25 C 71.863281 -54.515625 83.191406 -65.136719 94.519531 -75.757812 L 118.238281 -98.414062 C 118.945312 -99.121094 120.007812 -99.828125 121.070312 -100.183594 C 121.777344 -100.539062 122.839844 -100.183594 123.195312 -99.828125 C 123.546875 -99.476562 123.546875 -98.414062 123.546875 -98.058594 C 122.839844 -96.644531 122.132812 -94.875 121.421875 -93.8125 C 114.34375 -84.960938 111.867188 -74.339844 107.617188 -64.429688 C 105.847656 -60.179688 105.140625 -55.226562 104.785156 -50.621094 C 104.078125 -46.730469 105.140625 -42.835938 108.679688 -40.710938 Z M 108.679688 -40.710938 "/></g></g></g><g fill="#aee2ff" fill-opacity="1"><g transform="translate(231.210762, 281.062926)"><g><path d="M -39.292969 61.242188 C -35.753906 66.554688 -29.027344 65.84375 -26.550781 59.828125 C -25.488281 56.996094 -24.78125 53.808594 -24.425781 50.976562 C -16.992188 2.125 -14.160156 -18.761719 14.515625 -16.992188 C 17.347656 -16.636719 20.886719 -15.929688 24.425781 -15.578125 C 26.195312 -15.578125 29.027344 -16.636719 29.382812 -17.699219 C 29.738281 -19.46875 29.027344 -21.949219 28.675781 -24.074219 C 28.320312 -25.132812 26.90625 -25.84375 26.195312 -26.550781 C 21.242188 -31.859375 15.222656 -34.691406 7.789062 -35.402344 C 1.0625 -35.753906 0.707031 -36.816406 2.832031 -43.542969 C 3.1875 -44.957031 3.539062 -46.375 4.25 -47.789062 C 13.097656 -66.554688 21.59375 -85.316406 31.152344 -103.371094 C 42.125 -124.609375 56.640625 -143.371094 71.15625 -162.132812 C 82.835938 -177.355469 95.933594 -191.164062 110.804688 -203.199219 C 117.882812 -209.214844 124.253906 -216.296875 134.523438 -217.359375 C 135.582031 -217.359375 137.355469 -219.835938 138.0625 -221.253906 C 139.125 -226.5625 138.0625 -231.519531 133.460938 -234.703125 C 129.210938 -237.890625 125.316406 -236.476562 121.421875 -233.996094 C 118.238281 -231.871094 115.050781 -230.101562 111.867188 -227.625 C 107.617188 -224.085938 103.722656 -220.191406 99.476562 -217.003906 C 90.269531 -209.925781 82.484375 -201.074219 75.050781 -192.222656 C 64.429688 -180.1875 55.578125 -166.027344 45.3125 -153.636719 C 37.171875 -143.371094 30.796875 -132.042969 24.425781 -120.714844 C 17.699219 -108.679688 10.972656 -96.289062 4.601562 -83.898438 C -2.125 -71.15625 -10.265625 -57.347656 -13.804688 -42.835938 C -15.578125 -35.402344 -20.179688 -31.859375 -26.90625 -30.089844 C -29.382812 -29.382812 -31.507812 -29.027344 -33.984375 -28.675781 C -38.234375 -27.613281 -40.355469 -23.363281 -38.234375 -19.824219 C -36.460938 -16.285156 -34.339844 -12.746094 -31.152344 -10.621094 C -27.613281 -7.789062 -26.550781 -4.957031 -27.964844 -0.707031 C -29.027344 2.125 -29.738281 5.308594 -30.445312 8.140625 C -34.339844 22.300781 -37.878906 34.339844 -42.125 48.5 C -43.898438 53.808594 -42.125 57.347656 -39.292969 61.242188 Z M -39.292969 61.242188 "/></g></g></g><g fill="#aee2ff" fill-opacity="1"><g transform="translate(281.125263, 281.062926)"><g><path d="M 17.347656 -41.417969 C 21.59375 -44.957031 23.71875 -48.5 22.65625 -54.515625 C 19.117188 -64.78125 1.0625 -71.15625 0 -56.640625 C 0 -52.746094 1.0625 -48.5 3.894531 -46.019531 C 9.203125 -40.710938 13.453125 -38.234375 17.347656 -41.417969 Z M 17.347656 -41.417969 "/></g></g></g><g fill="#000000" fill-opacity="1"><g transform="translate(51.283083, 190.544575)"><g><path d="M 2.871094 0 L 2.871094 -6.730469 L 5.6875 -2.828125 L 6.15625 -2.828125 L 9 -6.714844 L 9 0 L 10.738281 0 L 10.738281 -9.503906 L 9.222656 -9.503906 L 5.925781 -5.074219 L 2.648438 -9.503906 L 1.132812 -9.503906 L 1.132812 0 Z M 2.871094 0 "/></g></g></g><g fill="#000000" fill-opacity="1"><g transform="translate(74.586097, 190.544575)"><g><path d="M 5.582031 0.203125 C 8.414062 0.203125 10.710938 -2.003906 10.710938 -4.765625 C 10.710938 -7.523438 8.414062 -9.726562 5.582031 -9.726562 C 2.753906 -9.726562 0.460938 -7.523438 0.460938 -4.765625 C 0.460938 -2.003906 2.753906 0.203125 5.582031 0.203125 Z M 5.582031 -1.398438 C 3.71875 -1.398438 2.199219 -2.828125 2.199219 -4.757812 C 2.199219 -6.695312 3.710938 -8.132812 5.582031 -8.132812 C 7.460938 -8.132812 8.976562 -6.699219 8.976562 -4.757812 C 8.976562 -2.828125 7.460938 -1.398438 5.582031 -1.398438 Z M 5.582031 -1.398438 "/></g></g></g><g fill="#000000" fill-opacity="1"><g transform="translate(97.197912, 190.544575)"><g><path d="M 5.476562 0.203125 C 7.503906 0.203125 9.621094 -0.964844 10.0625 -3.507812 L 8.28125 -3.507812 C 7.910156 -2.046875 6.777344 -1.398438 5.429688 -1.398438 C 3.632812 -1.398438 2.199219 -2.695312 2.199219 -4.757812 C 2.199219 -6.785156 3.632812 -8.132812 5.429688 -8.132812 C 6.785156 -8.132812 7.910156 -7.476562 8.285156 -6.015625 L 10.0625 -6.015625 C 9.621094 -8.550781 7.484375 -9.726562 5.476562 -9.726562 C 2.675781 -9.726562 0.460938 -7.523438 0.460938 -4.765625 C 0.460938 -2.003906 2.675781 0.203125 5.476562 0.203125 Z M 5.476562 0.203125 "/></g></g></g><g fill="#000000" fill-opacity="1"><g transform="translate(119.1674, 190.544575)"><g><path d="M 2.871094 0 L 2.871094 -4.011719 L 7.664062 -4.011719 L 7.664062 0 L 9.410156 0 L 9.410156 -9.503906 L 7.664062 -9.503906 L 7.664062 -5.5625 L 2.871094 -5.5625 L 2.871094 -9.503906 L 1.132812 -9.503906 L 1.132812 0 Z M 2.871094 0 "/></g></g></g><g fill="#000000" fill-opacity="1"><g transform="translate(141.150853, 190.544575)"><g><path d="M 9.621094 0 L 5.667969 -9.507812 L 4.019531 -9.507812 L 0.0625 0 L 1.902344 0 L 2.65625 -1.835938 L 7.027344 -1.835938 L 7.785156 0 Z M 4.777344 -7.035156 L 4.835938 -7.265625 L 4.855469 -7.265625 L 4.898438 -7.035156 L 6.433594 -3.289062 L 3.25 -3.289062 Z M 4.777344 -7.035156 "/></g></g></g><g fill="#000000" fill-opacity="1"><g transform="translate(162.282524, 190.544575)"><g><path d="M 2.871094 0 L 2.871094 -6.730469 L 5.6875 -2.828125 L 6.15625 -2.828125 L 9 -6.714844 L 9 0 L 10.738281 0 L 10.738281 -9.503906 L 9.222656 -9.503906 L 5.925781 -5.074219 L 2.648438 -9.503906 L 1.132812 -9.503906 L 1.132812 0 Z M 2.871094 0 "/></g></g></g><g fill="#000000" fill-opacity="1"><g transform="translate(185.585538, 190.544575)"><g><path d="M 9.621094 0 L 5.667969 -9.507812 L 4.019531 -9.507812 L 0.0625 0 L 1.902344 0 L 2.65625 -1.835938 L 7.027344 -1.835938 L 7.785156 0 Z M 4.777344 -7.035156 L 4.835938 -7.265625 L 4.855469 -7.265625 L 4.898438 -7.035156 L 6.433594 -3.289062 L 3.25 -3.289062 Z M 4.777344 -7.035156 "/></g></g></g><g fill="#000000" fill-opacity="1"><g transform="translate(206.717202, 190.544575)"><g><path d="M 4.8125 0 C 7.832031 0 9.84375 -1.902344 9.84375 -4.757812 C 9.84375 -7.601562 7.824219 -9.503906 4.792969 -9.503906 L 1.132812 -9.503906 L 1.132812 0 Z M 2.84375 -7.957031 L 4.746094 -7.957031 C 6.875 -7.957031 8.089844 -6.671875 8.089844 -4.730469 C 8.089844 -2.773438 6.839844 -1.550781 4.757812 -1.550781 L 2.84375 -1.550781 Z M 2.84375 -7.957031 "/></g></g></g><g fill="#000000" fill-opacity="1"><g transform="translate(228.470261, 190.544575)"><g/></g></g><g fill="#000000" fill-opacity="1"><g transform="translate(243.402092, 190.544575)"><g><path d="M 2.871094 0 L 2.871094 -3.730469 L 6.992188 -3.730469 L 6.992188 -5.199219 L 2.871094 -5.199219 L 2.871094 -7.945312 L 7.644531 -7.945312 L 7.644531 -9.503906 L 1.132812 -9.503906 L 1.132812 0 Z M 2.871094 0 "/></g></g></g><g fill="#000000" fill-opacity="1"><g transform="translate(262.893046, 190.544575)"><g><path d="M 2.871094 0 L 2.871094 -9.503906 L 1.132812 -9.503906 L 1.132812 0 Z M 2.871094 0 "/></g></g></g><g fill="#000000" fill-opacity="1"><g transform="translate(278.33455, 190.544575)"><g><path d="M 8.867188 -9.503906 L 6.832031 -9.503906 L 2.871094 -4.5 L 2.871094 -9.503906 L 1.132812 -9.503906 L 1.132812 0 L 2.871094 0 L 2.871094 -2.195312 L 4.339844 -4.03125 L 7.289062 0 L 9.347656 0 L 5.476562 -5.296875 Z M 8.867188 -9.503906 "/></g></g></g><g fill="#000000" fill-opacity="1"><g transform="translate(299.221864, 190.544575)"><g><path d="M 2.871094 0 L 2.871094 -3.367188 L 4.5 -3.367188 C 4.625 -3.367188 4.746094 -3.367188 4.871094 -3.375 L 6.75 0 L 8.746094 0 L 6.597656 -3.640625 C 7.761719 -4.046875 8.53125 -5.066406 8.53125 -6.40625 C 8.53125 -8.257812 7.15625 -9.503906 5.234375 -9.503906 L 1.132812 -9.503906 L 1.132812 0 Z M 2.871094 -7.953125 L 5.164062 -7.953125 C 6.085938 -7.953125 6.792969 -7.273438 6.792969 -6.40625 C 6.792969 -5.476562 6.09375 -4.84375 5.171875 -4.835938 L 2.871094 -4.835938 Z M 2.871094 -7.953125 "/></g></g></g><g fill="#000000" fill-opacity="1"><g transform="translate(319.711216, 190.544575)"><g><path d="M 2.871094 0 L 2.871094 -9.503906 L 1.132812 -9.503906 L 1.132812 0 Z M 2.871094 0 "/></g></g></g></svg>