<svg xmlns="http://www.w3.org/2000/svg" xmlns:xlink="http://www.w3.org/1999/xlink" width="500" zoomAndPan="magnify" viewBox="0 0 375 374.999991" height="500" preserveAspectRatio="xMidYMid meet" version="1.0"><defs><g/><clipPath id="ec2447f689"><path d="M 38.433594 37.964844 L 337.496094 37.964844 L 337.496094 337.027344 L 38.433594 337.027344 Z M 38.433594 37.964844 " clip-rule="nonzero"/></clipPath><clipPath id="4bfd8fdbe5"><path d="M 55.683594 37.964844 L 320.246094 37.964844 C 324.820312 37.964844 329.207031 39.785156 332.445312 43.019531 C 335.679688 46.253906 337.496094 50.640625 337.496094 55.214844 L 337.496094 319.78125 C 337.496094 324.355469 335.679688 328.742188 332.445312 331.976562 C 329.207031 335.210938 324.820312 337.027344 320.246094 337.027344 L 55.683594 337.027344 C 51.109375 337.027344 46.71875 335.210938 43.484375 331.976562 C 40.25 328.742188 38.433594 324.355469 38.433594 319.78125 L 38.433594 55.214844 C 38.433594 50.640625 40.25 46.253906 43.484375 43.019531 C 46.71875 39.785156 51.109375 37.964844 55.683594 37.964844 Z M 55.683594 37.964844 " clip-rule="nonzero"/></clipPath></defs><g clip-path="url(#ec2447f689)"><g clip-path="url(#4bfd8fdbe5)"><path stroke-linecap="butt" transform="matrix(0.75, 0, 0, 0.75, 38.433386, 37.96669)" fill="none" stroke-linejoin="miter" d="M 23.000279 -0.00246101 L 375.750302 -0.00246101 C 381.849261 -0.00246101 387.698219 2.424622 392.015928 6.737123 C 396.328428 11.049623 398.750304 16.898582 398.750304 22.997541 L 398.750304 375.752772 C 398.750304 381.851731 396.328428 387.700689 392.015928 392.01319 C 387.698219 396.32569 381.849261 398.747565 375.750302 398.747565 L 23.000279 398.747565 C 16.90132 398.747565 11.047153 396.32569 6.734653 392.01319 C 2.422153 387.700689 0.000277352 381.851731 0.000277352 375.752772 L 0.000277352 22.997541 C 0.000277352 16.898582 2.422153 11.049623 6.734653 6.737123 C 11.047153 2.424622 16.90132 -0.00246101 23.000279 -0.00246101 Z M 23.000279 -0.00246101 " stroke="#7d0a0a" stroke-width="10" stroke-opacity="1" stroke-miterlimit="4"/></g></g><path stroke-linecap="butt" transform="matrix(3.741971, 0, 0, 3.741971, 56.997711, 49.047074)" fill="none" stroke-linejoin="miter" d="M 4.947663 57.00012 L 4.947663 18.929019 L 20.233517 18.929019 C 24.174247 18.929019 27.146235 19.83617 29.151571 21.650471 C 31.156906 23.464773 32.159052 25.969093 32.159052 29.163433 C 32.159052 31.472544 31.573423 33.364094 30.402165 34.840171 C 29.229863 36.315204 27.481328 37.443662 25.154471 38.225545 L 25.154471 38.771505 C 26.35287 39.292412 27.320567 40.0649 28.058606 41.090011 C 28.7956 42.114079 29.495014 43.632956 30.15476 45.646643 L 33.956651 57.00012 L 26.222382 57.00012 L 22.498784 45.620545 C 22.116716 44.474341 21.686629 43.584937 21.209566 42.951288 C 20.732502 42.31764 20.124951 41.857279 19.386913 41.57125 C 18.648874 41.285221 17.689528 41.141163 16.508875 41.141163 L 12.473151 41.141163 L 12.473151 57.00012 Z M 19.322191 35.178395 C 22.967496 35.178395 24.790149 33.476835 24.790149 30.074759 C 24.790149 26.619444 22.967496 24.89283 19.322191 24.89283 L 12.473151 24.89283 L 12.473151 35.178395 Z M 39.735692 68.639625 L 39.735692 28.278204 L 46.949053 28.278204 L 46.949053 32.0279 L 47.496058 32.131246 C 48.346838 30.673959 49.483647 29.575774 50.907529 28.837735 C 52.330367 28.099697 53.997479 27.7312 55.906775 27.7312 C 58.215886 27.7312 60.233748 28.278204 61.961406 29.371169 C 63.688019 30.465178 65.033609 32.12707 65.99713 34.357888 C 66.960652 36.588707 67.442934 39.354003 67.442934 42.651689 C 67.442934 45.932672 66.934554 48.684397 65.918838 50.906864 C 64.903121 53.128288 63.49281 54.791223 61.687904 55.893584 C 59.881953 56.995944 57.799369 57.547124 55.438063 57.547124 C 53.649859 57.547124 52.104885 57.247524 50.803139 56.648325 C 49.500349 56.049125 48.397989 55.116921 47.496058 53.849624 L 46.949053 53.95297 L 46.949053 68.639625 Z M 53.432728 51.427771 C 55.585253 51.427771 57.217916 50.724182 58.328627 49.318046 C 59.439339 47.91191 59.994695 45.689443 59.994695 42.651689 C 59.994695 39.613934 59.439339 37.387292 58.328627 35.972805 C 57.217916 34.558318 55.585253 33.850552 53.432728 33.850552 C 51.419041 33.850552 49.821871 34.579196 48.641218 36.037527 C 47.460565 37.495857 46.870761 39.700578 46.870761 42.651689 C 46.870761 45.586097 47.460565 47.781422 48.641218 49.239753 C 49.821871 50.698084 51.419041 51.427771 53.432728 51.427771 Z M 53.432728 51.427771 " stroke="#030712" stroke-width="3.999998" stroke-opacity="1" stroke-miterlimit="4"/><g fill="#7d0a0a" fill-opacity="1"><g transform="translate(56.997711, 262.339397)"><g><path d="M 18.515625 0 L 18.515625 -142.46875 L 75.71875 -142.46875 C 90.457031 -142.46875 101.578125 -139.070312 109.078125 -132.28125 C 116.585938 -125.488281 120.34375 -116.117188 120.34375 -104.171875 C 120.34375 -95.523438 118.148438 -88.441406 113.765625 -82.921875 C 109.378906 -77.398438 102.832031 -73.175781 94.125 -70.25 L 94.125 -68.203125 C 98.613281 -66.253906 102.238281 -63.363281 105 -59.53125 C 107.757812 -55.695312 110.375 -50.015625 112.84375 -42.484375 L 127.0625 0 L 98.125 0 L 84.1875 -42.578125 C 82.757812 -46.867188 81.148438 -50.195312 79.359375 -52.5625 C 77.578125 -54.9375 75.304688 -56.660156 72.546875 -57.734375 C 69.785156 -58.804688 66.195312 -59.34375 61.78125 -59.34375 L 46.671875 -59.34375 L 46.671875 0 Z M 72.296875 -81.65625 C 85.941406 -81.65625 92.765625 -88.019531 92.765625 -100.75 C 92.765625 -113.675781 85.941406 -120.140625 72.296875 -120.140625 L 46.671875 -120.140625 L 46.671875 -81.65625 Z M 72.296875 -81.65625 "/></g></g></g><g fill="#7d0a0a" fill-opacity="1"><g transform="translate(190.194987, 262.339397)"><g><path d="M 15.5 43.5625 L 15.5 -107.484375 L 42.484375 -107.484375 L 42.484375 -93.453125 L 44.53125 -93.0625 C 47.71875 -98.519531 51.972656 -102.628906 57.296875 -105.390625 C 62.617188 -108.148438 68.851562 -109.53125 76 -109.53125 C 84.644531 -109.53125 92.195312 -107.484375 98.65625 -103.390625 C 105.125 -99.296875 110.160156 -93.070312 113.765625 -84.71875 C 117.367188 -76.375 119.171875 -66.03125 119.171875 -53.6875 C 119.171875 -41.414062 117.269531 -31.117188 113.46875 -22.796875 C 109.664062 -14.484375 104.382812 -8.265625 97.625 -4.140625 C 90.875 -0.015625 83.082031 2.046875 74.25 2.046875 C 67.5625 2.046875 61.78125 0.925781 56.90625 -1.3125 C 52.03125 -3.550781 47.90625 -7.046875 44.53125 -11.796875 L 42.484375 -11.40625 L 42.484375 43.5625 Z M 66.75 -20.859375 C 74.800781 -20.859375 80.90625 -23.488281 85.0625 -28.75 C 89.21875 -34.007812 91.296875 -42.320312 91.296875 -53.6875 C 91.296875 -65.0625 89.21875 -73.394531 85.0625 -78.6875 C 80.90625 -83.976562 74.800781 -86.625 66.75 -86.625 C 59.207031 -86.625 53.226562 -83.894531 48.8125 -78.4375 C 44.394531 -72.976562 42.1875 -64.726562 42.1875 -53.6875 C 42.1875 -42.707031 44.394531 -34.488281 48.8125 -29.03125 C 53.226562 -23.582031 59.207031 -20.859375 66.75 -20.859375 Z M 66.75 -20.859375 "/></g></g></g></svg>