<svg xmlns="http://www.w3.org/2000/svg" xmlns:xlink="http://www.w3.org/1999/xlink" width="500" zoomAndPan="magnify" viewBox="0 0 375 374.999991" height="500" preserveAspectRatio="xMidYMid meet" version="1.0"><defs><clipPath id="977f5103e7"><path d="M 38.433594 37.964844 L 337.496094 37.964844 L 337.496094 337.027344 L 38.433594 337.027344 Z M 38.433594 37.964844 " clip-rule="nonzero"/></clipPath><clipPath id="d620c1af5b"><path d="M 55.683594 37.964844 L 320.246094 37.964844 C 324.820312 37.964844 329.207031 39.785156 332.445312 43.019531 C 335.679688 46.253906 337.496094 50.640625 337.496094 55.214844 L 337.496094 319.78125 C 337.496094 324.355469 335.679688 328.742188 332.445312 331.976562 C 329.207031 335.210938 324.820312 337.027344 320.246094 337.027344 L 55.683594 337.027344 C 51.109375 337.027344 46.71875 335.210938 43.484375 331.976562 C 40.25 328.742188 38.433594 324.355469 38.433594 319.78125 L 38.433594 55.214844 C 38.433594 50.640625 40.25 46.253906 43.484375 43.019531 C 46.71875 39.785156 51.109375 37.964844 55.683594 37.964844 Z M 55.683594 37.964844 " clip-rule="nonzero"/></clipPath><clipPath id="3b9e1feff5"><path d="M 70.855469 70.855469 L 304.144531 70.855469 L 304.144531 304.144531 L 70.855469 304.144531 Z M 70.855469 70.855469 " clip-rule="nonzero"/></clipPath><clipPath id="3a29e9ed11"><path d="M 187.5 70.855469 C 123.078125 70.855469 70.855469 123.078125 70.855469 187.5 C 70.855469 251.921875 123.078125 304.144531 187.5 304.144531 C 251.921875 304.144531 304.144531 251.921875 304.144531 187.5 C 304.144531 123.078125 251.921875 70.855469 187.5 70.855469 Z M 187.5 70.855469 " clip-rule="nonzero"/></clipPath><clipPath id="1662b4cb43"><path d="M 70.855469 70.855469 L 304.105469 70.855469 L 304.105469 304.105469 L 70.855469 304.105469 Z M 70.855469 70.855469 " clip-rule="nonzero"/></clipPath><clipPath id="ef7b496af1"><path d="M 187.496094 70.855469 C 123.078125 70.855469 70.855469 123.078125 70.855469 187.496094 C 70.855469 251.917969 123.078125 304.140625 187.496094 304.140625 C 251.917969 304.140625 304.140625 251.917969 304.140625 187.496094 C 304.140625 123.078125 251.917969 70.855469 187.496094 70.855469 Z M 187.496094 70.855469 " clip-rule="nonzero"/></clipPath><clipPath id="df72625ade"><path d="M 182.957031 78.1875 L 191.957031 78.1875 L 191.957031 176.402344 L 182.957031 176.402344 Z M 182.957031 78.1875 " clip-rule="nonzero"/></clipPath><clipPath id="5100c96064"><path d="M 187.496094 78.1875 C 190.003906 78.1875 192.039062 80.21875 192.039062 82.726562 L 192.039062 171.6875 C 192.039062 174.195312 190.003906 176.226562 187.496094 176.226562 C 184.988281 176.226562 182.957031 174.195312 182.957031 171.6875 L 182.957031 82.726562 C 182.957031 80.21875 184.988281 78.1875 187.496094 78.1875 Z M 187.496094 78.1875 " clip-rule="nonzero"/></clipPath><clipPath id="957b53842b"><path d="M 182 167 L 245 167 L 245 227 L 182 227 Z M 182 167 " clip-rule="nonzero"/></clipPath><clipPath id="10328a39b2"><path d="M 246.5625 221.722656 L 240.371094 228.253906 L 181.058594 171.992188 L 187.253906 165.460938 Z M 246.5625 221.722656 " clip-rule="nonzero"/></clipPath><clipPath id="97b6fca967"><path d="M 246.535156 221.695312 L 240.296875 228.269531 L 180.015625 171.089844 L 186.253906 164.515625 Z M 246.535156 221.695312 " clip-rule="nonzero"/></clipPath><clipPath id="1098ef0e7c"><path d="M 243.554688 224.835938 C 242.765625 225.667969 241.675781 226.152344 240.527344 226.183594 C 239.378906 226.214844 238.265625 225.789062 237.433594 224.996094 L 184.21875 174.519531 C 183.386719 173.730469 182.902344 172.640625 182.871094 171.492188 C 182.839844 170.34375 183.265625 169.230469 184.058594 168.398438 C 184.847656 167.5625 185.9375 167.078125 187.085938 167.046875 C 188.234375 167.019531 189.34375 167.445312 190.179688 168.234375 L 243.390625 218.714844 C 244.226562 219.503906 244.710938 220.59375 244.742188 221.742188 C 244.769531 222.890625 244.34375 224.003906 243.554688 224.835938 Z M 243.554688 224.835938 " clip-rule="nonzero"/></clipPath></defs><g clip-path="url(#977f5103e7)"><g clip-path="url(#d620c1af5b)"><path stroke-linecap="butt" transform="matrix(0.75, 0, 0, 0.75, 38.433386, 37.966697)" fill="none" stroke-linejoin="miter" d="M 23.000279 -0.00247061 L 375.750302 -0.00247061 C 381.849261 -0.00247061 387.698219 2.424613 392.015928 6.737113 C 396.328428 11.049613 398.750304 16.898572 398.750304 22.997531 L 398.750304 375.752762 C 398.750304 381.851721 396.328428 387.70068 392.015928 392.01318 C 387.698219 396.32568 381.849261 398.747556 375.750302 398.747556 L 23.000279 398.747556 C 16.90132 398.747556 11.047153 396.32568 6.734653 392.01318 C 2.422153 387.70068 0.000277352 381.851721 0.000277352 375.752762 L 0.000277352 22.997531 C 0.000277352 16.898572 2.422153 11.049613 6.734653 6.737113 C 11.047153 2.424613 16.90132 -0.00247061 23.000279 -0.00247061 Z M 23.000279 -0.00247061 " stroke="#7d0a0a" stroke-width="10" stroke-opacity="1" stroke-miterlimit="4"/></g></g><g clip-path="url(#3b9e1feff5)"><g clip-path="url(#3a29e9ed11)"><path fill="#7d0a0a" d="M 70.855469 70.855469 L 304.144531 70.855469 L 304.144531 304.144531 L 70.855469 304.144531 Z M 70.855469 70.855469 " fill-opacity="1" fill-rule="nonzero"/></g></g><g clip-path="url(#1662b4cb43)"><g clip-path="url(#ef7b496af1)"><path stroke-linecap="butt" transform="matrix(0.75, 0, 0, 0.75, 70.854689, 70.854663)" fill="none" stroke-linejoin="miter" d="M 155.521884 0.00107494 C 69.631253 0.00107494 0.00104014 69.631288 0.00104014 155.521918 C 0.00104014 241.417757 69.631253 311.04797 155.521884 311.04797 C 241.417723 311.04797 311.047936 241.417757 311.047936 155.521918 C 311.047936 69.631288 241.417723 0.00107494 155.521884 0.00107494 Z M 155.521884 0.00107494 " stroke="#030712" stroke-width="10" stroke-opacity="1" stroke-miterlimit="4"/></g></g><g clip-path="url(#df72625ade)"><g clip-path="url(#5100c96064)"><path stroke-linecap="butt" transform="matrix(0.75, 0, 0, 0.75, 182.9553, 78.187106)" fill="none" stroke-linejoin="miter" d="M 6.054392 0.000525246 C 9.398143 0.000525246 12.111685 2.708859 12.111685 6.052609 L 12.111685 124.6672 C 12.111685 128.01095 9.398143 130.719284 6.054392 130.719284 C 2.710642 130.719284 0.00230875 128.01095 0.00230875 124.6672 L 0.00230875 6.052609 C 0.00230875 2.708859 2.710642 0.000525246 6.054392 0.000525246 Z M 6.054392 0.000525246 " stroke="#030712" stroke-width="10" stroke-opacity="1" stroke-miterlimit="4"/></g></g><g clip-path="url(#957b53842b)"><g clip-path="url(#10328a39b2)"><g clip-path="url(#97b6fca967)"><g clip-path="url(#1098ef0e7c)"><path stroke-linecap="butt" transform="matrix(-0.516158, 0.544133, -0.544133, -0.516158, 246.534041, 221.693745)" fill="none" stroke-linejoin="miter" d="M 5.773491 -0.00124983 C 7.30241 -0.0014359 8.771025 0.608353 9.855078 1.690616 C 10.93913 2.772879 11.548815 4.240512 11.545222 5.773015 L 11.547543 103.568307 C 11.547729 105.097226 10.937941 106.565842 9.855677 107.649894 C 8.773414 108.733947 7.305781 109.343631 5.773278 109.340039 C 4.24058 109.343809 2.771965 108.734021 1.687912 107.651758 C 0.607638 106.56591 0.00153815 105.102055 -0.00223235 103.569358 L 0.00281021 5.77426 C -0.000960292 4.241563 0.608828 2.772947 1.691091 1.688895 C 2.776939 0.608621 4.244572 -0.00106377 5.773491 -0.00124983 Z M 5.773491 -0.00124983 " stroke="#030712" stroke-width="10" stroke-opacity="1" stroke-miterlimit="4"/></g></g></g></g></svg>