<svg xmlns="http://www.w3.org/2000/svg" xmlns:xlink="http://www.w3.org/1999/xlink" width="500" zoomAndPan="magnify" viewBox="0 0 375 374.999991" height="500" preserveAspectRatio="xMidYMid meet" version="1.0"><defs><clipPath id="58b112da3d"><path d="M 38.433594 37.964844 L 337.5 37.964844 L 337.5 337.035156 L 38.433594 337.035156 Z M 38.433594 37.964844 " clip-rule="nonzero"/></clipPath><clipPath id="fae1700967"><path d="M 55.683594 37.964844 L 320.25 37.964844 C 324.824219 37.964844 329.210938 39.785156 332.449219 43.019531 C 335.683594 46.253906 337.5 50.640625 337.5 55.214844 L 337.5 319.785156 C 337.5 324.359375 335.683594 328.746094 332.449219 331.980469 C 329.210938 335.214844 324.824219 337.035156 320.25 337.035156 L 55.683594 337.035156 C 51.109375 337.035156 46.722656 335.214844 43.484375 331.980469 C 40.25 328.746094 38.433594 324.359375 38.433594 319.785156 L 38.433594 55.214844 C 38.433594 50.640625 40.25 46.253906 43.484375 43.019531 C 46.722656 39.785156 51.109375 37.964844 55.683594 37.964844 Z M 55.683594 37.964844 " clip-rule="nonzero"/></clipPath><clipPath id="cfc80bbfc7"><path d="M 70.855469 70.855469 L 304.144531 70.855469 L 304.144531 304.144531 L 70.855469 304.144531 Z M 70.855469 70.855469 " clip-rule="nonzero"/></clipPath><clipPath id="5ee0847dd5"><path d="M 187.5 70.855469 C 123.078125 70.855469 70.855469 123.078125 70.855469 187.5 C 70.855469 251.921875 123.078125 304.144531 187.5 304.144531 C 251.921875 304.144531 304.144531 251.921875 304.144531 187.5 C 304.144531 123.078125 251.921875 70.855469 187.5 70.855469 Z M 187.5 70.855469 " clip-rule="nonzero"/></clipPath><clipPath id="fc25d58f0d"><path d="M 182.957031 78.152344 L 192.042969 78.152344 L 192.042969 176.273438 L 182.957031 176.273438 Z M 182.957031 78.152344 " clip-rule="nonzero"/></clipPath><clipPath id="f9c695b6e6"><path d="M 187.5 78.152344 C 190.011719 78.152344 192.042969 80.1875 192.042969 82.695312 L 192.042969 171.726562 C 192.042969 174.238281 190.011719 176.273438 187.5 176.273438 C 184.988281 176.273438 182.957031 174.238281 182.957031 171.726562 L 182.957031 82.695312 C 182.957031 80.1875 184.988281 78.152344 187.5 78.152344 Z M 187.5 78.152344 " clip-rule="nonzero"/></clipPath><clipPath id="a0b2365720"><path d="M 182 167 L 245 167 L 245 227 L 182 227 Z M 182 167 " clip-rule="nonzero"/></clipPath><clipPath id="0891b9da66"><path d="M 246.5625 221.71875 L 240.597656 228.007812 L 181.035156 171.507812 L 187.003906 165.21875 Z M 246.5625 221.71875 " clip-rule="nonzero"/></clipPath><clipPath id="82606d17c5"><path d="M 243.578125 224.863281 C 242.789062 225.695312 241.699219 226.183594 240.546875 226.210938 C 239.398438 226.242188 238.285156 225.816406 237.449219 225.023438 L 184.179688 174.492188 C 183.347656 173.703125 182.859375 172.613281 182.832031 171.460938 C 182.800781 170.3125 183.226562 169.199219 184.019531 168.363281 C 184.808594 167.53125 185.902344 167.046875 187.050781 167.015625 C 188.199219 166.984375 189.3125 167.410156 190.148438 168.203125 L 243.417969 218.734375 C 244.25 219.527344 244.738281 220.617188 244.765625 221.765625 C 244.796875 222.914062 244.371094 224.027344 243.578125 224.863281 Z M 243.578125 224.863281 " clip-rule="nonzero"/></clipPath></defs><g clip-path="url(#58b112da3d)"><g clip-path="url(#fae1700967)"><path fill="#b06161" d="M 38.433594 37.964844 L 337.5 37.964844 L 337.5 337.035156 L 38.433594 337.035156 Z M 38.433594 37.964844 " fill-opacity="1" fill-rule="nonzero"/></g></g><g clip-path="url(#cfc80bbfc7)"><g clip-path="url(#5ee0847dd5)"><path fill="#dc8686" d="M 70.855469 70.855469 L 304.144531 70.855469 L 304.144531 304.144531 L 70.855469 304.144531 Z M 70.855469 70.855469 " fill-opacity="1" fill-rule="nonzero"/></g></g><g clip-path="url(#fc25d58f0d)"><g clip-path="url(#f9c695b6e6)"><path fill="#b06161" d="M 182.957031 78.152344 L 192.042969 78.152344 L 192.042969 176.273438 L 182.957031 176.273438 Z M 182.957031 78.152344 " fill-opacity="1" fill-rule="nonzero"/></g></g><g clip-path="url(#a0b2365720)"><g clip-path="url(#0891b9da66)"><g clip-path="url(#82606d17c5)"><path fill="#b06161" d="M 246.5625 221.71875 L 240.597656 228.007812 L 181.035156 171.507812 L 187.003906 165.21875 Z M 246.5625 221.71875 " fill-opacity="1" fill-rule="nonzero"/></g></g></g></svg>