<svg xmlns="http://www.w3.org/2000/svg" xmlns:xlink="http://www.w3.org/1999/xlink" width="500" zoomAndPan="magnify" viewBox="0 0 375 374.999991" height="500" preserveAspectRatio="xMidYMid meet" version="1.0"><defs><clipPath id="a83aac60eb"><path d="M 38.433594 37.964844 L 337.496094 37.964844 L 337.496094 337.027344 L 38.433594 337.027344 Z M 38.433594 37.964844 " clip-rule="nonzero"/></clipPath><clipPath id="2653b70aff"><path d="M 55.683594 37.964844 L 320.246094 37.964844 C 324.820312 37.964844 329.207031 39.785156 332.445312 43.019531 C 335.679688 46.253906 337.496094 50.640625 337.496094 55.214844 L 337.496094 319.78125 C 337.496094 324.355469 335.679688 328.742188 332.445312 331.976562 C 329.207031 335.210938 324.820312 337.027344 320.246094 337.027344 L 55.683594 337.027344 C 51.109375 337.027344 46.71875 335.210938 43.484375 331.976562 C 40.25 328.742188 38.433594 324.355469 38.433594 319.78125 L 38.433594 55.214844 C 38.433594 50.640625 40.25 46.253906 43.484375 43.019531 C 46.71875 39.785156 51.109375 37.964844 55.683594 37.964844 Z M 55.683594 37.964844 " clip-rule="nonzero"/></clipPath><clipPath id="117d37af09"><path d="M 61.765625 116.707031 L 313.234375 116.707031 L 313.234375 258.292969 L 61.765625 258.292969 Z M 61.765625 116.707031 " clip-rule="nonzero"/></clipPath><clipPath id="b88b2c45ad"><path d="M 79.015625 116.707031 L 295.984375 116.707031 C 300.5625 116.707031 304.949219 118.523438 308.183594 121.757812 C 311.417969 124.992188 313.234375 129.382812 313.234375 133.957031 L 313.234375 241.042969 C 313.234375 245.617188 311.417969 250.007812 308.183594 253.242188 C 304.949219 256.476562 300.5625 258.292969 295.984375 258.292969 L 79.015625 258.292969 C 74.4375 258.292969 70.050781 256.476562 66.816406 253.242188 C 63.582031 250.007812 61.765625 245.617188 61.765625 241.042969 L 61.765625 133.957031 C 61.765625 129.382812 63.582031 124.992188 66.816406 121.757812 C 70.050781 118.523438 74.4375 116.707031 79.015625 116.707031 Z M 79.015625 116.707031 " clip-rule="nonzero"/></clipPath><clipPath id="8fede5a847"><path d="M 61.765625 116.707031 L 313.015625 116.707031 L 313.015625 258.457031 L 61.765625 258.457031 Z M 61.765625 116.707031 " clip-rule="nonzero"/></clipPath><clipPath id="0edd00ca81"><path d="M 79.015625 116.707031 L 295.976562 116.707031 C 300.550781 116.707031 304.9375 118.527344 308.171875 121.761719 C 311.40625 124.996094 313.226562 129.382812 313.226562 133.957031 L 313.226562 241.039062 C 313.226562 245.617188 311.40625 250.003906 308.171875 253.238281 C 304.9375 256.472656 300.550781 258.289062 295.976562 258.289062 L 79.015625 258.289062 C 74.4375 258.289062 70.050781 256.472656 66.816406 253.238281 C 63.582031 250.003906 61.765625 245.617188 61.765625 241.039062 L 61.765625 133.957031 C 61.765625 129.382812 63.582031 124.996094 66.816406 121.761719 C 70.050781 118.527344 74.4375 116.707031 79.015625 116.707031 Z M 79.015625 116.707031 " clip-rule="nonzero"/></clipPath><clipPath id="491054b60f"><path d="M 116.277344 124.359375 L 139.898438 124.359375 L 139.898438 147.984375 L 116.277344 147.984375 Z M 116.277344 124.359375 " clip-rule="nonzero"/></clipPath><clipPath id="3b69a99857"><path d="M 128.089844 124.359375 C 121.566406 124.359375 116.277344 129.648438 116.277344 136.171875 C 116.277344 142.695312 121.566406 147.984375 128.089844 147.984375 C 134.613281 147.984375 139.898438 142.695312 139.898438 136.171875 C 139.898438 129.648438 134.613281 124.359375 128.089844 124.359375 Z M 128.089844 124.359375 " clip-rule="nonzero"/></clipPath><clipPath id="e4307ea143"><path d="M 116.277344 124.359375 L 139.527344 124.359375 L 139.527344 147.609375 L 116.277344 147.609375 Z M 116.277344 124.359375 " clip-rule="nonzero"/></clipPath><clipPath id="7fa15229ae"><path d="M 128.082031 124.359375 C 121.5625 124.359375 116.277344 129.648438 116.277344 136.167969 C 116.277344 142.6875 121.5625 147.972656 128.082031 147.972656 C 134.605469 147.972656 139.890625 142.6875 139.890625 136.167969 C 139.890625 129.648438 134.605469 124.359375 128.082031 124.359375 Z M 128.082031 124.359375 " clip-rule="nonzero"/></clipPath><clipPath id="2596192c38"><path d="M 76.511719 124.359375 L 100.136719 124.359375 L 100.136719 147.984375 L 76.511719 147.984375 Z M 76.511719 124.359375 " clip-rule="nonzero"/></clipPath><clipPath id="9b00b3fa15"><path d="M 88.324219 124.359375 C 81.800781 124.359375 76.511719 129.648438 76.511719 136.171875 C 76.511719 142.695312 81.800781 147.984375 88.324219 147.984375 C 94.847656 147.984375 100.136719 142.695312 100.136719 136.171875 C 100.136719 129.648438 94.847656 124.359375 88.324219 124.359375 Z M 88.324219 124.359375 " clip-rule="nonzero"/></clipPath><clipPath id="42027057e9"><path d="M 76.511719 124.359375 L 99.761719 124.359375 L 99.761719 147.609375 L 76.511719 147.609375 Z M 76.511719 124.359375 " clip-rule="nonzero"/></clipPath><clipPath id="1db5ee4d3f"><path d="M 88.320312 124.359375 C 81.800781 124.359375 76.511719 129.648438 76.511719 136.167969 C 76.511719 142.6875 81.800781 147.972656 88.320312 147.972656 C 94.839844 147.972656 100.125 142.6875 100.125 136.167969 C 100.125 129.648438 94.839844 124.359375 88.320312 124.359375 Z M 88.320312 124.359375 " clip-rule="nonzero"/></clipPath><clipPath id="66d6367390"><path d="M 156.039062 124.359375 L 179.664062 124.359375 L 179.664062 147.984375 L 156.039062 147.984375 Z M 156.039062 124.359375 " clip-rule="nonzero"/></clipPath><clipPath id="73be6b8dfd"><path d="M 167.851562 124.359375 C 161.328125 124.359375 156.039062 129.648438 156.039062 136.171875 C 156.039062 142.695312 161.328125 147.984375 167.851562 147.984375 C 174.375 147.984375 179.664062 142.695312 179.664062 136.171875 C 179.664062 129.648438 174.375 124.359375 167.851562 124.359375 Z M 167.851562 124.359375 " clip-rule="nonzero"/></clipPath><clipPath id="33990997f0"><path d="M 156.039062 124.359375 L 179.289062 124.359375 L 179.289062 147.609375 L 156.039062 147.609375 Z M 156.039062 124.359375 " clip-rule="nonzero"/></clipPath><clipPath id="f8341a6064"><path d="M 167.847656 124.359375 C 161.324219 124.359375 156.039062 129.648438 156.039062 136.167969 C 156.039062 142.6875 161.324219 147.972656 167.847656 147.972656 C 174.367188 147.972656 179.652344 142.6875 179.652344 136.167969 C 179.652344 129.648438 174.367188 124.359375 167.847656 124.359375 Z M 167.847656 124.359375 " clip-rule="nonzero"/></clipPath><clipPath id="dbcf061e37"><path d="M 195.804688 124.359375 L 219.425781 124.359375 L 219.425781 147.984375 L 195.804688 147.984375 Z M 195.804688 124.359375 " clip-rule="nonzero"/></clipPath><clipPath id="abb6e808d2"><path d="M 207.613281 124.359375 C 201.089844 124.359375 195.804688 129.648438 195.804688 136.171875 C 195.804688 142.695312 201.089844 147.984375 207.613281 147.984375 C 214.136719 147.984375 219.425781 142.695312 219.425781 136.171875 C 219.425781 129.648438 214.136719 124.359375 207.613281 124.359375 Z M 207.613281 124.359375 " clip-rule="nonzero"/></clipPath><clipPath id="2a66606246"><path d="M 195.804688 124.359375 L 219.054688 124.359375 L 219.054688 147.609375 L 195.804688 147.609375 Z M 195.804688 124.359375 " clip-rule="nonzero"/></clipPath><clipPath id="c1a9c8da29"><path d="M 207.609375 124.359375 C 201.089844 124.359375 195.804688 129.648438 195.804688 136.167969 C 195.804688 142.6875 201.089844 147.972656 207.609375 147.972656 C 214.128906 147.972656 219.417969 142.6875 219.417969 136.167969 C 219.417969 129.648438 214.128906 124.359375 207.609375 124.359375 Z M 207.609375 124.359375 " clip-rule="nonzero"/></clipPath><clipPath id="c264429a6d"><path d="M 235.566406 124.359375 L 259.191406 124.359375 L 259.191406 147.984375 L 235.566406 147.984375 Z M 235.566406 124.359375 " clip-rule="nonzero"/></clipPath><clipPath id="1a9b84b653"><path d="M 247.378906 124.359375 C 240.855469 124.359375 235.566406 129.648438 235.566406 136.171875 C 235.566406 142.695312 240.855469 147.984375 247.378906 147.984375 C 253.902344 147.984375 259.191406 142.695312 259.191406 136.171875 C 259.191406 129.648438 253.902344 124.359375 247.378906 124.359375 Z M 247.378906 124.359375 " clip-rule="nonzero"/></clipPath><clipPath id="ff2099f29e"><path d="M 235.566406 124.359375 L 258.816406 124.359375 L 258.816406 147.609375 L 235.566406 147.609375 Z M 235.566406 124.359375 " clip-rule="nonzero"/></clipPath><clipPath id="d93c3066f9"><path d="M 247.375 124.359375 C 240.851562 124.359375 235.566406 129.648438 235.566406 136.167969 C 235.566406 142.6875 240.851562 147.972656 247.375 147.972656 C 253.894531 147.972656 259.179688 142.6875 259.179688 136.167969 C 259.179688 129.648438 253.894531 124.359375 247.375 124.359375 Z M 247.375 124.359375 " clip-rule="nonzero"/></clipPath><clipPath id="b4755d00c1"><path d="M 76.511719 222.144531 L 298.488281 222.144531 L 298.488281 243.230469 L 76.511719 243.230469 Z M 76.511719 222.144531 " clip-rule="nonzero"/></clipPath><clipPath id="a6586a247a"><path d="M 80.261719 222.144531 L 294.738281 222.144531 C 295.730469 222.144531 296.683594 222.539062 297.386719 223.242188 C 298.089844 223.945312 298.488281 224.902344 298.488281 225.894531 L 298.488281 239.480469 C 298.488281 240.472656 298.089844 241.425781 297.386719 242.128906 C 296.683594 242.835938 295.730469 243.230469 294.738281 243.230469 L 80.261719 243.230469 C 79.269531 243.230469 78.316406 242.835938 77.613281 242.128906 C 76.910156 241.425781 76.511719 240.472656 76.511719 239.480469 L 76.511719 225.894531 C 76.511719 224.902344 76.910156 223.945312 77.613281 223.242188 C 78.316406 222.539062 79.269531 222.144531 80.261719 222.144531 Z M 80.261719 222.144531 " clip-rule="nonzero"/></clipPath><clipPath id="d5eaad60d4"><path d="M 76.519531 222.144531 L 298.511719 222.144531 L 298.511719 243.144531 L 76.519531 243.144531 Z M 76.519531 222.144531 " clip-rule="nonzero"/></clipPath><clipPath id="30b18fe941"><path d="M 80.269531 222.144531 L 294.722656 222.144531 C 295.71875 222.144531 296.671875 222.539062 297.375 223.242188 C 298.078125 223.945312 298.472656 224.902344 298.472656 225.894531 L 298.472656 239.476562 C 298.472656 240.472656 298.078125 241.425781 297.375 242.128906 C 296.671875 242.832031 295.71875 243.226562 294.722656 243.226562 L 80.269531 243.226562 C 79.273438 243.226562 78.320312 242.832031 77.617188 242.128906 C 76.914062 241.425781 76.519531 240.472656 76.519531 239.476562 L 76.519531 225.894531 C 76.519531 224.902344 76.914062 223.945312 77.617188 223.242188 C 78.320312 222.539062 79.273438 222.144531 80.269531 222.144531 Z M 80.269531 222.144531 " clip-rule="nonzero"/></clipPath><clipPath id="913e0d59d8"><path d="M 275.332031 124.359375 L 298.953125 124.359375 L 298.953125 147.984375 L 275.332031 147.984375 Z M 275.332031 124.359375 " clip-rule="nonzero"/></clipPath><clipPath id="e2eb714c04"><path d="M 287.140625 124.359375 C 280.617188 124.359375 275.332031 129.648438 275.332031 136.171875 C 275.332031 142.695312 280.617188 147.984375 287.140625 147.984375 C 293.664062 147.984375 298.953125 142.695312 298.953125 136.171875 C 298.953125 129.648438 293.664062 124.359375 287.140625 124.359375 Z M 287.140625 124.359375 " clip-rule="nonzero"/></clipPath><clipPath id="a04ce59d3d"><path d="M 275.332031 124.359375 L 298.582031 124.359375 L 298.582031 147.609375 L 275.332031 147.609375 Z M 275.332031 124.359375 " clip-rule="nonzero"/></clipPath><clipPath id="32a33635c3"><path d="M 287.136719 124.359375 C 280.617188 124.359375 275.332031 129.648438 275.332031 136.167969 C 275.332031 142.6875 280.617188 147.972656 287.136719 147.972656 C 293.65625 147.972656 298.945312 142.6875 298.945312 136.167969 C 298.945312 129.648438 293.65625 124.359375 287.136719 124.359375 Z M 287.136719 124.359375 " clip-rule="nonzero"/></clipPath><clipPath id="260437a650"><path d="M 80.582031 158.507812 L 105.5 158.507812 L 105.5 180.746094 L 80.582031 180.746094 Z M 80.582031 158.507812 " clip-rule="nonzero"/></clipPath><clipPath id="1566558d15"><path d="M 83.582031 158.507812 L 102.5 158.507812 C 103.296875 158.507812 104.058594 158.820312 104.625 159.382812 C 105.1875 159.949219 105.5 160.710938 105.5 161.507812 L 105.5 177.746094 C 105.5 178.542969 105.1875 179.304688 104.625 179.867188 C 104.058594 180.429688 103.296875 180.746094 102.5 180.746094 L 83.582031 180.746094 C 82.785156 180.746094 82.023438 180.429688 81.460938 179.867188 C 80.898438 179.304688 80.582031 178.542969 80.582031 177.746094 L 80.582031 161.507812 C 80.582031 160.710938 80.898438 159.949219 81.460938 159.382812 C 82.023438 158.820312 82.785156 158.507812 83.582031 158.507812 Z M 83.582031 158.507812 " clip-rule="nonzero"/></clipPath><clipPath id="9b5d1d01fb"><path d="M 80.582031 158.507812 L 105.109375 158.507812 L 105.109375 180.660156 L 80.582031 180.660156 Z M 80.582031 158.507812 " clip-rule="nonzero"/></clipPath><clipPath id="7e49c3992d"><path d="M 83.582031 158.507812 L 102.492188 158.507812 C 103.289062 158.507812 104.050781 158.824219 104.613281 159.386719 C 105.175781 159.949219 105.492188 160.714844 105.492188 161.507812 L 105.492188 177.742188 C 105.492188 178.539062 105.175781 179.300781 104.613281 179.863281 C 104.050781 180.425781 103.289062 180.742188 102.492188 180.742188 L 83.582031 180.742188 C 82.785156 180.742188 82.023438 180.425781 81.460938 179.863281 C 80.898438 179.300781 80.582031 178.539062 80.582031 177.742188 L 80.582031 161.507812 C 80.582031 160.714844 80.898438 159.949219 81.460938 159.386719 C 82.023438 158.824219 82.785156 158.507812 83.582031 158.507812 Z M 83.582031 158.507812 " clip-rule="nonzero"/></clipPath><clipPath id="6b3f5387df"><path d="M 119.199219 158.507812 L 144.117188 158.507812 L 144.117188 180.746094 L 119.199219 180.746094 Z M 119.199219 158.507812 " clip-rule="nonzero"/></clipPath><clipPath id="5a4238498b"><path d="M 122.199219 158.507812 L 141.117188 158.507812 C 141.914062 158.507812 142.675781 158.820312 143.238281 159.382812 C 143.800781 159.949219 144.117188 160.710938 144.117188 161.507812 L 144.117188 177.746094 C 144.117188 178.542969 143.800781 179.304688 143.238281 179.867188 C 142.675781 180.429688 141.914062 180.746094 141.117188 180.746094 L 122.199219 180.746094 C 121.402344 180.746094 120.640625 180.429688 120.078125 179.867188 C 119.515625 179.304688 119.199219 178.542969 119.199219 177.746094 L 119.199219 161.507812 C 119.199219 160.710938 119.515625 159.949219 120.078125 159.382812 C 120.640625 158.820312 121.402344 158.507812 122.199219 158.507812 Z M 122.199219 158.507812 " clip-rule="nonzero"/></clipPath><clipPath id="f4693ae514"><path d="M 119.199219 158.507812 L 143.726562 158.507812 L 143.726562 180.660156 L 119.199219 180.660156 Z M 119.199219 158.507812 " clip-rule="nonzero"/></clipPath><clipPath id="ca844b2984"><path d="M 122.199219 158.507812 L 141.109375 158.507812 C 141.90625 158.507812 142.667969 158.824219 143.230469 159.386719 C 143.792969 159.949219 144.109375 160.714844 144.109375 161.507812 L 144.109375 177.742188 C 144.109375 178.539062 143.792969 179.300781 143.230469 179.863281 C 142.667969 180.425781 141.90625 180.742188 141.109375 180.742188 L 122.199219 180.742188 C 121.402344 180.742188 120.640625 180.425781 120.078125 179.863281 C 119.515625 179.300781 119.199219 178.539062 119.199219 177.742188 L 119.199219 161.507812 C 119.199219 160.714844 119.515625 159.949219 120.078125 159.386719 C 120.640625 158.824219 121.402344 158.507812 122.199219 158.507812 Z M 122.199219 158.507812 " clip-rule="nonzero"/></clipPath><clipPath id="5dbe0a54f3"><path d="M 157.816406 158.507812 L 182.734375 158.507812 L 182.734375 180.746094 L 157.816406 180.746094 Z M 157.816406 158.507812 " clip-rule="nonzero"/></clipPath><clipPath id="ff832ea10b"><path d="M 160.816406 158.507812 L 179.734375 158.507812 C 180.53125 158.507812 181.292969 158.820312 181.855469 159.382812 C 182.417969 159.949219 182.734375 160.710938 182.734375 161.507812 L 182.734375 177.746094 C 182.734375 178.542969 182.417969 179.304688 181.855469 179.867188 C 181.292969 180.429688 180.53125 180.746094 179.734375 180.746094 L 160.816406 180.746094 C 160.019531 180.746094 159.257812 180.429688 158.695312 179.867188 C 158.132812 179.304688 157.816406 178.542969 157.816406 177.746094 L 157.816406 161.507812 C 157.816406 160.710938 158.132812 159.949219 158.695312 159.382812 C 159.257812 158.820312 160.019531 158.507812 160.816406 158.507812 Z M 160.816406 158.507812 " clip-rule="nonzero"/></clipPath><clipPath id="aeb80adb34"><path d="M 157.816406 158.507812 L 182.34375 158.507812 L 182.34375 180.660156 L 157.816406 180.660156 Z M 157.816406 158.507812 " clip-rule="nonzero"/></clipPath><clipPath id="6229b602d1"><path d="M 160.8125 158.507812 L 179.726562 158.507812 C 180.523438 158.507812 181.285156 158.824219 181.847656 159.386719 C 182.410156 159.949219 182.726562 160.714844 182.726562 161.507812 L 182.726562 177.742188 C 182.726562 178.539062 182.410156 179.300781 181.847656 179.863281 C 181.285156 180.425781 180.523438 180.742188 179.726562 180.742188 L 160.8125 180.742188 C 160.019531 180.742188 159.257812 180.425781 158.695312 179.863281 C 158.132812 179.300781 157.816406 178.539062 157.816406 177.742188 L 157.816406 161.507812 C 157.816406 160.714844 158.132812 159.949219 158.695312 159.386719 C 159.257812 158.824219 160.019531 158.507812 160.8125 158.507812 Z M 160.8125 158.507812 " clip-rule="nonzero"/></clipPath><clipPath id="6d5c3fc0cd"><path d="M 196.433594 158.507812 L 221.351562 158.507812 L 221.351562 180.746094 L 196.433594 180.746094 Z M 196.433594 158.507812 " clip-rule="nonzero"/></clipPath><clipPath id="48e143f6f9"><path d="M 199.433594 158.507812 L 218.351562 158.507812 C 219.148438 158.507812 219.910156 158.820312 220.472656 159.382812 C 221.035156 159.949219 221.351562 160.710938 221.351562 161.507812 L 221.351562 177.746094 C 221.351562 178.542969 221.035156 179.304688 220.472656 179.867188 C 219.910156 180.429688 219.148438 180.746094 218.351562 180.746094 L 199.433594 180.746094 C 198.636719 180.746094 197.875 180.429688 197.3125 179.867188 C 196.75 179.304688 196.433594 178.542969 196.433594 177.746094 L 196.433594 161.507812 C 196.433594 160.710938 196.75 159.949219 197.3125 159.382812 C 197.875 158.820312 198.636719 158.507812 199.433594 158.507812 Z M 199.433594 158.507812 " clip-rule="nonzero"/></clipPath><clipPath id="5c2b0b0a20"><path d="M 196.433594 158.507812 L 220.957031 158.507812 L 220.957031 180.660156 L 196.433594 180.660156 Z M 196.433594 158.507812 " clip-rule="nonzero"/></clipPath><clipPath id="47bb05acde"><path d="M 199.429688 158.507812 L 218.34375 158.507812 C 219.136719 158.507812 219.902344 158.824219 220.464844 159.386719 C 221.027344 159.949219 221.34375 160.714844 221.34375 161.507812 L 221.34375 177.742188 C 221.34375 178.539062 221.027344 179.300781 220.464844 179.863281 C 219.902344 180.425781 219.136719 180.742188 218.34375 180.742188 L 199.429688 180.742188 C 198.636719 180.742188 197.871094 180.425781 197.3125 179.863281 C 196.75 179.300781 196.433594 178.539062 196.433594 177.742188 L 196.433594 161.507812 C 196.433594 160.714844 196.75 159.949219 197.3125 159.386719 C 197.871094 158.824219 198.636719 158.507812 199.429688 158.507812 Z M 199.429688 158.507812 " clip-rule="nonzero"/></clipPath><clipPath id="5f326db4f6"><path d="M 235.050781 158.507812 L 259.96875 158.507812 L 259.96875 180.746094 L 235.050781 180.746094 Z M 235.050781 158.507812 " clip-rule="nonzero"/></clipPath><clipPath id="cc01eca20b"><path d="M 238.050781 158.507812 L 256.96875 158.507812 C 257.765625 158.507812 258.527344 158.820312 259.089844 159.382812 C 259.652344 159.949219 259.96875 160.710938 259.96875 161.507812 L 259.96875 177.746094 C 259.96875 178.542969 259.652344 179.304688 259.089844 179.867188 C 258.527344 180.429688 257.765625 180.746094 256.96875 180.746094 L 238.050781 180.746094 C 237.253906 180.746094 236.492188 180.429688 235.929688 179.867188 C 235.363281 179.304688 235.050781 178.542969 235.050781 177.746094 L 235.050781 161.507812 C 235.050781 160.710938 235.363281 159.949219 235.929688 159.382812 C 236.492188 158.820312 237.253906 158.507812 238.050781 158.507812 Z M 238.050781 158.507812 " clip-rule="nonzero"/></clipPath><clipPath id="9d6150689e"><path d="M 235.050781 158.507812 L 259.574219 158.507812 L 259.574219 180.660156 L 235.050781 180.660156 Z M 235.050781 158.507812 " clip-rule="nonzero"/></clipPath><clipPath id="6e6599b3ad"><path d="M 238.046875 158.507812 L 256.960938 158.507812 C 257.753906 158.507812 258.519531 158.824219 259.082031 159.386719 C 259.644531 159.949219 259.957031 160.714844 259.957031 161.507812 L 259.957031 177.742188 C 259.957031 178.539062 259.644531 179.300781 259.082031 179.863281 C 258.519531 180.425781 257.753906 180.742188 256.960938 180.742188 L 238.046875 180.742188 C 237.253906 180.742188 236.488281 180.425781 235.925781 179.863281 C 235.363281 179.300781 235.050781 178.539062 235.050781 177.742188 L 235.050781 161.507812 C 235.050781 160.714844 235.363281 159.949219 235.925781 159.386719 C 236.488281 158.824219 237.253906 158.507812 238.046875 158.507812 Z M 238.046875 158.507812 " clip-rule="nonzero"/></clipPath><clipPath id="1656e5cbc9"><path d="M 273.566406 158.507812 L 298.488281 158.507812 L 298.488281 180.746094 L 273.566406 180.746094 Z M 273.566406 158.507812 " clip-rule="nonzero"/></clipPath><clipPath id="7752fac2b7"><path d="M 276.566406 158.507812 L 295.488281 158.507812 C 296.28125 158.507812 297.046875 158.820312 297.609375 159.382812 C 298.171875 159.949219 298.488281 160.710938 298.488281 161.507812 L 298.488281 177.746094 C 298.488281 178.542969 298.171875 179.304688 297.609375 179.867188 C 297.046875 180.429688 296.28125 180.746094 295.488281 180.746094 L 276.566406 180.746094 C 275.769531 180.746094 275.007812 180.429688 274.445312 179.867188 C 273.882812 179.304688 273.566406 178.542969 273.566406 177.746094 L 273.566406 161.507812 C 273.566406 160.710938 273.882812 159.949219 274.445312 159.382812 C 275.007812 158.820312 275.769531 158.507812 276.566406 158.507812 Z M 276.566406 158.507812 " clip-rule="nonzero"/></clipPath><clipPath id="74d3b2b6c1"><path d="M 273.566406 158.507812 L 298.09375 158.507812 L 298.09375 180.660156 L 273.566406 180.660156 Z M 273.566406 158.507812 " clip-rule="nonzero"/></clipPath><clipPath id="8ea1113f52"><path d="M 276.566406 158.507812 L 295.476562 158.507812 C 296.273438 158.507812 297.035156 158.824219 297.597656 159.386719 C 298.160156 159.949219 298.476562 160.714844 298.476562 161.507812 L 298.476562 177.742188 C 298.476562 178.539062 298.160156 179.300781 297.597656 179.863281 C 297.035156 180.425781 296.273438 180.742188 295.476562 180.742188 L 276.566406 180.742188 C 275.769531 180.742188 275.007812 180.425781 274.445312 179.863281 C 273.882812 179.300781 273.566406 178.539062 273.566406 177.742188 L 273.566406 161.507812 C 273.566406 160.714844 273.882812 159.949219 274.445312 159.386719 C 275.007812 158.824219 275.769531 158.507812 276.566406 158.507812 Z M 276.566406 158.507812 " clip-rule="nonzero"/></clipPath><clipPath id="f7314ea342"><path d="M 273.566406 192.296875 L 298.488281 192.296875 L 298.488281 214.539062 L 273.566406 214.539062 Z M 273.566406 192.296875 " clip-rule="nonzero"/></clipPath><clipPath id="c6163b64fb"><path d="M 276.566406 192.296875 L 295.488281 192.296875 C 296.28125 192.296875 297.046875 192.613281 297.609375 193.175781 C 298.171875 193.738281 298.488281 194.503906 298.488281 195.296875 L 298.488281 211.539062 C 298.488281 212.335938 298.171875 213.097656 297.609375 213.660156 C 297.046875 214.222656 296.28125 214.539062 295.488281 214.539062 L 276.566406 214.539062 C 275.769531 214.539062 275.007812 214.222656 274.445312 213.660156 C 273.882812 213.097656 273.566406 212.335938 273.566406 211.539062 L 273.566406 195.296875 C 273.566406 194.503906 273.882812 193.738281 274.445312 193.175781 C 275.007812 192.613281 275.769531 192.296875 276.566406 192.296875 Z M 276.566406 192.296875 " clip-rule="nonzero"/></clipPath><clipPath id="848aff2b91"><path d="M 273.566406 192.300781 L 298.09375 192.300781 L 298.09375 214.449219 L 273.566406 214.449219 Z M 273.566406 192.300781 " clip-rule="nonzero"/></clipPath><clipPath id="1c89bdbb67"><path d="M 276.566406 192.300781 L 295.476562 192.300781 C 296.273438 192.300781 297.035156 192.617188 297.597656 193.179688 C 298.160156 193.742188 298.476562 194.503906 298.476562 195.300781 L 298.476562 211.535156 C 298.476562 212.332031 298.160156 213.09375 297.597656 213.65625 C 297.035156 214.21875 296.273438 214.535156 295.476562 214.535156 L 276.566406 214.535156 C 275.769531 214.535156 275.007812 214.21875 274.445312 213.65625 C 273.882812 213.09375 273.566406 212.332031 273.566406 211.535156 L 273.566406 195.300781 C 273.566406 194.503906 273.882812 193.742188 274.445312 193.179688 C 275.007812 192.617188 275.769531 192.300781 276.566406 192.300781 Z M 276.566406 192.300781 " clip-rule="nonzero"/></clipPath><clipPath id="f71d4e8fa7"><path d="M 234.949219 192.296875 L 260.070312 192.296875 L 260.070312 214.539062 L 234.949219 214.539062 Z M 234.949219 192.296875 " clip-rule="nonzero"/></clipPath><clipPath id="04c21395d2"><path d="M 237.949219 192.296875 L 257.070312 192.296875 C 257.863281 192.296875 258.628906 192.613281 259.191406 193.175781 C 259.753906 193.738281 260.070312 194.503906 260.070312 195.296875 L 260.070312 211.539062 C 260.070312 212.335938 259.753906 213.097656 259.191406 213.660156 C 258.628906 214.222656 257.863281 214.539062 257.070312 214.539062 L 237.949219 214.539062 C 237.152344 214.539062 236.390625 214.222656 235.828125 213.660156 C 235.265625 213.097656 234.949219 212.335938 234.949219 211.539062 L 234.949219 195.296875 C 234.949219 194.503906 235.265625 193.738281 235.828125 193.175781 C 236.390625 192.613281 237.152344 192.296875 237.949219 192.296875 Z M 237.949219 192.296875 " clip-rule="nonzero"/></clipPath><clipPath id="557d13ee19"><path d="M 234.949219 192.300781 L 260.265625 192.300781 L 260.265625 214.449219 L 234.949219 214.449219 Z M 234.949219 192.300781 " clip-rule="nonzero"/></clipPath><clipPath id="bcb199c817"><path d="M 237.949219 192.300781 L 257.058594 192.300781 C 257.855469 192.300781 258.617188 192.617188 259.179688 193.179688 C 259.742188 193.742188 260.058594 194.503906 260.058594 195.300781 L 260.058594 211.535156 C 260.058594 212.328125 259.742188 213.09375 259.179688 213.65625 C 258.617188 214.21875 257.855469 214.535156 257.058594 214.535156 L 237.949219 214.535156 C 237.152344 214.535156 236.390625 214.21875 235.828125 213.65625 C 235.265625 213.09375 234.949219 212.328125 234.949219 211.535156 L 234.949219 195.300781 C 234.949219 194.503906 235.265625 193.742188 235.828125 193.179688 C 236.390625 192.617188 237.152344 192.300781 237.949219 192.300781 Z M 237.949219 192.300781 " clip-rule="nonzero"/></clipPath><clipPath id="b7502890b2"><path d="M 196.332031 192.296875 L 221.453125 192.296875 L 221.453125 214.539062 L 196.332031 214.539062 Z M 196.332031 192.296875 " clip-rule="nonzero"/></clipPath><clipPath id="047754631f"><path d="M 199.332031 192.296875 L 218.453125 192.296875 C 219.246094 192.296875 220.011719 192.613281 220.574219 193.175781 C 221.136719 193.738281 221.453125 194.503906 221.453125 195.296875 L 221.453125 211.539062 C 221.453125 212.335938 221.136719 213.097656 220.574219 213.660156 C 220.011719 214.222656 219.246094 214.539062 218.453125 214.539062 L 199.332031 214.539062 C 198.539062 214.539062 197.773438 214.222656 197.210938 213.660156 C 196.648438 213.097656 196.332031 212.335938 196.332031 211.539062 L 196.332031 195.296875 C 196.332031 194.503906 196.648438 193.738281 197.210938 193.175781 C 197.773438 192.613281 198.539062 192.296875 199.332031 192.296875 Z M 199.332031 192.296875 " clip-rule="nonzero"/></clipPath><clipPath id="80e9fd4f5b"><path d="M 196.332031 192.300781 L 221.652344 192.300781 L 221.652344 214.449219 L 196.332031 214.449219 Z M 196.332031 192.300781 " clip-rule="nonzero"/></clipPath><clipPath id="5557f15747"><path d="M 199.332031 192.300781 L 218.441406 192.300781 C 219.238281 192.300781 220 192.617188 220.5625 193.179688 C 221.125 193.742188 221.441406 194.503906 221.441406 195.300781 L 221.441406 211.535156 C 221.441406 212.328125 221.125 213.09375 220.5625 213.65625 C 220 214.21875 219.238281 214.535156 218.441406 214.535156 L 199.332031 214.535156 C 198.535156 214.535156 197.773438 214.21875 197.210938 213.65625 C 196.648438 213.09375 196.332031 212.328125 196.332031 211.535156 L 196.332031 195.300781 C 196.332031 194.503906 196.648438 193.742188 197.210938 193.179688 C 197.773438 192.617188 198.535156 192.300781 199.332031 192.300781 Z M 199.332031 192.300781 " clip-rule="nonzero"/></clipPath><clipPath id="336a2dd8c2"><path d="M 157.714844 192.296875 L 182.835938 192.296875 L 182.835938 214.539062 L 157.714844 214.539062 Z M 157.714844 192.296875 " clip-rule="nonzero"/></clipPath><clipPath id="8a2067aa22"><path d="M 160.714844 192.296875 L 179.835938 192.296875 C 180.628906 192.296875 181.394531 192.613281 181.957031 193.175781 C 182.519531 193.738281 182.835938 194.503906 182.835938 195.296875 L 182.835938 211.539062 C 182.835938 212.335938 182.519531 213.097656 181.957031 213.660156 C 181.394531 214.222656 180.628906 214.539062 179.835938 214.539062 L 160.714844 214.539062 C 159.921875 214.539062 159.15625 214.222656 158.59375 213.660156 C 158.03125 213.097656 157.714844 212.335938 157.714844 211.539062 L 157.714844 195.296875 C 157.714844 194.503906 158.03125 193.738281 158.59375 193.175781 C 159.15625 192.613281 159.921875 192.296875 160.714844 192.296875 Z M 160.714844 192.296875 " clip-rule="nonzero"/></clipPath><clipPath id="ffef0ff9dd"><path d="M 157.714844 192.300781 L 183 192.300781 L 183 214.449219 L 157.714844 214.449219 Z M 157.714844 192.300781 " clip-rule="nonzero"/></clipPath><clipPath id="3f6000f05c"><path d="M 160.714844 192.300781 L 179.824219 192.300781 C 180.621094 192.300781 181.382812 192.617188 181.945312 193.179688 C 182.507812 193.742188 182.824219 194.503906 182.824219 195.300781 L 182.824219 211.535156 C 182.824219 212.328125 182.507812 213.09375 181.945312 213.65625 C 181.382812 214.21875 180.621094 214.535156 179.824219 214.535156 L 160.714844 214.535156 C 159.917969 214.535156 159.15625 214.21875 158.59375 213.65625 C 158.03125 213.09375 157.714844 212.328125 157.714844 211.535156 L 157.714844 195.300781 C 157.714844 194.503906 158.03125 193.742188 158.59375 193.179688 C 159.15625 192.617188 159.917969 192.300781 160.714844 192.300781 Z M 160.714844 192.300781 " clip-rule="nonzero"/></clipPath><clipPath id="43a33ff5aa"><path d="M 119.097656 192.296875 L 144.21875 192.296875 L 144.21875 214.539062 L 119.097656 214.539062 Z M 119.097656 192.296875 " clip-rule="nonzero"/></clipPath><clipPath id="7d335d5d51"><path d="M 122.097656 192.296875 L 141.21875 192.296875 C 142.011719 192.296875 142.777344 192.613281 143.339844 193.175781 C 143.902344 193.738281 144.21875 194.503906 144.21875 195.296875 L 144.21875 211.539062 C 144.21875 212.335938 143.902344 213.097656 143.339844 213.660156 C 142.777344 214.222656 142.011719 214.539062 141.21875 214.539062 L 122.097656 214.539062 C 121.304688 214.539062 120.539062 214.222656 119.976562 213.660156 C 119.414062 213.097656 119.097656 212.335938 119.097656 211.539062 L 119.097656 195.296875 C 119.097656 194.503906 119.414062 193.738281 119.976562 193.175781 C 120.539062 192.613281 121.304688 192.296875 122.097656 192.296875 Z M 122.097656 192.296875 " clip-rule="nonzero"/></clipPath><clipPath id="66bf2d658c"><path d="M 119.097656 192.300781 L 144.417969 192.300781 L 144.417969 214.449219 L 119.097656 214.449219 Z M 119.097656 192.300781 " clip-rule="nonzero"/></clipPath><clipPath id="f37f362806"><path d="M 122.097656 192.300781 L 141.207031 192.300781 C 142.003906 192.300781 142.765625 192.617188 143.328125 193.179688 C 143.890625 193.742188 144.207031 194.503906 144.207031 195.300781 L 144.207031 211.535156 C 144.207031 212.328125 143.890625 213.09375 143.328125 213.65625 C 142.765625 214.21875 142.003906 214.535156 141.207031 214.535156 L 122.097656 214.535156 C 121.300781 214.535156 120.539062 214.21875 119.976562 213.65625 C 119.414062 213.09375 119.097656 212.328125 119.097656 211.535156 L 119.097656 195.300781 C 119.097656 194.503906 119.414062 193.742188 119.976562 193.179688 C 120.539062 192.617188 121.300781 192.300781 122.097656 192.300781 Z M 122.097656 192.300781 " clip-rule="nonzero"/></clipPath><clipPath id="5177cc49c4"><path d="M 80.484375 192.296875 L 105.601562 192.296875 L 105.601562 214.539062 L 80.484375 214.539062 Z M 80.484375 192.296875 " clip-rule="nonzero"/></clipPath><clipPath id="777cc47aab"><path d="M 83.484375 192.296875 L 102.601562 192.296875 C 103.398438 192.296875 104.160156 192.613281 104.722656 193.175781 C 105.285156 193.738281 105.601562 194.503906 105.601562 195.296875 L 105.601562 211.539062 C 105.601562 212.335938 105.285156 213.097656 104.722656 213.660156 C 104.160156 214.222656 103.398438 214.539062 102.601562 214.539062 L 83.484375 214.539062 C 82.6875 214.539062 81.921875 214.222656 81.359375 213.660156 C 80.796875 213.097656 80.484375 212.335938 80.484375 211.539062 L 80.484375 195.296875 C 80.484375 194.503906 80.796875 193.738281 81.359375 193.175781 C 81.921875 192.613281 82.6875 192.296875 83.484375 192.296875 Z M 83.484375 192.296875 " clip-rule="nonzero"/></clipPath><clipPath id="f4e60489fc"><path d="M 80.484375 192.300781 L 105.800781 192.300781 L 105.800781 214.449219 L 80.484375 214.449219 Z M 80.484375 192.300781 " clip-rule="nonzero"/></clipPath><clipPath id="6573787273"><path d="M 83.480469 192.300781 L 102.589844 192.300781 C 103.386719 192.300781 104.148438 192.617188 104.710938 193.179688 C 105.273438 193.742188 105.589844 194.503906 105.589844 195.300781 L 105.589844 211.535156 C 105.589844 212.328125 105.273438 213.09375 104.710938 213.65625 C 104.148438 214.21875 103.386719 214.535156 102.589844 214.535156 L 83.480469 214.535156 C 82.6875 214.535156 81.921875 214.21875 81.359375 213.65625 C 80.796875 213.09375 80.484375 212.328125 80.484375 211.535156 L 80.484375 195.300781 C 80.484375 194.503906 80.796875 193.742188 81.359375 193.179688 C 81.921875 192.617188 82.6875 192.300781 83.480469 192.300781 Z M 83.480469 192.300781 " clip-rule="nonzero"/></clipPath></defs><g clip-path="url(#a83aac60eb)"><g clip-path="url(#2653b70aff)"><path stroke-linecap="butt" transform="matrix(0.75, 0, 0, 0.75, 38.433386, 37.966755)" fill="none" stroke-linejoin="miter" d="M 23.000279 -0.00254869 L 375.750302 -0.00254869 C 381.849261 -0.00254869 387.698219 2.424535 392.015928 6.737035 C 396.328428 11.049535 398.750304 16.898494 398.750304 22.997453 L 398.750304 375.752684 C 398.750304 381.851643 396.328428 387.700602 392.015928 392.013102 C 387.698219 396.325602 381.849261 398.747477 375.750302 398.747477 L 23.000279 398.747477 C 16.90132 398.747477 11.047153 396.325602 6.734653 392.013102 C 2.422153 387.700602 0.000277352 381.851643 0.000277352 375.752684 L 0.000277352 22.997453 C 0.000277352 16.898494 2.422153 11.049535 6.734653 6.737035 C 11.047153 2.424535 16.90132 -0.00254869 23.000279 -0.00254869 Z M 23.000279 -0.00254869 " stroke="#7d0a0a" stroke-width="10" stroke-opacity="1" stroke-miterlimit="4"/></g></g><g clip-path="url(#117d37af09)"><g clip-path="url(#b88b2c45ad)"><path fill="#7d0a0a" d="M 61.765625 116.707031 L 313.234375 116.707031 L 313.234375 258.292969 L 61.765625 258.292969 Z M 61.765625 116.707031 " fill-opacity="1" fill-rule="nonzero"/></g></g><g clip-path="url(#8fede5a847)"><g clip-path="url(#0edd00ca81)"><path stroke-linecap="butt" transform="matrix(0.75, 0, 0, 0.75, 61.764413, 116.708856)" fill="none" stroke-linejoin="miter" d="M 23.001616 -0.00243238 L 312.282866 -0.00243238 C 318.381825 -0.00243238 324.230783 2.424651 328.543283 6.737151 C 332.855783 11.049651 335.282866 16.898609 335.282866 22.997568 L 335.282866 165.77361 C 335.282866 171.877776 332.855783 177.726735 328.543283 182.039235 C 324.230783 186.351735 318.381825 188.77361 312.282866 188.77361 L 23.001616 188.77361 C 16.897449 188.77361 11.048491 186.351735 6.735991 182.039235 C 2.423491 177.726735 0.00161567 171.877776 0.00161567 165.77361 L 0.00161567 22.997568 C 0.00161567 16.898609 2.423491 11.049651 6.735991 6.737151 C 11.048491 2.424651 16.897449 -0.00243238 23.001616 -0.00243238 Z M 23.001616 -0.00243238 " stroke="#000000" stroke-width="8" stroke-opacity="1" stroke-miterlimit="4"/></g></g><g clip-path="url(#491054b60f)"><g clip-path="url(#3b69a99857)"><path fill="#030712" d="M 116.277344 124.359375 L 139.898438 124.359375 L 139.898438 147.984375 L 116.277344 147.984375 Z M 116.277344 124.359375 " fill-opacity="1" fill-rule="nonzero"/></g></g><g clip-path="url(#e4307ea143)"><g clip-path="url(#7fa15229ae)"><path stroke-linecap="butt" transform="matrix(0.75, 0, 0, 0.75, 116.276834, 124.360833)" fill="none" stroke-linejoin="miter" d="M 15.740263 -0.00194351 C 7.047555 -0.00194351 0.000680114 7.05014 0.000680114 15.742848 C 0.000680114 24.435557 7.047555 31.482432 15.740263 31.482432 C 24.43818 31.482432 31.485055 24.435557 31.485055 15.742848 C 31.485055 7.05014 24.43818 -0.00194351 15.740263 -0.00194351 Z M 15.740263 -0.00194351 " stroke="#7d0a0a" stroke-width="2" stroke-opacity="1" stroke-miterlimit="4"/></g></g><g clip-path="url(#2596192c38)"><g clip-path="url(#9b00b3fa15)"><path fill="#030712" d="M 76.511719 124.359375 L 100.136719 124.359375 L 100.136719 147.984375 L 76.511719 147.984375 Z M 76.511719 124.359375 " fill-opacity="1" fill-rule="nonzero"/></g></g><g clip-path="url(#42027057e9)"><g clip-path="url(#1db5ee4d3f)"><path stroke-linecap="butt" transform="matrix(0.75, 0, 0, 0.75, 76.513521, 124.360833)" fill="none" stroke-linejoin="miter" d="M 15.742389 -0.00194351 C 7.04968 -0.00194351 -0.0024031 7.05014 -0.0024031 15.742848 C -0.0024031 24.435557 7.04968 31.482432 15.742389 31.482432 C 24.435097 31.482432 31.481972 24.435557 31.481972 15.742848 C 31.481972 7.05014 24.435097 -0.00194351 15.742389 -0.00194351 Z M 15.742389 -0.00194351 " stroke="#7d0a0a" stroke-width="2" stroke-opacity="1" stroke-miterlimit="4"/></g></g><g clip-path="url(#66d6367390)"><g clip-path="url(#73be6b8dfd)"><path fill="#030712" d="M 156.039062 124.359375 L 179.664062 124.359375 L 179.664062 147.984375 L 156.039062 147.984375 Z M 156.039062 124.359375 " fill-opacity="1" fill-rule="nonzero"/></g></g><g clip-path="url(#33990997f0)"><g clip-path="url(#f8341a6064)"><path stroke-linecap="butt" transform="matrix(0.75, 0, 0, 0.75, 156.040146, 124.360833)" fill="none" stroke-linejoin="miter" d="M 15.743347 -0.00194351 C 7.04543 -0.00194351 -0.001445 7.05014 -0.001445 15.742848 C -0.001445 24.435557 7.04543 31.482432 15.743347 31.482432 C 24.436055 31.482432 31.48293 24.435557 31.48293 15.742848 C 31.48293 7.05014 24.436055 -0.00194351 15.743347 -0.00194351 Z M 15.743347 -0.00194351 " stroke="#7d0a0a" stroke-width="2" stroke-opacity="1" stroke-miterlimit="4"/></g></g><g clip-path="url(#dbcf061e37)"><g clip-path="url(#abb6e808d2)"><path fill="#030712" d="M 195.804688 124.359375 L 219.425781 124.359375 L 219.425781 147.984375 L 195.804688 147.984375 Z M 195.804688 124.359375 " fill-opacity="1" fill-rule="nonzero"/></g></g><g clip-path="url(#2a66606246)"><g clip-path="url(#c1a9c8da29)"><path stroke-linecap="butt" transform="matrix(0.75, 0, 0, 0.75, 195.803459, 124.360833)" fill="none" stroke-linejoin="miter" d="M 15.741222 -0.00194351 C 7.048513 -0.00194351 0.00163821 7.05014 0.00163821 15.742848 C 0.00163821 24.435557 7.048513 31.482432 15.741222 31.482432 C 24.43393 31.482432 31.486013 24.435557 31.486013 15.742848 C 31.486013 7.05014 24.43393 -0.00194351 15.741222 -0.00194351 Z M 15.741222 -0.00194351 " stroke="#7d0a0a" stroke-width="2" stroke-opacity="1" stroke-miterlimit="4"/></g></g><g clip-path="url(#c264429a6d)"><g clip-path="url(#1a9b84b653)"><path fill="#030712" d="M 235.566406 124.359375 L 259.191406 124.359375 L 259.191406 147.984375 L 235.566406 147.984375 Z M 235.566406 124.359375 " fill-opacity="1" fill-rule="nonzero"/></g></g><g clip-path="url(#ff2099f29e)"><g clip-path="url(#d93c3066f9)"><path stroke-linecap="butt" transform="matrix(0.75, 0, 0, 0.75, 235.566771, 124.360833)" fill="none" stroke-linejoin="miter" d="M 15.744305 -0.00194351 C 7.046388 -0.00194351 -0.000486908 7.05014 -0.000486908 15.742848 C -0.000486908 24.435557 7.046388 31.482432 15.744305 31.482432 C 24.437013 31.482432 31.483888 24.435557 31.483888 15.742848 C 31.483888 7.05014 24.437013 -0.00194351 15.744305 -0.00194351 Z M 15.744305 -0.00194351 " stroke="#7d0a0a" stroke-width="2" stroke-opacity="1" stroke-miterlimit="4"/></g></g><g clip-path="url(#b4755d00c1)"><g clip-path="url(#a6586a247a)"><path fill="#7d0a0a" d="M 76.511719 222.144531 L 298.488281 222.144531 L 298.488281 243.230469 L 76.511719 243.230469 Z M 76.511719 222.144531 " fill-opacity="1" fill-rule="nonzero"/></g></g><g clip-path="url(#d5eaad60d4)"><g clip-path="url(#30b18fe941)"><path stroke-linecap="butt" transform="matrix(0.75, 0, 0, 0.75, 76.518455, 222.145416)" fill="none" stroke-linejoin="miter" d="M 5.001435 -0.00117942 L 290.938953 -0.00117942 C 292.267079 -0.00117942 293.537912 0.524862 294.475412 1.462362 C 295.412912 2.399862 295.938954 3.675904 295.938954 4.998821 L 295.938954 23.108197 C 295.938954 24.436322 295.412912 25.707156 294.475412 26.644656 C 293.537912 27.582156 292.267079 28.108197 290.938953 28.108197 L 5.001435 28.108197 C 3.67331 28.108197 2.402476 27.582156 1.464976 26.644656 C 0.527476 25.707156 0.00143437 24.436322 0.00143437 23.108197 L 0.00143437 4.998821 C 0.00143437 3.675904 0.527476 2.399862 1.464976 1.462362 C 2.402476 0.524862 3.67331 -0.00117942 5.001435 -0.00117942 Z M 5.001435 -0.00117942 " stroke="#030712" stroke-width="6" stroke-opacity="1" stroke-miterlimit="4"/></g></g><g clip-path="url(#913e0d59d8)"><g clip-path="url(#e2eb714c04)"><path fill="#030712" d="M 275.332031 124.359375 L 298.953125 124.359375 L 298.953125 147.984375 L 275.332031 147.984375 Z M 275.332031 124.359375 " fill-opacity="1" fill-rule="nonzero"/></g></g><g clip-path="url(#a04ce59d3d)"><g clip-path="url(#32a33635c3)"><path stroke-linecap="butt" transform="matrix(0.75, 0, 0, 0.75, 275.330084, 124.360833)" fill="none" stroke-linejoin="miter" d="M 15.74218 -0.00194351 C 7.049471 -0.00194351 0.00259631 7.05014 0.00259631 15.742848 C 0.00259631 24.435557 7.049471 31.482432 15.74218 31.482432 C 24.434888 31.482432 31.486971 24.435557 31.486971 15.742848 C 31.486971 7.05014 24.434888 -0.00194351 15.74218 -0.00194351 Z M 15.74218 -0.00194351 " stroke="#7d0a0a" stroke-width="2" stroke-opacity="1" stroke-miterlimit="4"/></g></g><g clip-path="url(#260437a650)"><g clip-path="url(#1566558d15)"><path fill="#030712" d="M 80.582031 158.507812 L 105.5 158.507812 L 105.5 180.746094 L 80.582031 180.746094 Z M 80.582031 158.507812 " fill-opacity="1" fill-rule="nonzero"/></g></g><g clip-path="url(#9b5d1d01fb)"><g clip-path="url(#7e49c3992d)"><path stroke-linecap="butt" transform="matrix(0.791172, 0, 0, 0.791172, 80.581852, 158.509706)" fill="none" stroke-linejoin="miter" d="M 3.792068 -0.00239277 L 27.693507 -0.00239277 C 28.700714 -0.00239277 29.663487 0.397528 30.374457 1.108498 C 31.085427 1.819469 31.485348 2.787178 31.485348 3.789449 L 31.485348 24.308841 C 31.485348 25.316049 31.085427 26.278821 30.374457 26.989792 C 29.663487 27.700762 28.700714 28.100683 27.693507 28.100683 L 3.792068 28.100683 C 2.78486 28.100683 1.822088 27.700762 1.111118 26.989792 C 0.400147 26.278821 0.000226552 25.316049 0.000226552 24.308841 L 0.000226552 3.789449 C 0.000226552 2.787178 0.400147 1.819469 1.111118 1.108498 C 1.822088 0.397528 2.78486 -0.00239277 3.792068 -0.00239277 Z M 3.792068 -0.00239277 " stroke="#7d0a0a" stroke-width="1.895921" stroke-opacity="1" stroke-miterlimit="4"/></g></g><g clip-path="url(#6b3f5387df)"><g clip-path="url(#5a4238498b)"><path fill="#030712" d="M 119.199219 158.507812 L 144.117188 158.507812 L 144.117188 180.746094 L 119.199219 180.746094 Z M 119.199219 158.507812 " fill-opacity="1" fill-rule="nonzero"/></g></g><g clip-path="url(#f4693ae514)"><g clip-path="url(#ca844b2984)"><path stroke-linecap="butt" transform="matrix(0.791172, 0, 0, 0.791172, 119.198682, 158.509706)" fill="none" stroke-linejoin="miter" d="M 3.79252 -0.00239277 L 27.693958 -0.00239277 C 28.701166 -0.00239277 29.663938 0.397528 30.374909 1.108498 C 31.085879 1.819469 31.4858 2.787178 31.4858 3.789449 L 31.4858 24.308841 C 31.4858 25.316049 31.085879 26.278821 30.374909 26.989792 C 29.663938 27.700762 28.701166 28.100683 27.693958 28.100683 L 3.79252 28.100683 C 2.785312 28.100683 1.822539 27.700762 1.111569 26.989792 C 0.400599 26.278821 0.000678079 25.316049 0.000678079 24.308841 L 0.000678079 3.789449 C 0.000678079 2.787178 0.400599 1.819469 1.111569 1.108498 C 1.822539 0.397528 2.785312 -0.00239277 3.79252 -0.00239277 Z M 3.79252 -0.00239277 " stroke="#7d0a0a" stroke-width="1.895921" stroke-opacity="1" stroke-miterlimit="4"/></g></g><g clip-path="url(#5dbe0a54f3)"><g clip-path="url(#ff832ea10b)"><path fill="#030712" d="M 157.816406 158.507812 L 182.734375 158.507812 L 182.734375 180.746094 L 157.816406 180.746094 Z M 157.816406 158.507812 " fill-opacity="1" fill-rule="nonzero"/></g></g><g clip-path="url(#aeb80adb34)"><g clip-path="url(#6229b602d1)"><path stroke-linecap="butt" transform="matrix(0.791172, 0, 0, 0.791172, 157.815508, 158.509706)" fill="none" stroke-linejoin="miter" d="M 3.78804 -0.00239277 L 27.694416 -0.00239277 C 28.701624 -0.00239277 29.664396 0.397528 30.375366 1.108498 C 31.086336 1.819469 31.486257 2.787178 31.486257 3.789449 L 31.486257 24.308841 C 31.486257 25.316049 31.086336 26.278821 30.375366 26.989792 C 29.664396 27.700762 28.701624 28.100683 27.694416 28.100683 L 3.78804 28.100683 C 2.785769 28.100683 1.822997 27.700762 1.112027 26.989792 C 0.401056 26.278821 0.00113567 25.316049 0.00113567 24.308841 L 0.00113567 3.789449 C 0.00113567 2.787178 0.401056 1.819469 1.112027 1.108498 C 1.822997 0.397528 2.785769 -0.00239277 3.78804 -0.00239277 Z M 3.78804 -0.00239277 " stroke="#7d0a0a" stroke-width="1.895921" stroke-opacity="1" stroke-miterlimit="4"/></g></g><g clip-path="url(#6d5c3fc0cd)"><g clip-path="url(#48e143f6f9)"><path fill="#030712" d="M 196.433594 158.507812 L 221.351562 158.507812 L 221.351562 180.746094 L 196.433594 180.746094 Z M 196.433594 158.507812 " fill-opacity="1" fill-rule="nonzero"/></g></g><g clip-path="url(#5c2b0b0a20)"><g clip-path="url(#47bb05acde)"><path stroke-linecap="butt" transform="matrix(0.791172, 0, 0, 0.791172, 196.432345, 158.509706)" fill="none" stroke-linejoin="miter" d="M 3.788482 -0.00239277 L 27.694858 -0.00239277 C 28.697129 -0.00239277 29.664838 0.397528 30.375809 1.108498 C 31.086779 1.819469 31.4867 2.787178 31.4867 3.789449 L 31.4867 24.308841 C 31.4867 25.316049 31.086779 26.278821 30.375809 26.989792 C 29.664838 27.700762 28.697129 28.100683 27.694858 28.100683 L 3.788482 28.100683 C 2.786212 28.100683 1.818502 27.700762 1.112469 26.989792 C 0.401499 26.278821 0.0015781 25.316049 0.0015781 24.308841 L 0.0015781 3.789449 C 0.0015781 2.787178 0.401499 1.819469 1.112469 1.108498 C 1.818502 0.397528 2.786212 -0.00239277 3.788482 -0.00239277 Z M 3.788482 -0.00239277 " stroke="#7d0a0a" stroke-width="1.895921" stroke-opacity="1" stroke-miterlimit="4"/></g></g><g clip-path="url(#5f326db4f6)"><g clip-path="url(#cc01eca20b)"><path fill="#030712" d="M 235.050781 158.507812 L 259.96875 158.507812 L 259.96875 180.746094 L 235.050781 180.746094 Z M 235.050781 158.507812 " fill-opacity="1" fill-rule="nonzero"/></g></g><g clip-path="url(#9d6150689e)"><g clip-path="url(#6e6599b3ad)"><path stroke-linecap="butt" transform="matrix(0.791172, 0, 0, 0.791172, 235.049154, 158.509706)" fill="none" stroke-linejoin="miter" d="M 3.788961 -0.00239277 L 27.695337 -0.00239277 C 28.697608 -0.00239277 29.665317 0.397528 30.376287 1.108498 C 31.087258 1.819469 31.482241 2.787178 31.482241 3.789449 L 31.482241 24.308841 C 31.482241 25.316049 31.087258 26.278821 30.376287 26.989792 C 29.665317 27.700762 28.697608 28.100683 27.695337 28.100683 L 3.788961 28.100683 C 2.786691 28.100683 1.818981 27.700762 1.108011 26.989792 C 0.39704 26.278821 0.00205693 25.316049 0.00205693 24.308841 L 0.00205693 3.789449 C 0.00205693 2.787178 0.39704 1.819469 1.108011 1.108498 C 1.818981 0.397528 2.786691 -0.00239277 3.788961 -0.00239277 Z M 3.788961 -0.00239277 " stroke="#7d0a0a" stroke-width="1.895921" stroke-opacity="1" stroke-miterlimit="4"/></g></g><g clip-path="url(#1656e5cbc9)"><g clip-path="url(#7752fac2b7)"><path fill="#030712" d="M 273.566406 158.507812 L 298.488281 158.507812 L 298.488281 180.746094 L 273.566406 180.746094 Z M 273.566406 158.507812 " fill-opacity="1" fill-rule="nonzero"/></g></g><g clip-path="url(#74d3b2b6c1)"><g clip-path="url(#8ea1113f52)"><path stroke-linecap="butt" transform="matrix(0.791172, 0, 0, 0.791172, 273.566617, 158.509706)" fill="none" stroke-linejoin="miter" d="M 3.791575 -0.00239277 L 27.693014 -0.00239277 C 28.700222 -0.00239277 29.662994 0.397528 30.373964 1.108498 C 31.084934 1.819469 31.484855 2.787178 31.484855 3.789449 L 31.484855 24.308841 C 31.484855 25.316049 31.084934 26.278821 30.373964 26.989792 C 29.662994 27.700762 28.700222 28.100683 27.693014 28.100683 L 3.791575 28.100683 C 2.784367 28.100683 1.821595 27.700762 1.110625 26.989792 C 0.399654 26.278821 -0.000266296 25.316049 -0.000266296 24.308841 L -0.000266296 3.789449 C -0.000266296 2.787178 0.399654 1.819469 1.110625 1.108498 C 1.821595 0.397528 2.784367 -0.00239277 3.791575 -0.00239277 Z M 3.791575 -0.00239277 " stroke="#7d0a0a" stroke-width="1.895921" stroke-opacity="1" stroke-miterlimit="4"/></g></g><g clip-path="url(#f7314ea342)"><g clip-path="url(#c6163b64fb)"><path fill="#030712" d="M 273.566406 192.296875 L 298.488281 192.296875 L 298.488281 214.539062 L 273.566406 214.539062 Z M 273.566406 192.296875 " fill-opacity="1" fill-rule="nonzero"/></g></g><g clip-path="url(#848aff2b91)"><g clip-path="url(#1c89bdbb67)"><path stroke-linecap="butt" transform="matrix(0.791172, 0, 0, 0.791172, 273.566617, 192.301847)" fill="none" stroke-linejoin="miter" d="M 3.791575 -0.00134752 L 27.693014 -0.00134752 C 28.700222 -0.00134752 29.662994 0.398573 30.373964 1.109544 C 31.084934 1.820514 31.484855 2.783286 31.484855 3.790494 L 31.484855 24.309886 C 31.484855 25.317094 31.084934 26.279866 30.373964 26.990837 C 29.662994 27.701807 28.700222 28.101728 27.693014 28.101728 L 3.791575 28.101728 C 2.784367 28.101728 1.821595 27.701807 1.110625 26.990837 C 0.399654 26.279866 -0.000266296 25.317094 -0.000266296 24.309886 L -0.000266296 3.790494 C -0.000266296 2.783286 0.399654 1.820514 1.110625 1.109544 C 1.821595 0.398573 2.784367 -0.00134752 3.791575 -0.00134752 Z M 3.791575 -0.00134752 " stroke="#7d0a0a" stroke-width="1.895921" stroke-opacity="1" stroke-miterlimit="4"/></g></g><g clip-path="url(#f71d4e8fa7)"><g clip-path="url(#04c21395d2)"><path fill="#030712" d="M 234.949219 192.296875 L 260.070312 192.296875 L 260.070312 214.539062 L 234.949219 214.539062 Z M 234.949219 192.296875 " fill-opacity="1" fill-rule="nonzero"/></g></g><g clip-path="url(#557d13ee19)"><g clip-path="url(#bcb199c817)"><path stroke-linecap="butt" transform="matrix(0.791172, 0, 0, 0.791172, 234.949779, 192.302258)" fill="none" stroke-linejoin="miter" d="M 3.791133 -0.00186625 L 27.944376 -0.00186625 C 28.951584 -0.00186625 29.914356 0.398055 30.625326 1.109025 C 31.336297 1.819995 31.736218 2.782768 31.736218 3.789976 L 31.736218 24.30937 C 31.736218 25.311641 31.336297 26.27935 30.625326 26.990321 C 29.914356 27.701291 28.951584 28.101212 27.944376 28.101212 L 3.791133 28.101212 C 2.783925 28.101212 1.821153 27.701291 1.110182 26.990321 C 0.399212 26.27935 -0.000708723 25.311641 -0.000708723 24.30937 L -0.000708723 3.789976 C -0.000708723 2.782768 0.399212 1.819995 1.110182 1.109025 C 1.821153 0.398055 2.783925 -0.00186625 3.791133 -0.00186625 Z M 3.791133 -0.00186625 " stroke="#7d0a0a" stroke-width="1.895921" stroke-opacity="1" stroke-miterlimit="4"/></g></g><g clip-path="url(#b7502890b2)"><g clip-path="url(#047754631f)"><path fill="#030712" d="M 196.332031 192.296875 L 221.453125 192.296875 L 221.453125 214.539062 L 196.332031 214.539062 Z M 196.332031 192.296875 " fill-opacity="1" fill-rule="nonzero"/></g></g><g clip-path="url(#80e9fd4f5b)"><g clip-path="url(#5557f15747)"><path stroke-linecap="butt" transform="matrix(0.791172, 0, 0, 0.791172, 196.332896, 192.302258)" fill="none" stroke-linejoin="miter" d="M 3.790748 -0.00186625 L 27.943991 -0.00186625 C 28.951199 -0.00186625 29.913971 0.398055 30.624942 1.109025 C 31.335912 1.819995 31.735833 2.782768 31.735833 3.789976 L 31.735833 24.30937 C 31.735833 25.311641 31.335912 26.27935 30.624942 26.990321 C 29.913971 27.701291 28.951199 28.101212 27.943991 28.101212 L 3.790748 28.101212 C 2.78354 28.101212 1.820768 27.701291 1.109798 26.990321 C 0.398827 26.27935 -0.00109351 25.311641 -0.00109351 24.30937 L -0.00109351 3.789976 C -0.00109351 2.782768 0.398827 1.819995 1.109798 1.109025 C 1.820768 0.398055 2.78354 -0.00186625 3.790748 -0.00186625 Z M 3.790748 -0.00186625 " stroke="#7d0a0a" stroke-width="1.895921" stroke-opacity="1" stroke-miterlimit="4"/></g></g><g clip-path="url(#336a2dd8c2)"><g clip-path="url(#8a2067aa22)"><path fill="#030712" d="M 157.714844 192.296875 L 182.835938 192.296875 L 182.835938 214.539062 L 157.714844 214.539062 Z M 157.714844 192.296875 " fill-opacity="1" fill-rule="nonzero"/></g></g><g clip-path="url(#ffef0ff9dd)"><g clip-path="url(#3f6000f05c)"><path stroke-linecap="butt" transform="matrix(0.791172, 0, 0, 0.791172, 157.716102, 192.302258)" fill="none" stroke-linejoin="miter" d="M 3.790251 -0.00186625 L 27.943494 -0.00186625 C 28.950702 -0.00186625 29.913474 0.398055 30.624445 1.109025 C 31.335415 1.819995 31.735336 2.782768 31.735336 3.789976 L 31.735336 24.30937 C 31.735336 25.311641 31.335415 26.27935 30.624445 26.990321 C 29.913474 27.701291 28.950702 28.101212 27.943494 28.101212 L 3.790251 28.101212 C 2.783043 28.101212 1.820271 27.701291 1.109301 26.990321 C 0.39833 26.27935 -0.00159054 25.311641 -0.00159054 24.30937 L -0.00159054 3.789976 C -0.00159054 2.782768 0.39833 1.819995 1.109301 1.109025 C 1.820271 0.398055 2.783043 -0.00186625 3.790251 -0.00186625 Z M 3.790251 -0.00186625 " stroke="#7d0a0a" stroke-width="1.895921" stroke-opacity="1" stroke-miterlimit="4"/></g></g><g clip-path="url(#43a33ff5aa)"><g clip-path="url(#7d335d5d51)"><path fill="#030712" d="M 119.097656 192.296875 L 144.21875 192.296875 L 144.21875 214.539062 L 119.097656 214.539062 Z M 119.097656 192.296875 " fill-opacity="1" fill-rule="nonzero"/></g></g><g clip-path="url(#66bf2d658c)"><g clip-path="url(#f37f362806)"><path stroke-linecap="butt" transform="matrix(0.791172, 0, 0, 0.791172, 119.099279, 192.302258)" fill="none" stroke-linejoin="miter" d="M 3.789791 -0.00186625 L 27.943033 -0.00186625 C 28.950241 -0.00186625 29.913014 0.398055 30.623984 1.109025 C 31.334954 1.819995 31.734875 2.782768 31.734875 3.789976 L 31.734875 24.30937 C 31.734875 25.311641 31.334954 26.27935 30.623984 26.990321 C 29.913014 27.701291 28.950241 28.101212 27.943033 28.101212 L 3.789791 28.101212 C 2.782583 28.101212 1.81981 27.701291 1.10884 26.990321 C 0.39787 26.27935 -0.00205117 25.311641 -0.00205117 24.30937 L -0.00205117 3.789976 C -0.00205117 2.782768 0.39787 1.819995 1.10884 1.109025 C 1.81981 0.398055 2.782583 -0.00186625 3.789791 -0.00186625 Z M 3.789791 -0.00186625 " stroke="#7d0a0a" stroke-width="1.895921" stroke-opacity="1" stroke-miterlimit="4"/></g></g><g clip-path="url(#5177cc49c4)"><g clip-path="url(#777cc47aab)"><path fill="#030712" d="M 80.484375 192.296875 L 105.601562 192.296875 L 105.601562 214.539062 L 80.484375 214.539062 Z M 80.484375 192.296875 " fill-opacity="1" fill-rule="nonzero"/></g></g><g clip-path="url(#f4e60489fc)"><g clip-path="url(#6573787273)"><path stroke-linecap="butt" transform="matrix(0.791172, 0, 0, 0.791172, 80.482449, 192.302258)" fill="none" stroke-linejoin="miter" d="M 3.789339 -0.00186625 L 27.942582 -0.00186625 C 28.94979 -0.00186625 29.912562 0.398055 30.623533 1.109025 C 31.334503 1.819995 31.734424 2.782768 31.734424 3.789976 L 31.734424 24.30937 C 31.734424 25.311641 31.334503 26.27935 30.623533 26.990321 C 29.912562 27.701291 28.94979 28.101212 27.942582 28.101212 L 3.789339 28.101212 C 2.787068 28.101212 1.819359 27.701291 1.108388 26.990321 C 0.397418 26.27935 0.0024346 25.311641 0.0024346 24.30937 L 0.0024346 3.789976 C 0.0024346 2.782768 0.397418 1.819995 1.108388 1.109025 C 1.819359 0.398055 2.787068 -0.00186625 3.789339 -0.00186625 Z M 3.789339 -0.00186625 " stroke="#7d0a0a" stroke-width="1.895921" stroke-opacity="1" stroke-miterlimit="4"/></g></g></svg>