<svg xmlns="http://www.w3.org/2000/svg" xmlns:xlink="http://www.w3.org/1999/xlink" width="500" zoomAndPan="magnify" viewBox="0 0 375 374.999991" height="500" preserveAspectRatio="xMidYMid meet" version="1.0"><defs><clipPath id="96d7a7e7ef"><path d="M 38.433594 37.964844 L 337.5 37.964844 L 337.5 337.035156 L 38.433594 337.035156 Z M 38.433594 37.964844 " clip-rule="nonzero"/></clipPath><clipPath id="8bdab346b2"><path d="M 55.683594 37.964844 L 320.25 37.964844 C 324.824219 37.964844 329.210938 39.785156 332.449219 43.019531 C 335.683594 46.253906 337.5 50.640625 337.5 55.214844 L 337.5 319.785156 C 337.5 324.359375 335.683594 328.746094 332.449219 331.980469 C 329.210938 335.214844 324.824219 337.035156 320.25 337.035156 L 55.683594 337.035156 C 51.109375 337.035156 46.722656 335.214844 43.484375 331.980469 C 40.25 328.746094 38.433594 324.359375 38.433594 319.785156 L 38.433594 55.214844 C 38.433594 50.640625 40.25 46.253906 43.484375 43.019531 C 46.722656 39.785156 51.109375 37.964844 55.683594 37.964844 Z M 55.683594 37.964844 " clip-rule="nonzero"/></clipPath><clipPath id="2c979a8a54"><path d="M 61.765625 116.707031 L 313.234375 116.707031 L 313.234375 258.292969 L 61.765625 258.292969 Z M 61.765625 116.707031 " clip-rule="nonzero"/></clipPath><clipPath id="bb399a55f1"><path d="M 79.015625 116.707031 L 295.984375 116.707031 C 300.5625 116.707031 304.949219 118.523438 308.183594 121.757812 C 311.417969 124.992188 313.234375 129.382812 313.234375 133.957031 L 313.234375 241.042969 C 313.234375 245.617188 311.417969 250.007812 308.183594 253.242188 C 304.949219 256.476562 300.5625 258.292969 295.984375 258.292969 L 79.015625 258.292969 C 74.4375 258.292969 70.050781 256.476562 66.816406 253.242188 C 63.582031 250.007812 61.765625 245.617188 61.765625 241.042969 L 61.765625 133.957031 C 61.765625 129.382812 63.582031 124.992188 66.816406 121.757812 C 70.050781 118.523438 74.4375 116.707031 79.015625 116.707031 Z M 79.015625 116.707031 " clip-rule="nonzero"/></clipPath><clipPath id="5c547f4982"><path d="M 116.277344 124.359375 L 139.898438 124.359375 L 139.898438 147.984375 L 116.277344 147.984375 Z M 116.277344 124.359375 " clip-rule="nonzero"/></clipPath><clipPath id="4ff10a8867"><path d="M 128.089844 124.359375 C 121.566406 124.359375 116.277344 129.648438 116.277344 136.171875 C 116.277344 142.695312 121.566406 147.984375 128.089844 147.984375 C 134.613281 147.984375 139.898438 142.695312 139.898438 136.171875 C 139.898438 129.648438 134.613281 124.359375 128.089844 124.359375 Z M 128.089844 124.359375 " clip-rule="nonzero"/></clipPath><clipPath id="7ffa7485ee"><path d="M 76.511719 124.359375 L 100.136719 124.359375 L 100.136719 147.984375 L 76.511719 147.984375 Z M 76.511719 124.359375 " clip-rule="nonzero"/></clipPath><clipPath id="6133b05df4"><path d="M 88.324219 124.359375 C 81.800781 124.359375 76.511719 129.648438 76.511719 136.171875 C 76.511719 142.695312 81.800781 147.984375 88.324219 147.984375 C 94.847656 147.984375 100.136719 142.695312 100.136719 136.171875 C 100.136719 129.648438 94.847656 124.359375 88.324219 124.359375 Z M 88.324219 124.359375 " clip-rule="nonzero"/></clipPath><clipPath id="e2ca6cb9ae"><path d="M 156.039062 124.359375 L 179.664062 124.359375 L 179.664062 147.984375 L 156.039062 147.984375 Z M 156.039062 124.359375 " clip-rule="nonzero"/></clipPath><clipPath id="bade85275f"><path d="M 167.851562 124.359375 C 161.328125 124.359375 156.039062 129.648438 156.039062 136.171875 C 156.039062 142.695312 161.328125 147.984375 167.851562 147.984375 C 174.375 147.984375 179.664062 142.695312 179.664062 136.171875 C 179.664062 129.648438 174.375 124.359375 167.851562 124.359375 Z M 167.851562 124.359375 " clip-rule="nonzero"/></clipPath><clipPath id="44599f3bab"><path d="M 195.804688 124.359375 L 219.425781 124.359375 L 219.425781 147.984375 L 195.804688 147.984375 Z M 195.804688 124.359375 " clip-rule="nonzero"/></clipPath><clipPath id="f6c4ba2f2d"><path d="M 207.613281 124.359375 C 201.089844 124.359375 195.804688 129.648438 195.804688 136.171875 C 195.804688 142.695312 201.089844 147.984375 207.613281 147.984375 C 214.136719 147.984375 219.425781 142.695312 219.425781 136.171875 C 219.425781 129.648438 214.136719 124.359375 207.613281 124.359375 Z M 207.613281 124.359375 " clip-rule="nonzero"/></clipPath><clipPath id="89e176e908"><path d="M 235.566406 124.359375 L 259.191406 124.359375 L 259.191406 147.984375 L 235.566406 147.984375 Z M 235.566406 124.359375 " clip-rule="nonzero"/></clipPath><clipPath id="8809d8b92d"><path d="M 247.378906 124.359375 C 240.855469 124.359375 235.566406 129.648438 235.566406 136.171875 C 235.566406 142.695312 240.855469 147.984375 247.378906 147.984375 C 253.902344 147.984375 259.191406 142.695312 259.191406 136.171875 C 259.191406 129.648438 253.902344 124.359375 247.378906 124.359375 Z M 247.378906 124.359375 " clip-rule="nonzero"/></clipPath><clipPath id="1f05d5310a"><path d="M 76.511719 222.144531 L 298.488281 222.144531 L 298.488281 243.230469 L 76.511719 243.230469 Z M 76.511719 222.144531 " clip-rule="nonzero"/></clipPath><clipPath id="e65d188db6"><path d="M 80.261719 222.144531 L 294.738281 222.144531 C 295.730469 222.144531 296.683594 222.539062 297.386719 223.242188 C 298.089844 223.945312 298.488281 224.902344 298.488281 225.894531 L 298.488281 239.480469 C 298.488281 240.472656 298.089844 241.425781 297.386719 242.128906 C 296.683594 242.835938 295.730469 243.230469 294.738281 243.230469 L 80.261719 243.230469 C 79.269531 243.230469 78.316406 242.835938 77.613281 242.128906 C 76.910156 241.425781 76.511719 240.472656 76.511719 239.480469 L 76.511719 225.894531 C 76.511719 224.902344 76.910156 223.945312 77.613281 223.242188 C 78.316406 222.539062 79.269531 222.144531 80.261719 222.144531 Z M 80.261719 222.144531 " clip-rule="nonzero"/></clipPath><clipPath id="7e2fd34cc3"><path d="M 275.332031 124.359375 L 298.953125 124.359375 L 298.953125 147.984375 L 275.332031 147.984375 Z M 275.332031 124.359375 " clip-rule="nonzero"/></clipPath><clipPath id="2cfb3b16e7"><path d="M 287.140625 124.359375 C 280.617188 124.359375 275.332031 129.648438 275.332031 136.171875 C 275.332031 142.695312 280.617188 147.984375 287.140625 147.984375 C 293.664062 147.984375 298.953125 142.695312 298.953125 136.171875 C 298.953125 129.648438 293.664062 124.359375 287.140625 124.359375 Z M 287.140625 124.359375 " clip-rule="nonzero"/></clipPath><clipPath id="50d2f40499"><path d="M 80.582031 158.507812 L 105.5 158.507812 L 105.5 180.746094 L 80.582031 180.746094 Z M 80.582031 158.507812 " clip-rule="nonzero"/></clipPath><clipPath id="ab027bc6d5"><path d="M 83.582031 158.507812 L 102.5 158.507812 C 103.296875 158.507812 104.058594 158.820312 104.625 159.382812 C 105.1875 159.949219 105.5 160.710938 105.5 161.507812 L 105.5 177.746094 C 105.5 178.542969 105.1875 179.304688 104.625 179.867188 C 104.058594 180.429688 103.296875 180.746094 102.5 180.746094 L 83.582031 180.746094 C 82.785156 180.746094 82.023438 180.429688 81.460938 179.867188 C 80.898438 179.304688 80.582031 178.542969 80.582031 177.746094 L 80.582031 161.507812 C 80.582031 160.710938 80.898438 159.949219 81.460938 159.382812 C 82.023438 158.820312 82.785156 158.507812 83.582031 158.507812 Z M 83.582031 158.507812 " clip-rule="nonzero"/></clipPath><clipPath id="84f42847f2"><path d="M 119.199219 158.507812 L 144.117188 158.507812 L 144.117188 180.746094 L 119.199219 180.746094 Z M 119.199219 158.507812 " clip-rule="nonzero"/></clipPath><clipPath id="a1c8459e89"><path d="M 122.199219 158.507812 L 141.117188 158.507812 C 141.914062 158.507812 142.675781 158.820312 143.238281 159.382812 C 143.800781 159.949219 144.117188 160.710938 144.117188 161.507812 L 144.117188 177.746094 C 144.117188 178.542969 143.800781 179.304688 143.238281 179.867188 C 142.675781 180.429688 141.914062 180.746094 141.117188 180.746094 L 122.199219 180.746094 C 121.402344 180.746094 120.640625 180.429688 120.078125 179.867188 C 119.515625 179.304688 119.199219 178.542969 119.199219 177.746094 L 119.199219 161.507812 C 119.199219 160.710938 119.515625 159.949219 120.078125 159.382812 C 120.640625 158.820312 121.402344 158.507812 122.199219 158.507812 Z M 122.199219 158.507812 " clip-rule="nonzero"/></clipPath><clipPath id="ddd4987fa5"><path d="M 157.816406 158.507812 L 182.734375 158.507812 L 182.734375 180.746094 L 157.816406 180.746094 Z M 157.816406 158.507812 " clip-rule="nonzero"/></clipPath><clipPath id="71e3b916d0"><path d="M 160.816406 158.507812 L 179.734375 158.507812 C 180.53125 158.507812 181.292969 158.820312 181.855469 159.382812 C 182.417969 159.949219 182.734375 160.710938 182.734375 161.507812 L 182.734375 177.746094 C 182.734375 178.542969 182.417969 179.304688 181.855469 179.867188 C 181.292969 180.429688 180.53125 180.746094 179.734375 180.746094 L 160.816406 180.746094 C 160.019531 180.746094 159.257812 180.429688 158.695312 179.867188 C 158.132812 179.304688 157.816406 178.542969 157.816406 177.746094 L 157.816406 161.507812 C 157.816406 160.710938 158.132812 159.949219 158.695312 159.382812 C 159.257812 158.820312 160.019531 158.507812 160.816406 158.507812 Z M 160.816406 158.507812 " clip-rule="nonzero"/></clipPath><clipPath id="0575cb3d0b"><path d="M 196.433594 158.507812 L 221.351562 158.507812 L 221.351562 180.746094 L 196.433594 180.746094 Z M 196.433594 158.507812 " clip-rule="nonzero"/></clipPath><clipPath id="19e0fd16a3"><path d="M 199.433594 158.507812 L 218.351562 158.507812 C 219.148438 158.507812 219.910156 158.820312 220.472656 159.382812 C 221.035156 159.949219 221.351562 160.710938 221.351562 161.507812 L 221.351562 177.746094 C 221.351562 178.542969 221.035156 179.304688 220.472656 179.867188 C 219.910156 180.429688 219.148438 180.746094 218.351562 180.746094 L 199.433594 180.746094 C 198.636719 180.746094 197.875 180.429688 197.3125 179.867188 C 196.75 179.304688 196.433594 178.542969 196.433594 177.746094 L 196.433594 161.507812 C 196.433594 160.710938 196.75 159.949219 197.3125 159.382812 C 197.875 158.820312 198.636719 158.507812 199.433594 158.507812 Z M 199.433594 158.507812 " clip-rule="nonzero"/></clipPath><clipPath id="6116db00d3"><path d="M 235.050781 158.507812 L 259.96875 158.507812 L 259.96875 180.746094 L 235.050781 180.746094 Z M 235.050781 158.507812 " clip-rule="nonzero"/></clipPath><clipPath id="52d4f4a0a3"><path d="M 238.050781 158.507812 L 256.96875 158.507812 C 257.765625 158.507812 258.527344 158.820312 259.089844 159.382812 C 259.652344 159.949219 259.96875 160.710938 259.96875 161.507812 L 259.96875 177.746094 C 259.96875 178.542969 259.652344 179.304688 259.089844 179.867188 C 258.527344 180.429688 257.765625 180.746094 256.96875 180.746094 L 238.050781 180.746094 C 237.253906 180.746094 236.492188 180.429688 235.929688 179.867188 C 235.363281 179.304688 235.050781 178.542969 235.050781 177.746094 L 235.050781 161.507812 C 235.050781 160.710938 235.363281 159.949219 235.929688 159.382812 C 236.492188 158.820312 237.253906 158.507812 238.050781 158.507812 Z M 238.050781 158.507812 " clip-rule="nonzero"/></clipPath><clipPath id="20fc28fd04"><path d="M 273.566406 158.507812 L 298.488281 158.507812 L 298.488281 180.746094 L 273.566406 180.746094 Z M 273.566406 158.507812 " clip-rule="nonzero"/></clipPath><clipPath id="e82b7edbed"><path d="M 276.566406 158.507812 L 295.488281 158.507812 C 296.28125 158.507812 297.046875 158.820312 297.609375 159.382812 C 298.171875 159.949219 298.488281 160.710938 298.488281 161.507812 L 298.488281 177.746094 C 298.488281 178.542969 298.171875 179.304688 297.609375 179.867188 C 297.046875 180.429688 296.28125 180.746094 295.488281 180.746094 L 276.566406 180.746094 C 275.769531 180.746094 275.007812 180.429688 274.445312 179.867188 C 273.882812 179.304688 273.566406 178.542969 273.566406 177.746094 L 273.566406 161.507812 C 273.566406 160.710938 273.882812 159.949219 274.445312 159.382812 C 275.007812 158.820312 275.769531 158.507812 276.566406 158.507812 Z M 276.566406 158.507812 " clip-rule="nonzero"/></clipPath><clipPath id="29baceab03"><path d="M 273.566406 192.296875 L 298.488281 192.296875 L 298.488281 214.539062 L 273.566406 214.539062 Z M 273.566406 192.296875 " clip-rule="nonzero"/></clipPath><clipPath id="43caf703d8"><path d="M 276.566406 192.296875 L 295.488281 192.296875 C 296.28125 192.296875 297.046875 192.613281 297.609375 193.175781 C 298.171875 193.738281 298.488281 194.503906 298.488281 195.296875 L 298.488281 211.539062 C 298.488281 212.335938 298.171875 213.097656 297.609375 213.660156 C 297.046875 214.222656 296.28125 214.539062 295.488281 214.539062 L 276.566406 214.539062 C 275.769531 214.539062 275.007812 214.222656 274.445312 213.660156 C 273.882812 213.097656 273.566406 212.335938 273.566406 211.539062 L 273.566406 195.296875 C 273.566406 194.503906 273.882812 193.738281 274.445312 193.175781 C 275.007812 192.613281 275.769531 192.296875 276.566406 192.296875 Z M 276.566406 192.296875 " clip-rule="nonzero"/></clipPath><clipPath id="2f78864fb6"><path d="M 234.949219 192.296875 L 260.070312 192.296875 L 260.070312 214.539062 L 234.949219 214.539062 Z M 234.949219 192.296875 " clip-rule="nonzero"/></clipPath><clipPath id="b1a4d22284"><path d="M 237.949219 192.296875 L 257.070312 192.296875 C 257.863281 192.296875 258.628906 192.613281 259.191406 193.175781 C 259.753906 193.738281 260.070312 194.503906 260.070312 195.296875 L 260.070312 211.539062 C 260.070312 212.335938 259.753906 213.097656 259.191406 213.660156 C 258.628906 214.222656 257.863281 214.539062 257.070312 214.539062 L 237.949219 214.539062 C 237.152344 214.539062 236.390625 214.222656 235.828125 213.660156 C 235.265625 213.097656 234.949219 212.335938 234.949219 211.539062 L 234.949219 195.296875 C 234.949219 194.503906 235.265625 193.738281 235.828125 193.175781 C 236.390625 192.613281 237.152344 192.296875 237.949219 192.296875 Z M 237.949219 192.296875 " clip-rule="nonzero"/></clipPath><clipPath id="503e78dac5"><path d="M 196.332031 192.296875 L 221.453125 192.296875 L 221.453125 214.539062 L 196.332031 214.539062 Z M 196.332031 192.296875 " clip-rule="nonzero"/></clipPath><clipPath id="5163d9732d"><path d="M 199.332031 192.296875 L 218.453125 192.296875 C 219.246094 192.296875 220.011719 192.613281 220.574219 193.175781 C 221.136719 193.738281 221.453125 194.503906 221.453125 195.296875 L 221.453125 211.539062 C 221.453125 212.335938 221.136719 213.097656 220.574219 213.660156 C 220.011719 214.222656 219.246094 214.539062 218.453125 214.539062 L 199.332031 214.539062 C 198.539062 214.539062 197.773438 214.222656 197.210938 213.660156 C 196.648438 213.097656 196.332031 212.335938 196.332031 211.539062 L 196.332031 195.296875 C 196.332031 194.503906 196.648438 193.738281 197.210938 193.175781 C 197.773438 192.613281 198.539062 192.296875 199.332031 192.296875 Z M 199.332031 192.296875 " clip-rule="nonzero"/></clipPath><clipPath id="a86e1ca882"><path d="M 157.714844 192.296875 L 182.835938 192.296875 L 182.835938 214.539062 L 157.714844 214.539062 Z M 157.714844 192.296875 " clip-rule="nonzero"/></clipPath><clipPath id="dde29d9ff2"><path d="M 160.714844 192.296875 L 179.835938 192.296875 C 180.628906 192.296875 181.394531 192.613281 181.957031 193.175781 C 182.519531 193.738281 182.835938 194.503906 182.835938 195.296875 L 182.835938 211.539062 C 182.835938 212.335938 182.519531 213.097656 181.957031 213.660156 C 181.394531 214.222656 180.628906 214.539062 179.835938 214.539062 L 160.714844 214.539062 C 159.921875 214.539062 159.15625 214.222656 158.59375 213.660156 C 158.03125 213.097656 157.714844 212.335938 157.714844 211.539062 L 157.714844 195.296875 C 157.714844 194.503906 158.03125 193.738281 158.59375 193.175781 C 159.15625 192.613281 159.921875 192.296875 160.714844 192.296875 Z M 160.714844 192.296875 " clip-rule="nonzero"/></clipPath><clipPath id="aa788c8f20"><path d="M 119.097656 192.296875 L 144.21875 192.296875 L 144.21875 214.539062 L 119.097656 214.539062 Z M 119.097656 192.296875 " clip-rule="nonzero"/></clipPath><clipPath id="923c0fda9a"><path d="M 122.097656 192.296875 L 141.21875 192.296875 C 142.011719 192.296875 142.777344 192.613281 143.339844 193.175781 C 143.902344 193.738281 144.21875 194.503906 144.21875 195.296875 L 144.21875 211.539062 C 144.21875 212.335938 143.902344 213.097656 143.339844 213.660156 C 142.777344 214.222656 142.011719 214.539062 141.21875 214.539062 L 122.097656 214.539062 C 121.304688 214.539062 120.539062 214.222656 119.976562 213.660156 C 119.414062 213.097656 119.097656 212.335938 119.097656 211.539062 L 119.097656 195.296875 C 119.097656 194.503906 119.414062 193.738281 119.976562 193.175781 C 120.539062 192.613281 121.304688 192.296875 122.097656 192.296875 Z M 122.097656 192.296875 " clip-rule="nonzero"/></clipPath><clipPath id="768b6392ab"><path d="M 80.484375 192.296875 L 105.601562 192.296875 L 105.601562 214.539062 L 80.484375 214.539062 Z M 80.484375 192.296875 " clip-rule="nonzero"/></clipPath><clipPath id="fe7bbe6070"><path d="M 83.484375 192.296875 L 102.601562 192.296875 C 103.398438 192.296875 104.160156 192.613281 104.722656 193.175781 C 105.285156 193.738281 105.601562 194.503906 105.601562 195.296875 L 105.601562 211.539062 C 105.601562 212.335938 105.285156 213.097656 104.722656 213.660156 C 104.160156 214.222656 103.398438 214.539062 102.601562 214.539062 L 83.484375 214.539062 C 82.6875 214.539062 81.921875 214.222656 81.359375 213.660156 C 80.796875 213.097656 80.484375 212.335938 80.484375 211.539062 L 80.484375 195.296875 C 80.484375 194.503906 80.796875 193.738281 81.359375 193.175781 C 81.921875 192.613281 82.6875 192.296875 83.484375 192.296875 Z M 83.484375 192.296875 " clip-rule="nonzero"/></clipPath></defs><g clip-path="url(#96d7a7e7ef)"><g clip-path="url(#8bdab346b2)"><path fill="#f1c27b" d="M 38.433594 37.964844 L 337.5 37.964844 L 337.5 337.035156 L 38.433594 337.035156 Z M 38.433594 37.964844 " fill-opacity="1" fill-rule="nonzero"/></g></g><g clip-path="url(#2c979a8a54)"><g clip-path="url(#bb399a55f1)"><path fill="#ffd89c" d="M 61.765625 116.707031 L 313.234375 116.707031 L 313.234375 258.292969 L 61.765625 258.292969 Z M 61.765625 116.707031 " fill-opacity="1" fill-rule="nonzero"/></g></g><g clip-path="url(#5c547f4982)"><g clip-path="url(#4ff10a8867)"><path fill="#f1c27b" d="M 116.277344 124.359375 L 139.898438 124.359375 L 139.898438 147.984375 L 116.277344 147.984375 Z M 116.277344 124.359375 " fill-opacity="1" fill-rule="nonzero"/></g></g><g clip-path="url(#7ffa7485ee)"><g clip-path="url(#6133b05df4)"><path fill="#f1c27b" d="M 76.511719 124.359375 L 100.136719 124.359375 L 100.136719 147.984375 L 76.511719 147.984375 Z M 76.511719 124.359375 " fill-opacity="1" fill-rule="nonzero"/></g></g><g clip-path="url(#e2ca6cb9ae)"><g clip-path="url(#bade85275f)"><path fill="#f1c27b" d="M 156.039062 124.359375 L 179.664062 124.359375 L 179.664062 147.984375 L 156.039062 147.984375 Z M 156.039062 124.359375 " fill-opacity="1" fill-rule="nonzero"/></g></g><g clip-path="url(#44599f3bab)"><g clip-path="url(#f6c4ba2f2d)"><path fill="#f1c27b" d="M 195.804688 124.359375 L 219.425781 124.359375 L 219.425781 147.984375 L 195.804688 147.984375 Z M 195.804688 124.359375 " fill-opacity="1" fill-rule="nonzero"/></g></g><g clip-path="url(#89e176e908)"><g clip-path="url(#8809d8b92d)"><path fill="#f1c27b" d="M 235.566406 124.359375 L 259.191406 124.359375 L 259.191406 147.984375 L 235.566406 147.984375 Z M 235.566406 124.359375 " fill-opacity="1" fill-rule="nonzero"/></g></g><g clip-path="url(#1f05d5310a)"><g clip-path="url(#e65d188db6)"><path fill="#f1c27b" d="M 76.511719 222.144531 L 298.488281 222.144531 L 298.488281 243.230469 L 76.511719 243.230469 Z M 76.511719 222.144531 " fill-opacity="1" fill-rule="nonzero"/></g></g><g clip-path="url(#7e2fd34cc3)"><g clip-path="url(#2cfb3b16e7)"><path fill="#f1c27b" d="M 275.332031 124.359375 L 298.953125 124.359375 L 298.953125 147.984375 L 275.332031 147.984375 Z M 275.332031 124.359375 " fill-opacity="1" fill-rule="nonzero"/></g></g><g clip-path="url(#50d2f40499)"><g clip-path="url(#ab027bc6d5)"><path fill="#f1c27b" d="M 80.582031 158.507812 L 105.5 158.507812 L 105.5 180.746094 L 80.582031 180.746094 Z M 80.582031 158.507812 " fill-opacity="1" fill-rule="nonzero"/></g></g><g clip-path="url(#84f42847f2)"><g clip-path="url(#a1c8459e89)"><path fill="#f1c27b" d="M 119.199219 158.507812 L 144.117188 158.507812 L 144.117188 180.746094 L 119.199219 180.746094 Z M 119.199219 158.507812 " fill-opacity="1" fill-rule="nonzero"/></g></g><g clip-path="url(#ddd4987fa5)"><g clip-path="url(#71e3b916d0)"><path fill="#f1c27b" d="M 157.816406 158.507812 L 182.734375 158.507812 L 182.734375 180.746094 L 157.816406 180.746094 Z M 157.816406 158.507812 " fill-opacity="1" fill-rule="nonzero"/></g></g><g clip-path="url(#0575cb3d0b)"><g clip-path="url(#19e0fd16a3)"><path fill="#f1c27b" d="M 196.433594 158.507812 L 221.351562 158.507812 L 221.351562 180.746094 L 196.433594 180.746094 Z M 196.433594 158.507812 " fill-opacity="1" fill-rule="nonzero"/></g></g><g clip-path="url(#6116db00d3)"><g clip-path="url(#52d4f4a0a3)"><path fill="#f1c27b" d="M 235.050781 158.507812 L 259.96875 158.507812 L 259.96875 180.746094 L 235.050781 180.746094 Z M 235.050781 158.507812 " fill-opacity="1" fill-rule="nonzero"/></g></g><g clip-path="url(#20fc28fd04)"><g clip-path="url(#e82b7edbed)"><path fill="#f1c27b" d="M 273.566406 158.507812 L 298.488281 158.507812 L 298.488281 180.746094 L 273.566406 180.746094 Z M 273.566406 158.507812 " fill-opacity="1" fill-rule="nonzero"/></g></g><g clip-path="url(#29baceab03)"><g clip-path="url(#43caf703d8)"><path fill="#f1c27b" d="M 273.566406 192.296875 L 298.488281 192.296875 L 298.488281 214.539062 L 273.566406 214.539062 Z M 273.566406 192.296875 " fill-opacity="1" fill-rule="nonzero"/></g></g><g clip-path="url(#2f78864fb6)"><g clip-path="url(#b1a4d22284)"><path fill="#f1c27b" d="M 234.949219 192.296875 L 260.070312 192.296875 L 260.070312 214.539062 L 234.949219 214.539062 Z M 234.949219 192.296875 " fill-opacity="1" fill-rule="nonzero"/></g></g><g clip-path="url(#503e78dac5)"><g clip-path="url(#5163d9732d)"><path fill="#f1c27b" d="M 196.332031 192.296875 L 221.453125 192.296875 L 221.453125 214.539062 L 196.332031 214.539062 Z M 196.332031 192.296875 " fill-opacity="1" fill-rule="nonzero"/></g></g><g clip-path="url(#a86e1ca882)"><g clip-path="url(#dde29d9ff2)"><path fill="#f1c27b" d="M 157.714844 192.296875 L 182.835938 192.296875 L 182.835938 214.539062 L 157.714844 214.539062 Z M 157.714844 192.296875 " fill-opacity="1" fill-rule="nonzero"/></g></g><g clip-path="url(#aa788c8f20)"><g clip-path="url(#923c0fda9a)"><path fill="#f1c27b" d="M 119.097656 192.296875 L 144.21875 192.296875 L 144.21875 214.539062 L 119.097656 214.539062 Z M 119.097656 192.296875 " fill-opacity="1" fill-rule="nonzero"/></g></g><g clip-path="url(#768b6392ab)"><g clip-path="url(#fe7bbe6070)"><path fill="#f1c27b" d="M 80.484375 192.296875 L 105.601562 192.296875 L 105.601562 214.539062 L 80.484375 214.539062 Z M 80.484375 192.296875 " fill-opacity="1" fill-rule="nonzero"/></g></g></svg>