<svg xmlns="http://www.w3.org/2000/svg" xmlns:xlink="http://www.w3.org/1999/xlink" width="500" zoomAndPan="magnify" viewBox="0 0 375 374.999991" height="500" preserveAspectRatio="xMidYMid meet" version="1.0"><defs><clipPath id="f126ec6f14"><path d="M 38.433594 37.964844 L 337.496094 37.964844 L 337.496094 337.027344 L 38.433594 337.027344 Z M 38.433594 37.964844 " clip-rule="nonzero"/></clipPath><clipPath id="2f4888be33"><path d="M 55.683594 37.964844 L 320.246094 37.964844 C 324.820312 37.964844 329.207031 39.785156 332.445312 43.019531 C 335.679688 46.253906 337.496094 50.640625 337.496094 55.214844 L 337.496094 319.78125 C 337.496094 324.355469 335.679688 328.742188 332.445312 331.976562 C 329.207031 335.210938 324.820312 337.027344 320.246094 337.027344 L 55.683594 337.027344 C 51.109375 337.027344 46.71875 335.210938 43.484375 331.976562 C 40.25 328.742188 38.433594 324.355469 38.433594 319.78125 L 38.433594 55.214844 C 38.433594 50.640625 40.25 46.253906 43.484375 43.019531 C 46.71875 39.785156 51.109375 37.964844 55.683594 37.964844 Z M 55.683594 37.964844 " clip-rule="nonzero"/></clipPath><clipPath id="2c670a3c39"><path d="M 221.234375 125.835938 L 284.617188 125.835938 L 284.617188 189.214844 L 221.234375 189.214844 Z M 221.234375 125.835938 " clip-rule="nonzero"/></clipPath><clipPath id="95778607da"><path d="M 252.925781 125.835938 C 235.421875 125.835938 221.234375 140.023438 221.234375 157.523438 C 221.234375 175.027344 235.421875 189.214844 252.925781 189.214844 C 270.425781 189.214844 284.617188 175.027344 284.617188 157.523438 C 284.617188 140.023438 270.425781 125.835938 252.925781 125.835938 Z M 252.925781 125.835938 " clip-rule="nonzero"/></clipPath><clipPath id="55ab5a32a5"><path d="M 204.582031 195.1875 L 301.867188 195.1875 L 301.867188 297.742188 L 204.582031 297.742188 Z M 204.582031 195.1875 " clip-rule="nonzero"/></clipPath><clipPath id="53595d8542"><path d="M 221.832031 195.1875 L 284.617188 195.1875 C 289.191406 195.1875 293.578125 197.003906 296.8125 200.238281 C 300.050781 203.476562 301.867188 207.863281 301.867188 212.4375 L 301.867188 280.492188 C 301.867188 285.066406 300.050781 289.453125 296.8125 292.6875 C 293.578125 295.925781 289.191406 297.742188 284.617188 297.742188 L 221.832031 297.742188 C 217.257812 297.742188 212.871094 295.925781 209.636719 292.6875 C 206.398438 289.453125 204.582031 285.066406 204.582031 280.492188 L 204.582031 212.4375 C 204.582031 207.863281 206.398438 203.476562 209.636719 200.238281 C 212.871094 197.003906 217.257812 195.1875 221.832031 195.1875 Z M 221.832031 195.1875 " clip-rule="nonzero"/></clipPath><clipPath id="b1a3ad6867"><path d="M 204.582031 195.191406 L 302 195.191406 L 302 297.9375 L 204.582031 297.9375 Z M 204.582031 195.191406 " clip-rule="nonzero"/></clipPath><clipPath id="0392573318"><path d="M 221.832031 195.191406 L 284.609375 195.191406 C 289.1875 195.191406 293.574219 197.007812 296.808594 200.242188 C 300.042969 203.476562 301.859375 207.863281 301.859375 212.4375 L 301.859375 280.488281 C 301.859375 285.0625 300.042969 289.449219 296.808594 292.683594 C 293.574219 295.917969 289.1875 297.738281 284.609375 297.738281 L 221.832031 297.738281 C 217.257812 297.738281 212.871094 295.917969 209.632812 292.683594 C 206.398438 289.449219 204.582031 285.0625 204.582031 280.488281 L 204.582031 212.4375 C 204.582031 207.863281 206.398438 203.476562 209.632812 200.242188 C 212.871094 197.007812 217.257812 195.191406 221.832031 195.191406 Z M 221.832031 195.191406 " clip-rule="nonzero"/></clipPath><clipPath id="ebec02e1a8"><path d="M 155.976562 125.835938 L 219.359375 125.835938 L 219.359375 189.214844 L 155.976562 189.214844 Z M 155.976562 125.835938 " clip-rule="nonzero"/></clipPath><clipPath id="72a922e922"><path d="M 187.667969 125.835938 C 170.167969 125.835938 155.976562 140.023438 155.976562 157.523438 C 155.976562 175.027344 170.167969 189.214844 187.667969 189.214844 C 205.171875 189.214844 219.359375 175.027344 219.359375 157.523438 C 219.359375 140.023438 205.171875 125.835938 187.667969 125.835938 Z M 187.667969 125.835938 " clip-rule="nonzero"/></clipPath><clipPath id="d7409030eb"><path d="M 139.324219 195.1875 L 236.609375 195.1875 L 236.609375 297.742188 L 139.324219 297.742188 Z M 139.324219 195.1875 " clip-rule="nonzero"/></clipPath><clipPath id="cf6853bafa"><path d="M 156.574219 195.1875 L 219.359375 195.1875 C 223.933594 195.1875 228.320312 197.003906 231.554688 200.238281 C 234.792969 203.476562 236.609375 207.863281 236.609375 212.4375 L 236.609375 280.492188 C 236.609375 285.066406 234.792969 289.453125 231.554688 292.6875 C 228.320312 295.925781 223.933594 297.742188 219.359375 297.742188 L 156.574219 297.742188 C 152 297.742188 147.613281 295.925781 144.378906 292.6875 C 141.140625 289.453125 139.324219 285.066406 139.324219 280.492188 L 139.324219 212.4375 C 139.324219 207.863281 141.140625 203.476562 144.378906 200.238281 C 147.613281 197.003906 152 195.1875 156.574219 195.1875 Z M 156.574219 195.1875 " clip-rule="nonzero"/></clipPath><clipPath id="c85f57d244"><path d="M 139.324219 195.191406 L 236.824219 195.191406 L 236.824219 297.9375 L 139.324219 297.9375 Z M 139.324219 195.191406 " clip-rule="nonzero"/></clipPath><clipPath id="4d81198915"><path d="M 156.574219 195.191406 L 219.351562 195.191406 C 223.929688 195.191406 228.316406 197.007812 231.550781 200.242188 C 234.785156 203.476562 236.601562 207.863281 236.601562 212.4375 L 236.601562 280.488281 C 236.601562 285.0625 234.785156 289.449219 231.550781 292.683594 C 228.316406 295.917969 223.929688 297.738281 219.351562 297.738281 L 156.574219 297.738281 C 152 297.738281 147.613281 295.917969 144.375 292.683594 C 141.140625 289.449219 139.324219 285.0625 139.324219 280.488281 L 139.324219 212.4375 C 139.324219 207.863281 141.140625 203.476562 144.375 200.242188 C 147.613281 197.007812 152 195.191406 156.574219 195.191406 Z M 156.574219 195.191406 " clip-rule="nonzero"/></clipPath><clipPath id="b7f4ae95c6"><path d="M 90.5625 125.835938 L 153.941406 125.835938 L 153.941406 189.214844 L 90.5625 189.214844 Z M 90.5625 125.835938 " clip-rule="nonzero"/></clipPath><clipPath id="6b8b5e5bb9"><path d="M 122.253906 125.835938 C 104.75 125.835938 90.5625 140.023438 90.5625 157.523438 C 90.5625 175.027344 104.75 189.214844 122.253906 189.214844 C 139.753906 189.214844 153.941406 175.027344 153.941406 157.523438 C 153.941406 140.023438 139.753906 125.835938 122.253906 125.835938 Z M 122.253906 125.835938 " clip-rule="nonzero"/></clipPath><clipPath id="f1ee666a0b"><path d="M 73.910156 195.1875 L 171.191406 195.1875 L 171.191406 297.742188 L 73.910156 297.742188 Z M 73.910156 195.1875 " clip-rule="nonzero"/></clipPath><clipPath id="79252aa520"><path d="M 91.160156 195.1875 L 153.941406 195.1875 C 158.519531 195.1875 162.90625 197.003906 166.140625 200.238281 C 169.375 203.476562 171.191406 207.863281 171.191406 212.4375 L 171.191406 280.492188 C 171.191406 285.066406 169.375 289.453125 166.140625 292.6875 C 162.90625 295.925781 158.519531 297.742188 153.941406 297.742188 L 91.160156 297.742188 C 86.585938 297.742188 82.195312 295.925781 78.960938 292.6875 C 75.726562 289.453125 73.910156 285.066406 73.910156 280.492188 L 73.910156 212.4375 C 73.910156 207.863281 75.726562 203.476562 78.960938 200.238281 C 82.195312 197.003906 86.585938 195.1875 91.160156 195.1875 Z M 91.160156 195.1875 " clip-rule="nonzero"/></clipPath><clipPath id="d0ad73f348"><path d="M 73.910156 195.191406 L 171.410156 195.191406 L 171.410156 297.9375 L 73.910156 297.9375 Z M 73.910156 195.191406 " clip-rule="nonzero"/></clipPath><clipPath id="2ebced2881"><path d="M 91.15625 195.191406 L 153.9375 195.191406 C 158.511719 195.191406 162.898438 197.007812 166.132812 200.242188 C 169.367188 203.476562 171.1875 207.863281 171.1875 212.4375 L 171.1875 280.488281 C 171.1875 285.0625 169.367188 289.449219 166.132812 292.683594 C 162.898438 295.917969 158.511719 297.738281 153.9375 297.738281 L 91.15625 297.738281 C 86.582031 297.738281 82.195312 295.917969 78.960938 292.683594 C 75.726562 289.449219 73.910156 285.0625 73.910156 280.488281 L 73.910156 212.4375 C 73.910156 207.863281 75.726562 203.476562 78.960938 200.242188 C 82.195312 197.007812 86.582031 195.191406 91.15625 195.191406 Z M 91.15625 195.191406 " clip-rule="nonzero"/></clipPath></defs><g clip-path="url(#f126ec6f14)"><g clip-path="url(#2f4888be33)"><path stroke-linecap="butt" transform="matrix(0.75, 0, 0, 0.75, 38.433386, 37.966755)" fill="none" stroke-linejoin="miter" d="M 23.000279 -0.00254869 L 375.750302 -0.00254869 C 381.849261 -0.00254869 387.698219 2.424535 392.015928 6.737035 C 396.328428 11.049535 398.750304 16.898494 398.750304 22.997453 L 398.750304 375.752684 C 398.750304 381.851643 396.328428 387.700602 392.015928 392.013102 C 387.698219 396.325602 381.849261 398.747477 375.750302 398.747477 L 23.000279 398.747477 C 16.90132 398.747477 11.047153 396.325602 6.734653 392.013102 C 2.422153 387.700602 0.000277352 381.851643 0.000277352 375.752684 L 0.000277352 22.997453 C 0.000277352 16.898494 2.422153 11.049535 6.734653 6.737035 C 11.047153 2.424535 16.90132 -0.00254869 23.000279 -0.00254869 Z M 23.000279 -0.00254869 " stroke="#7d0a0a" stroke-width="10" stroke-opacity="1" stroke-miterlimit="4"/></g></g><g clip-path="url(#2c670a3c39)"><g clip-path="url(#95778607da)"><path fill="#7d0a0a" d="M 221.234375 125.835938 L 284.617188 125.835938 L 284.617188 189.214844 L 221.234375 189.214844 Z M 221.234375 125.835938 " fill-opacity="1" fill-rule="nonzero"/></g></g><g clip-path="url(#55ab5a32a5)"><g clip-path="url(#53595d8542)"><path fill="#7d0a0a" d="M 204.582031 195.1875 L 301.867188 195.1875 L 301.867188 297.742188 L 204.582031 297.742188 Z M 204.582031 195.1875 " fill-opacity="1" fill-rule="nonzero"/></g></g><g clip-path="url(#b1a3ad6867)"><g clip-path="url(#0392573318)"><path stroke-linecap="butt" transform="matrix(0.75, 0, 0, 0.75, 204.582471, 195.189626)" fill="none" stroke-linejoin="miter" d="M 22.999415 0.00237422 L 106.702546 0.00237422 C 112.806713 0.00237422 118.655671 2.424249 122.968172 6.73675 C 127.280672 11.04925 129.702547 16.898209 129.702547 22.997167 L 129.702547 113.731548 C 129.702547 119.830507 127.280672 125.679466 122.968172 129.991966 C 118.655671 134.304466 112.806713 136.73155 106.702546 136.73155 L 22.999415 136.73155 C 16.900456 136.73155 11.051498 134.304466 6.733789 129.991966 C 2.421289 125.679466 -0.000586421 119.830507 -0.000586421 113.731548 L -0.000586421 22.997167 C -0.000586421 16.898209 2.421289 11.04925 6.733789 6.73675 C 11.051498 2.424249 16.900456 0.00237422 22.999415 0.00237422 Z M 22.999415 0.00237422 " stroke="#030712" stroke-width="6" stroke-opacity="1" stroke-miterlimit="4"/></g></g><g clip-path="url(#ebec02e1a8)"><g clip-path="url(#72a922e922)"><path fill="#7d0a0a" d="M 155.976562 125.835938 L 219.359375 125.835938 L 219.359375 189.214844 L 155.976562 189.214844 Z M 155.976562 125.835938 " fill-opacity="1" fill-rule="nonzero"/></g></g><g clip-path="url(#d7409030eb)"><g clip-path="url(#cf6853bafa)"><path fill="#7d0a0a" d="M 139.324219 195.1875 L 236.609375 195.1875 L 236.609375 297.742188 L 139.324219 297.742188 Z M 139.324219 195.1875 " fill-opacity="1" fill-rule="nonzero"/></g></g><g clip-path="url(#c85f57d244)"><g clip-path="url(#4d81198915)"><path stroke-linecap="butt" transform="matrix(0.75, 0, 0, 0.75, 139.324786, 195.189626)" fill="none" stroke-linejoin="miter" d="M 22.999246 0.00237422 L 106.702376 0.00237422 C 112.806543 0.00237422 118.655502 2.424249 122.968002 6.73675 C 127.280502 11.04925 129.702378 16.898209 129.702378 22.997167 L 129.702378 113.731548 C 129.702378 119.830507 127.280502 125.679466 122.968002 129.991966 C 118.655502 134.304466 112.806543 136.73155 106.702376 136.73155 L 22.999246 136.73155 C 16.900287 136.73155 11.051328 134.304466 6.733619 129.991966 C 2.421119 125.679466 -0.000756001 119.830507 -0.000756001 113.731548 L -0.000756001 22.997167 C -0.000756001 16.898209 2.421119 11.04925 6.733619 6.73675 C 11.051328 2.424249 16.900287 0.00237422 22.999246 0.00237422 Z M 22.999246 0.00237422 " stroke="#030712" stroke-width="6" stroke-opacity="1" stroke-miterlimit="4"/></g></g><g clip-path="url(#b7f4ae95c6)"><g clip-path="url(#6b8b5e5bb9)"><path fill="#7d0a0a" d="M 90.5625 125.835938 L 153.941406 125.835938 L 153.941406 189.214844 L 90.5625 189.214844 Z M 90.5625 125.835938 " fill-opacity="1" fill-rule="nonzero"/></g></g><g clip-path="url(#f1ee666a0b)"><g clip-path="url(#79252aa520)"><path fill="#7d0a0a" d="M 73.910156 195.1875 L 171.191406 195.1875 L 171.191406 297.742188 L 73.910156 297.742188 Z M 73.910156 195.1875 " fill-opacity="1" fill-rule="nonzero"/></g></g><g clip-path="url(#d0ad73f348)"><g clip-path="url(#2ebced2881)"><path stroke-linecap="butt" transform="matrix(0.75, 0, 0, 0.75, 73.908976, 195.189626)" fill="none" stroke-linejoin="miter" d="M 22.996366 0.00237422 L 106.704705 0.00237422 C 112.803664 0.00237422 118.652623 2.424249 122.965123 6.73675 C 127.277623 11.04925 129.704707 16.898209 129.704707 22.997167 L 129.704707 113.731548 C 129.704707 119.830507 127.277623 125.679466 122.965123 129.991966 C 118.652623 134.304466 112.803664 136.73155 106.704705 136.73155 L 22.996366 136.73155 C 16.897408 136.73155 11.048449 134.304466 6.735949 129.991966 C 2.423448 125.679466 0.00157307 119.830507 0.00157307 113.731548 L 0.00157307 22.997167 C 0.00157307 16.898209 2.423448 11.04925 6.735949 6.73675 C 11.048449 2.424249 16.897408 0.00237422 22.996366 0.00237422 Z M 22.996366 0.00237422 " stroke="#030712" stroke-width="6" stroke-opacity="1" stroke-miterlimit="4"/></g></g></svg>