<svg xmlns="http://www.w3.org/2000/svg" xmlns:xlink="http://www.w3.org/1999/xlink" width="500" zoomAndPan="magnify" viewBox="0 0 375 374.999991" height="500" preserveAspectRatio="xMidYMid meet" version="1.0"><defs><clipPath id="abde132a63"><path d="M 38.433594 37.964844 L 337.5 37.964844 L 337.5 337.035156 L 38.433594 337.035156 Z M 38.433594 37.964844 " clip-rule="nonzero"/></clipPath><clipPath id="93d0d46851"><path d="M 55.683594 37.964844 L 320.25 37.964844 C 324.824219 37.964844 329.210938 39.785156 332.449219 43.019531 C 335.683594 46.253906 337.5 50.640625 337.5 55.214844 L 337.5 319.785156 C 337.5 324.359375 335.683594 328.746094 332.449219 331.980469 C 329.210938 335.214844 324.824219 337.035156 320.25 337.035156 L 55.683594 337.035156 C 51.109375 337.035156 46.722656 335.214844 43.484375 331.980469 C 40.25 328.746094 38.433594 324.359375 38.433594 319.785156 L 38.433594 55.214844 C 38.433594 50.640625 40.25 46.253906 43.484375 43.019531 C 46.722656 39.785156 51.109375 37.964844 55.683594 37.964844 Z M 55.683594 37.964844 " clip-rule="nonzero"/></clipPath><clipPath id="4a59b03cc2"><path d="M 86 294 L 289 294 L 289 304.496094 L 86 304.496094 Z M 86 294 " clip-rule="nonzero"/></clipPath><clipPath id="26a63d2a02"><path d="M 175 70.496094 L 200 70.496094 L 200 103 L 175 103 Z M 175 70.496094 " clip-rule="nonzero"/></clipPath><clipPath id="8f549906f4"><path d="M 70.496094 105 L 178 105 L 178 239 L 70.496094 239 Z M 70.496094 105 " clip-rule="nonzero"/></clipPath><clipPath id="4bf901a379"><path d="M 197 105 L 304.496094 105 L 304.496094 239 L 197 239 Z M 197 105 " clip-rule="nonzero"/></clipPath></defs><g clip-path="url(#abde132a63)"><g clip-path="url(#93d0d46851)"><path fill="#ff8dc7" d="M 38.433594 37.964844 L 337.5 37.964844 L 337.5 337.035156 L 38.433594 337.035156 Z M 38.433594 37.964844 " fill-opacity="1" fill-rule="nonzero"/></g></g><g clip-path="url(#4a59b03cc2)"><path fill="#ffdae6" d="M 279.316406 294.113281 L 95.667969 294.113281 C 92.050781 294.113281 88.820312 296.539062 87.808594 300.011719 L 86.507812 304.496094 L 288.472656 304.496094 L 287.171875 300.011719 C 286.160156 296.539062 282.929688 294.113281 279.316406 294.113281 Z M 279.316406 294.113281 " fill-opacity="1" fill-rule="nonzero"/></g><path fill="#ffdae6" d="M 181.332031 106.199219 L 193.648438 106.199219 L 193.648438 112.648438 L 181.332031 112.648438 Z M 181.332031 106.199219 " fill-opacity="1" fill-rule="nonzero"/><g clip-path="url(#26a63d2a02)"><path fill="#ffdae6" d="M 194.714844 102.363281 C 197.773438 99 199.597656 93.792969 199.597656 88.222656 C 199.597656 78.449219 194.167969 70.496094 187.488281 70.496094 C 180.8125 70.496094 175.382812 78.449219 175.382812 88.222656 C 175.382812 93.792969 177.207031 98.996094 180.265625 102.363281 Z M 194.714844 102.363281 " fill-opacity="1" fill-rule="nonzero"/></g><path fill="#ffdae6" d="M 181.332031 116.484375 L 193.648438 116.484375 L 193.648438 264.851562 L 181.332031 264.851562 Z M 181.332031 116.484375 " fill-opacity="1" fill-rule="nonzero"/><path fill="#ffdae6" d="M 136.597656 279.949219 C 133.039062 279.949219 129.859375 282.335938 128.863281 285.75 L 127.542969 290.277344 L 247.4375 290.277344 L 246.117188 285.75 C 245.125 282.332031 241.941406 279.949219 238.382812 279.949219 Z M 136.597656 279.949219 " fill-opacity="1" fill-rule="nonzero"/><path fill="#ffdae6" d="M 179.414062 268.6875 L 157.847656 268.6875 L 157.847656 276.113281 L 217.132812 276.113281 L 217.132812 268.6875 Z M 179.414062 268.6875 " fill-opacity="1" fill-rule="nonzero"/><g clip-path="url(#8f549906f4)"><path fill="#ffdae6" d="M 152.402344 213.914062 L 143.054688 213.914062 L 122.679688 134.148438 C 124.359375 134.445312 126.042969 134.617188 127.695312 134.617188 C 135.488281 134.617188 141.484375 132.292969 147.289062 130.046875 C 151.902344 128.261719 156.257812 126.574219 160.898438 126.421875 C 167.730469 126.195312 173.933594 129.222656 177.496094 131.410156 L 177.496094 115.882812 C 174.652344 114.917969 166.09375 112.371094 158.4375 113.679688 C 154.445312 114.363281 150.578125 116.4375 146.484375 118.636719 C 140.769531 121.707031 134.863281 124.875 127.695312 124.875 C 119.414062 124.875 114.828125 121.984375 112.574219 119.875 C 111.796875 120.753906 110.886719 121.527344 109.839844 122.128906 C 108.921875 122.65625 107.75 122.335938 107.222656 121.417969 C 106.695312 120.5 107.015625 119.328125 107.933594 118.800781 C 110.144531 117.53125 111.519531 115.164062 111.519531 112.621094 C 111.519531 108.695312 108.328125 105.503906 104.40625 105.503906 C 100.480469 105.503906 97.289062 108.695312 97.289062 112.621094 C 97.289062 116.386719 99.484375 120.347656 102.941406 123.859375 L 79.941406 213.914062 L 70.59375 213.914062 C 72.09375 227.875 89.867188 238.933594 111.496094 238.933594 C 133.128906 238.933594 150.902344 227.875 152.402344 213.914062 Z M 139.074219 213.914062 L 113.414062 213.914062 L 113.414062 131.132812 C 115.039062 131.902344 116.714844 132.558594 118.429688 133.09375 Z M 109.578125 129.078125 L 109.578125 213.914062 L 83.921875 213.914062 L 106.195312 126.71875 C 107.265625 127.546875 108.386719 128.34375 109.578125 129.078125 Z M 109.578125 129.078125 " fill-opacity="1" fill-rule="nonzero"/></g><g clip-path="url(#4bf901a379)"><path fill="#ffdae6" d="M 295.042969 213.914062 L 272.035156 123.859375 C 275.496094 120.351562 277.6875 116.390625 277.6875 112.621094 C 277.6875 108.699219 274.496094 105.503906 270.574219 105.503906 C 266.652344 105.503906 263.460938 108.699219 263.460938 112.621094 C 263.460938 115.167969 264.832031 117.535156 267.046875 118.800781 C 267.964844 119.328125 268.285156 120.5 267.757812 121.417969 C 267.230469 122.339844 266.058594 122.65625 265.140625 122.132812 C 264.09375 121.53125 263.183594 120.757812 262.40625 119.878906 C 260.152344 121.984375 255.5625 124.878906 247.285156 124.878906 C 240.117188 124.878906 234.210938 121.707031 228.496094 118.640625 C 224.402344 116.441406 220.535156 114.363281 216.542969 113.683594 C 208.886719 112.371094 200.332031 114.921875 197.484375 115.886719 L 197.484375 131.417969 C 201.046875 129.234375 207.25 126.214844 214.082031 126.421875 C 218.722656 126.574219 223.078125 128.261719 227.691406 130.046875 C 233.492188 132.292969 239.492188 134.617188 247.285156 134.617188 C 248.941406 134.617188 250.621094 134.445312 252.300781 134.148438 L 231.925781 213.914062 L 222.578125 213.914062 C 224.082031 227.875 241.851562 238.933594 263.484375 238.933594 C 285.113281 238.933594 302.882812 227.875 304.386719 213.914062 Z M 268.785156 126.71875 L 291.058594 213.914062 L 265.402344 213.914062 L 265.402344 129.078125 C 266.59375 128.34375 267.714844 127.546875 268.785156 126.71875 Z M 261.566406 131.132812 L 261.566406 213.914062 L 235.90625 213.914062 L 256.550781 133.09375 C 258.261719 132.558594 259.941406 131.902344 261.566406 131.132812 Z M 261.566406 131.132812 " fill-opacity="1" fill-rule="nonzero"/></g></svg>